/* XPM */
static char *coiin1710267085[] = {
/* columns rows colors chars-per-pixel */
"64 64 221 2 ",
"   c #2E002D",
".  c #30022F",
"X  c #390733",
"o  c #361E33",
"O  c #391F34",
"+  c #362435",
"@  c #3C2436",
"#  c #372834",
"$  c #3D2836",
"%  c #372639",
"&  c #3D263B",
"*  c #3D293C",
"=  c #460D39",
"-  c #48153F",
";  c #402937",
":  c #40263C",
">  c #442B3B",
",  c #422B3C",
"<  c #46313E",
"1  c #4A333E",
"2  c #4D393D",
"3  c #513B3D",
"4  c #4D403E",
"5  c #3F2640",
"6  c #3E2940",
"7  c #451A43",
"8  c #4B1842",
"9  c #541342",
"0  c #5B1645",
"q  c #591D46",
"w  c #641943",
"e  c #6B1D45",
"r  c #641A4B",
"t  c #6B1D4D",
"y  c #721E4C",
"u  c #472446",
"i  c #442C41",
"p  c #58254A",
"a  c #463243",
"s  c #4B3442",
"d  c #473840",
"f  c #4E3943",
"g  c #4C3649",
"h  c #4E394B",
"j  c #503744",
"k  c #523B43",
"l  c #533C4A",
"z  c #512C51",
"x  c #5A3256",
"c  c #543D51",
"v  c #5E365A",
"b  c #5F395D",
"n  c #752046",
"m  c #73214D",
"M  c #7C254B",
"N  c #6A2D51",
"B  c #752152",
"V  c #792354",
"C  c #792D52",
"Z  c #66375B",
"A  c #61395C",
"S  c #793358",
"D  c #564349",
"F  c #564253",
"G  c #594555",
"H  c #5B4657",
"J  c #614D58",
"K  c #65535C",
"L  c #68555A",
"P  c #694867",
"I  c #734D6D",
"U  c #794B6B",
"Y  c #685764",
"T  c #6D5B6A",
"R  c #715B6A",
"E  c #785976",
"W  c #756469",
"Q  c #736372",
"!  c #7C6C74",
"~  c #7C6C7B",
"^  c #7F707E",
"/  c #84284C",
"(  c #912C4F",
")  c #852755",
"_  c #8B2B5A",
"`  c #922E54",
"'  c #912E5D",
"]  c #873A5C",
"[  c #9D3155",
"{  c #96355D",
"}  c #A63659",
"|  c #A43C5C",
" . c #B53D5D",
".. c #B93E5E",
"X. c #8E2C60",
"o. c #922D62",
"O. c #993564",
"+. c #A03463",
"@. c #AB3867",
"#. c #A5356B",
"$. c #AB396C",
"%. c #B63C64",
"&. c #B23C6C",
"*. c #BA3F6D",
"=. c #B2405F",
"-. c #884464",
";. c #974565",
":. c #9B546D",
">. c #845A77",
",. c #935C78",
"<. c #A64263",
"1. c #B44562",
"2. c #BD416D",
"3. c #B64371",
"4. c #B44C75",
"5. c #BA4A73",
"6. c #AA5070",
"7. c #B55278",
"8. c #82637D",
"9. c #806F7C",
"0. c #83747F",
"q. c #B86278",
"w. c #C74664",
"e. c #C4446D",
"r. c #CB466E",
"t. c #CE486E",
"y. c #D24A6E",
"u. c #DB4D6D",
"i. c #C4506C",
"p. c #DA516D",
"a. c #C24B74",
"s. c #CB4D73",
"d. c #D64C70",
"f. c #DB4E70",
"g. c #C8587C",
"h. c #DF5171",
"j. c #DA5A76",
"k. c #E3526D",
"l. c #E35371",
"z. c #EA5572",
"x. c #E45B77",
"c. c #EB5A75",
"v. c #F15771",
"b. c #F25B74",
"n. c #CE627A",
"m. c #D8647A",
"M. c #E5657D",
"N. c #EC647B",
"B. c #F16077",
"V. c #F3657B",
"C. c #F36A7E",
"Z. c #975C80",
"A. c #866C85",
"S. c #886883",
"D. c #837482",
"F. c #8B7989",
"G. c #937189",
"H. c #957D93",
"J. c #AC728B",
"K. c #B67385",
"L. c #CB6984",
"P. c #C97C95",
"I. c #E66B83",
"U. c #F46E81",
"Y. c #FA6C80",
"T. c #E97588",
"R. c #F57585",
"E. c #F97887",
"W. c #F67D8B",
"Q. c #9A859A",
"!. c #998898",
"~. c #9E919D",
"^. c #A2879C",
"/. c #A1949E",
"(. c #A495A3",
"). c #A898A6",
"_. c #AB9CAA",
"`. c #B79AAD",
"'. c #AEA3AC",
"]. c #B0A5AF",
"[. c #B6AEB5",
"{. c #B9ABB5",
"}. c #BDB3BC",
"|. c #DD9097",
" X c #F7808D",
".X c #F8828E",
"XX c #EA8391",
"oX c #E88594",
"OX c #F98591",
"+X c #F58994",
"@X c #FA8B95",
"#X c #ED929C",
"$X c #F4929B",
"%X c #FB959B",
"&X c #FC9A9F",
"*X c #FC9DA1",
"=X c #CCA8B3",
"-X c #D3B3BC",
";X c #FEA5A6",
":X c #FEA7A8",
">X c #F6A8AF",
",X c #FEA8A8",
"<X c #C6BBC6",
"1X c #EBB9C9",
"2X c #F9BCC4",
"3X c #CDC5CD",
"4X c #D0C9CF",
"5X c #CFC6D0",
"6X c #D0C6D0",
"7X c #D3CCD2",
"8X c #D6D0D5",
"9X c #D8D3D7",
"0X c #DBD5DA",
"qX c #DED9DC",
"wX c #F9C8CD",
"eX c #EEC8D0",
"rX c #E1DCE1",
"tX c #E8E4E8",
"yX c #EAE6EA",
"uX c #FCEBEB",
"iX c #F4F2F4",
/* pixels */
"4 4 2 2 < $ # # # # + + @ @ % % @ % % % % % % % @ + @ + @ # # + % 5 6 6 % * % % + % & % % + + % % % % % % % % % & & + # 1 2 h 2 ",
"D 4 D 2 < > # # @ @ & % & & & & & & & & % & & & * * & 5 * * * & 5 5 6 6 % % % % % * & % % + * * & * * % * & & & : @ * % < D f s ",
"D D 2 1 < > : @ & : & & : & : : & & & & 5 * & & ; & * : * & : & 5 6 6 % * % % # : : & % & & & : : & & & & & & & @ & * * < f g 1 ",
"k k f < > ; : : & O - & - : : : : : : : * * : & & % 8 & @ - : : % * * * < < < 1 < > > & O & u : : & * * : : : & @ : ; $ * < s 1 ",
"k j s > : : : : : O O O @ @ @ O * & : : & u & & : & O : - & & : ; ; > < d f k l f < < > : O * 6 : : * * : : * & * 5 & % % % < s ",
"s a i * : : * * : & u : @ @ : : & & & * & & & * : : : : : & : : > < < 1 f f k D f 2 s > : & & & & & & & & & & & & 5 % + + # < , ",
"i 6 5 5 & & * * : : * & * * & & * & * & & % & & & & & & * : * ; s s 1 j k 3 2 k D < 2 < : * & & * & & * & & & & & 5 & % # * , & ",
"& % % % % & % * % & & @ & @ O + % * % $ & & & % & & & @ % & & & > s j k k k k 2 2 2 d 1 * * * 5 & & % * & & 6 % O & & & % * & O ",
"* % @ # @ % * * & & : ; : i * & $ $ $ @ * * * & & & & O @ & @ @ @ < l k k k k k 3 2 g 1 * $ % * & & & % & % * & 5 5 & % & & & o ",
"$ $ @ @ @ @ $ @ @ @ > i a s a s > > * $ * * * & O 5 O & : ; @ @ ; f l l k k 3 3 j k g 1 : @ % : & & & & & & & 5 & * 5 O @ & + o ",
"& & @ @ @ @ $ $ ; > < j l l l h < < > * * : * * 5 5 & : : : @ @ > 3 l D k 3 4 3 f k k f , & & * & & & & % & & & * * & & & & & o ",
"& & * @ $ @ $ $ > < j k l l l j f s < $ $ * i * 5 O + & ; @ @ @ ; 2 k k 3 3 3 3 D D f < : * 5 * 5 & & & & @ & & & * & @ & & % O ",
"% & & & $ $ $ ; 1 j k k l k l k g k 1 * % $ * * c b H H H l i F D J K K L L J k k f f < ; * * i & & & & @ & & 5 & 5 5 O + & & o ",
"* * & @ $ ; > < 1 3 k k k k k 3 k g s * * g h F }.0X0X0X0X_.Y 6X0X0X0X9XqXqX{.J H D 1 < * * 6 : * & & & & & & & & & & & & & + o ",
"5 5 & @ @ > < 1 3 3 3 3 3 3 3 k f g s * T 7X8X3XE b b b A S.{.P Z A A A A v 8.7X9X3XK $ $ & & * * & & & & & * * * * & + % & & o ",
"5 5 & + ; < 1 k 3 3 3 3 3 3 3 3 f g a ~ '.I I I @. . .%.+.S U V )  .....[ ) S I R E ].K + & & : & & & % & & & & * * & & & & & o ",
"5 5 & O & > f k k 3 3 2 3 3 k k k s D.(.,.} | 6.5.` M { t.w. .t.d.c.v.v.l.d.e.} } V >.(.{.~ @ * 5 * & & 6 * * & & * * : * : * @ ",
"5 5 o & & : 1 k 3 3 2 3 3 3 3 k s 0.(.,.1.T.s.:.O.V -.q.T.W.E.c.v.v.R.U.v.h.u.z.t.e.[ G.Q.~.~ % * & & 5 i : * @ @ & & u : : * @ ",
"O O O O $ > 1 f k k k 3 k k 3 3 ! (.,.[ j.L.C r 7.a.T.OX*X*XOXR.R.E.OXU.Y.x.e.r.L.z.b.[ n ,.(.Q & % * u , * * & & @ * O * * & O ",
"5 5 5 @ @ > > < k k k l D k k k 3XS.( j.4.O.r 7.$X XU.C.W. XW.;X;X;XW.b.R.W.I.a.OXU.l.l.l.} ,.].T * * $ * : : a u * * & : * u @ ",
": : : @ @ ; ; > f k k l l k f K [.>.[ I.L.O.7.#X%X%X*X:XOXU.;X:X:X;X;XW.b.E.*XI.x.T.L.d.t.r.} U {.Y , * * > a g g a > & * ; * O ",
"; : : @ @ $ @ @ < a s s a < l 3XE } s.&.X.S oXC.V.C.OX;X.XR.:X:X*X;X:X;XE.R.*XT.3.5.f.l.l.e.e.%.P 4XD @ * < h l x g i : : u * O ",
"& @ @ ; @ @ @ @ > > , , > > g 8XP [ z.e.@.p.C.%X&X&XW.V.W.*X:X%XR.*X:X;XW.b.I.a.j.W.U.e.&.$.e...Z 4XJ * < f l F l g i & * * * O ",
"@ @ @ @ : : @ ; : , : : : : h 5XI = ` _ M V.%X:X:X:X&XR.R.:X%XR.@X;X:XW.c.U.$XoXb.Y.OXI.f.` y *. .I }.Y f l l h h g : & & u & O ",
"@ & & & & & & & & & & * & h '.S.<.n.n.` N %X:X:XW.%X;XW.R.,X%XC.*X;XW.W.R.b.OX*Xc.e.$XU.t.B e h.t.p 9XW l l l h g i u & & i * O ",
"& & & & & & * & & & & & & H qXx =.Y.C.} 8 ;.n.T..X*X,X&X$X:X%XV.*X;XU.OXOXf.L.$Xx.&.I.j.&.O.w.v.k.| S.).R g g a ; u & & : : : + ",
"& & & & & & & & & & & & * g Q.H.;.%. .w 8 :.L.W.;X,X@X%X,X*XW.W.OX*XOXE.U.d.e.R.r.$.2._ +.h.v.z.y.u.q 6XA.a i : & & & @ & u : @ ",
"% & & & & * & & & * & & * i ~ _.-.6.;.e ] %X,X;X@XOXC. X;X&X X&XU.%X*XY.h.r.e.e.#.#.#.) ..z.h.f.%.y.q 3X9.: & & @ @ O & & i : @ ",
"& & * & & & & * & & 5 * & F 9XA ..W.R.t.@.i.XX@XR.U.C..X&X,X,X;XW.T.j.f.r.e.r.$.&.$.&.t.z.r.*.d.e.u.q 3X~ & & O * : : & : i : + ",
"& & & & & & * & & & & & @ H 0Xv ..b.b.f.o.0 O.x.@X%X%XE.R.#X$X%X$Xg.4.3.r.e.O.*.d.$.d.e.t.r.&.e.z.y.q 3X0.O O 5 : : & & * : : + ",
"& & & & & & * & & & & & & c 3XP  .l.z.z.d.' w y.l.x.c.c.u.3.5.V.V.x.T.I.e.) M d.&.$.$.y.e.s.z.z.h.+.8 4X~ 5 & u : : & O & : : O ",
"* & & & & * & & * & & & & 5 J <XU ) @.e.z.y.+.@.m ' &.t.z.h.x.$XoX5.&.V B &.e.*.d.$.#.&.t.z.c.d.$.o.8 5X~ O * : & * & O & : & o ",
"@ @ O % * & @ & @ & & @ @ @ k 8XI = 9 B $.2.u.u.o.e.f.e.$.e.h.4.N 9 X.o.t B $.$.&.#.d.f.z.d.o.y X.9 7 3X~ + 5 & & + & + 5 * % o ",
"% O % 5 6 & & $ & & : > @ k '.A.).}.K.( 9 9 n e 0 e n w 9 q n 9 X B r 9 t X.X.r #.#.*.*.*._ r B 9 7 (.F.h & & & & & @ % * u % o ",
"& + O 5 * * @ @ @ : s < J (.H.^.`.1XwXP.) / - !.(.z E _.J.n . X ` e X . = r r V #.O.y ' ) t t 0 . 7 0XY + 5 & & & & & & * : & o ",
"& @ @ 5 5 & & @ ; > 1 g W 9Xc 9XZ.{ -X1X1.;.^.yX{.H.`.wXwXP.m ( ` = . . 9 m { %.V t r t t t 0 . 7 G.~.c & & & & & & & & * * @ o ",
"$ & % : 5 * @ @ > < 3 j W 9Xx -X^.E {.>X .v iXiXA <XJ.O.=XeXa.<.>.E E u 9 @.V.M.M n V - r 0   7 A._.h & & & & & * 5 * & * * & O ",
"; & * 5 5 & & & < j k k 9.rX>.q.eXuX2XI.<.8.6XyXA =XQ.P ^.2Xt.p rX9X5XH.7 e j..XC.z./ X . u P A.].g & & & & & & & * & & & * 5 * ",
"; & & 5 * * & ; 1 k k 3 L qXyXE K.|.m.<.8.}.W rXQ q.eXuXwX+X1.I rXT i ~.Q.5 n M.%XB.t.S z H.0X].g & & % 5 & & & @ * * & * * i * ",
": & * 5 i * @ ; 1 3 k 3 3 W qXtX8.z p G.[.H H 0XtXE J.>XXX1.U rXrXP & a ~.~.n N.$Xj.C '.qX!.h g 5 % & 5 & & & & @ & * & @ : i i ",
", * * * : * 5 i 1 k k k 3 3 W 0XrX6X8X_.L 1 j L 0XrXG.p q >.rXtXT 6 * * /._.C +Xm.n {.F.H g & * O & * : * : & & O & @ + % * > < ",
"* > & ; * * 5 i 1 3 k 3 3 2 3 W ~ 0.0.L 2 1 s < Y 8XrX<X<X0XrXT 6 $ * !.!.-.m.%Xp.p 3X! O : u * 5 & : & & O & & & & @ % % * > 1 ",
"< $ * * * * 5 i k k k k k j k k 2 3 3 j j < > > & T D.D.D.D.Q 5 % * * [.Q.S OXm.] ).F.c : : : ; & : : & O O & : u & @ + $ * > > ",
"* * @ * * * 5 i j k l k k l k k 3 3 k 1 s s > > & & + % O & o 5 * * * [.!.C m.O.Q.!.h @ ; @ $ ; : : : : & & O : & & % + % * ; ; ",
"; & % & & & 5 i < 1 j k k k k l k k j 1 > > : @ & & & & & * & & & & & A.~.,.n v 0Xl @ @ ; ; > 1 < < < > & & & & 5 5 5 % $ * % + ",
": & @ & & & 5 5 > < 1 j h l j j j s s < > @ @ @ & & & & & & & & & & 5 O ~.3XE A._.h @ > > 2 3 3 1 1 s s i ; : * 5 5 % % * * @ O ",
"* * @ & & & 5 & ; > < s s 1 1 s < < > ; : @ @ + & & & & & & & & & & & & F.7X7X[.s ; , < 3 k 4 3 3 k k j s i 5 5 5 o % 5 6 * @ O ",
"* $ @ @ & % & 5 @ ; > > > > ; ; ; > ; ; @ : @ & & * & & & 5 & & & * & & * a a i $ ; s k k 3 3 3 3 D l l g i u 5 5 5 5 & 6 i O o ",
"$ & & & & & & 5 & & : & : @ : & & * & & & & & & & & & & * & & & & & & % & @ & & : i s j 3 3 3 3 3 k k k k s ; @ : @ & & * 6 ; O ",
"& & * & & & & & & & & : & : : & & & & & & & & * & & & & & & 5 * 5 & & & & & * 5 & i s k 3 3 3 3 3 k k k k s > @ - : * & * : : & ",
"% & & & & * & & & & * & : & & & & * & & & & * & & & @ & & & * * & & & & & & & & & i j l 3 3 3 2 3 3 k k k s > $ @ & & % * * : O ",
"& & & & & & & & & : : & & * & ; & 5 & & & & & & O % @ @ @ & * 5 & & & O & & & * : i j l D k 3 j k l k l k < ; ; $ @ : & * u : O ",
"& & & & & * * & & : : * * & : & & & * & & * & & & & + @ @ & & & 5 & & & & & & & : : s f j k k k l k l j s < ; : O & * & * i & O ",
"& * & & & & & * & & & & : & : & & & & & & & & * & & & & & & @ & & & % & @ * & * : : ; : < f k k k l k s s > : : : & & @ * : : O ",
"& & * & & & & & : & & : & : & * & & & & & * & & 5 i i i i 6 5 & & & & @ & @ * * : : & ; , f 1 s 1 1 1 < : : & : : : * & * : : O ",
"& & & & & & * * & * & : & & & : & & * & & & * * 6 i a g a i * & & & & & & & & * , : & ; : > > : > > > > @ @ @ : O : * * * : : : ",
"> ; O $ & 5 5 & * & & & & & & & * : * & & u * & : i g k s ; @ @ & * & & : : & & 5 * & & * : & * & : * & & & * : : O + @ % * ; : ",
"1 ; @ O & 5 5 5 & & & & * & 5 & * 6 * & & * * & ; s k j s > ; & & * : & * & & : & & & & * & & * & & & & & & & & : 5 % % * ; > , ",
"2 1 $ O & & u @ & & * & & & & & * : & & * i * * ; s g j < > ; ; & & & & & & & : & & * & & & & & * & * & & & * & : & & % * , s < ",
"2 1 > ; : & : & & & & & & & * & * 5 & & & : * & & ; < i ; : ; : : * & : : : & * & & & & & & & & & & & & & & & & & & & * d f j j ",
"3 3 < > : & & & & & & & & & & * * * & & & i 5 @ & @ & ; & & : * & * & & & & * : & & & & & & & & & & & & & * & & > $ # * d h k k ",
"k k 3 < > : & @ & * & & & & & & * i * & & i * & & & & & ; : : ; : & : : & : & & * & & & & & 5 * & * & & & * * : * $ $ * d h k f ",
"3 k k 1 < > & & & & & & & & & & * : * & & 6 : * & : : & & : * u & : : & : & : & & 5 & & & & & & & & & & & & & @ ; $ # < f k f 1 ",
"3 k k k s > & O & & & & * & & 5 * : * & % i : & & & & : * u * : & & & & * & : & & & & & & * & & & & * & & & & @ $ @ # # 1 g 3 1 "
};
