/* XPM */
static char *exit_close1710083111[] = {
/* columns rows colors chars-per-pixel */
"64 64 227 2 ",
"   c #020202",
".  c #0C0502",
"X  c #0C0A09",
"o  c #140B03",
"O  c #1E0B05",
"+  c #160908",
"@  c #1A1208",
"#  c #0C0F10",
"$  c #0E1112",
"%  c #181513",
"&  c #250D06",
"*  c #290B07",
"=  c #2B0A0A",
"-  c #330B0A",
";  c #3B0C0E",
":  c #261405",
">  c #291506",
",  c #261805",
"<  c #2B1C06",
"1  c #25170A",
"2  c #311707",
"3  c #341907",
"4  c #39170A",
"5  c #3B1B08",
"6  c #261814",
"7  c #381315",
"8  c #3A2A07",
"9  c #3B230A",
"0  c #39290B",
"q  c #2A2218",
"w  c #392B19",
"e  c #3B1A26",
"r  c #361E33",
"t  c #391F34",
"y  c #2A2828",
"u  c #292B2E",
"i  c #372A25",
"p  c #3A352E",
"a  c #2B2E32",
"s  c #362435",
"d  c #3C2436",
"f  c #3D2837",
"g  c #372639",
"h  c #3D263B",
"j  c #3D293B",
"k  c #2D3133",
"l  c #393938",
"z  c #470D0E",
"x  c #42140C",
"c  c #4B170E",
"v  c #421C0B",
"b  c #541C0F",
"n  c #4D0E10",
"m  c #530E11",
"M  c #4E171F",
"N  c #4C1D18",
"B  c #561011",
"V  c #5E1214",
"C  c #591B11",
"Z  c #50181F",
"A  c #601514",
"S  c #611B13",
"D  c #47240B",
"F  c #492C0B",
"G  c #51260D",
"H  c #5A2B0F",
"J  c #4C340C",
"K  c #50300D",
"L  c #5E330F",
"P  c #533D0C",
"I  c #4F241B",
"U  c #562815",
"Y  c #5A3913",
"T  c #5D321F",
"R  c #612E0F",
"E  c #65320F",
"W  c #632212",
"Q  c #662C11",
"!  c #652B17",
"~  c #673011",
"^  c #6A3512",
"/  c #653B17",
"(  c #6E3B13",
")  c #67361A",
"_  c #6C3C1A",
"`  c #713E13",
"'  c #4E1720",
"]  c #4E1821",
"[  c #4A1D29",
"{  c #501921",
"}  c #46262B",
"|  c #4B292D",
" . c #552D25",
".. c #522D2C",
"X. c #4D3E22",
"o. c #5C3528",
"O. c #422736",
"+. c #432935",
"@. c #4A2D34",
"#. c #40263C",
"$. c #422B3B",
"%. c #492F3B",
"&. c #45323D",
"*. c #493638",
"=. c #4B343E",
"-. c #433C39",
";. c #543534",
":. c #563835",
">. c #523C3D",
",. c #652E21",
"<. c #633925",
"1. c #693E20",
"2. c #703D24",
"3. c #5B4316",
"4. c #62400F",
"5. c #634411",
"6. c #6B4212",
"7. c #664A14",
"8. c #6C4D12",
"9. c #744314",
"0. c #774816",
"q. c #7B4C16",
"w. c #734619",
"e. c #794918",
"r. c #6F5112",
"t. c #715313",
"y. c #7D5116",
"u. c #7D5915",
"i. c #7B571D",
"p. c #514227",
"a. c #454038",
"s. c #5B4339",
"d. c #65462E",
"f. c #674829",
"g. c #785625",
"h. c #71512B",
"j. c #654937",
"k. c #64493B",
"l. c #6D5535",
"z. c #715333",
"x. c #765D37",
"c. c #7B6338",
"v. c #3E2640",
"b. c #3E2940",
"n. c #363F43",
"m. c #402640",
"M. c #442C41",
"N. c #453443",
"B. c #4C3442",
"V. c #4D3A42",
"C. c #4A3749",
"Z. c #503741",
"A. c #523B43",
"S. c #533D4C",
"D. c #543C50",
"F. c #3B4449",
"G. c #484647",
"H. c #4B4B4B",
"J. c #534242",
"K. c #5F4E4E",
"L. c #624E41",
"P. c #655755",
"I. c #6A5D54",
"U. c #69625A",
"Y. c #776851",
"T. c #575962",
"R. c #58676D",
"E. c #5D696E",
"W. c #5D6A72",
"Q. c #686867",
"!. c #766F6B",
"~. c #6A716E",
"^. c #616B76",
"/. c #66757D",
"(. c #797770",
"). c #835617",
"_. c #845916",
"`. c #825619",
"'. c #875B1A",
"]. c #895D18",
"[. c #8C621D",
"{. c #8F681F",
"}. c #91671B",
"|. c #9E711F",
" X c #A2731F",
".X c #825C24",
"XX c #866126",
"oX c #8B6624",
"OX c #927133",
"+X c #A77A28",
"@X c #A37B31",
"#X c #8C784C",
"$X c #90756B",
"%X c #AF8129",
"&X c #B78223",
"*X c #C78F2B",
"=X c #C79538",
"-X c #D8A03C",
";X c #99855D",
":X c #AC8B49",
">X c #B09151",
",X c #8D8675",
"<X c #AF986A",
"1X c #BCA26D",
"2X c #C69E51",
"3X c #CDA34F",
"4X c #D0B172",
"5X c #ECC15F",
"6X c #EAC36E",
"7X c #EDCA7A",
"8X c #F1CA74",
"9X c #687880",
"0X c #7B8084",
"qX c #888D8E",
"wX c #909495",
"eX c #989799",
"rX c #9DA0A3",
"tX c #A4A7A9",
"yX c #B8B5AA",
"uX c #B7B5B4",
"iX c #C0B7A0",
"pX c #EDD086",
"aX c #CBC3AE",
"sX c #C9C4B8",
"dX c #EADAAB",
"fX c #BFC2C5",
"gX c #EEE4C2",
/* pixels */
"J.s.G.=.&.j f s g g d j d h d [ ] Z ] M M M M M M M M M { Z Z ] ] ] ] ] ] ] ] ] M M ] ' ' M ' ' [ O.f h j j g j j h g f -.J.S.V.",
"J.J.J.=.&.$.f g f f d h h h t e ; ; ; 7 ; 7 ; ; ; ; ; ; ; ; ; ; ; ; ; ; ; ; ; ; ; ; ; ; - ; ; ; ; e d h h j j j d d g j N.S.A.=.",
"J.S.V.=.%.+.#.h d %.@...@.@.} O . o 9 8 9 9 0 i y % , : . . . O < @ : w i % 1 9 F 8 8 8 0 i y + + q +.@.@.+.#.d d h h j j B.B.B.",
"S.A.V.&.$.+.#.#.#.o.g.f._ <.T 1 . < [.%X+X|.+X;XU.w r.5.@   o 3.g.0 7.:X,Xl P {. X X+X&X@X;XU.$   0 T _ 1...#.#.d #.j j j %.B.B.",
"A.Z.M.$.$.#.#.h O.d.[.y.w.0./ , . 8 =X5X2XXXu.Y.H.w |.&X5., 3.:X<XX.oX6XaXH.F r.[.*X5X4XOXY.H.X . D 9.0.9.o.+.#.h v.v.s g j &.B.",
"B.M.M.v.h #.h j $.f.{.).0.0./ 9 o F =X8X1Xr.3.s.l q u.*X&Xi.:X4X,XX.oX6XaXH.X X < +X8XiXa.% X . @ K 9.9.0.o.$.#.h v.g s s g $.%.",
"M.v.j j h h h j $.d.{._.y.q.y.4.8 J *X5X3X%X%X<XQ.q 0 @X-X%XpX<X-., oX6XaXH.X   , @X7XyXl     o K 0.q.).t.o.+.g h v.g g g j h f ",
"h v.g g h g g j +.d.}.}.}.}.}._.J P =X7X1Xg.p.l.a.q i.2X1XOX:X2XXX0 oX7XaXH.    1 @XpXyXl     @ 7.}.}.[.[.f.&.g t h j j h h f t ",
"h h f s d d j j +.d.{.]._.'._.).F p.4XgXsX0X!.~.H.w +X>XY.y 3.:X>Xp.#XdXsXH.    6 ;XdXsXl     @ 5.)._._.y.f.$.h v.v.d g h j d r ",
"f f d d d f f f +.d.[.0.^ ^ ^ ~ 5 p qXuXuXtXtXrX~.w u.7.%   @ K.(.a.Q.yXeXp X   % (.yXqXy     o G ( ^ ^ ^  .+.j h h j h h h g r ",
"h f h s d f d d +.d.[.9.~ ~ ~ ~ 5 6 i -.-.-.-.-.y @ < < o . o 6 i % q l p % . . + y l p @ . . O G Q ~ Q !  .O.h h h h h h j h r ",
"h h h d f d f f *.z.[.9.~ R ~ R G 5 5 3 3 5 5 5 5 5 3 3 3 9 5 5 5 5 5 5 5 5 9 5 5 5 3 5 5 5 3 D H R ~ ~ ~  .#.j j j h h g v.t r ",
"j h d h f f f $.>.z.[.9.G v v v 5 5 5 5 5 4 5 5 5 5 5 5 5 5 5 5 5 5 5 5 5 5 5 5 5 5 5 5 5 5 D 5 5 v K 6.^  .#.h h j h d d h d r ",
"h v.g h f f %.&.>.h.[.6.3 o o & : < < < , < , < < < < < , < , , , , < < < < < 3 < < < < < < < < < @ 8 u.9. .#.h j v.h d h h g r ",
"v.v.d d f %.&.>.>.z.[.6.2 O 5 c H r.r.L Y 8.Y 8.r.t.r.5.4.7.4.E 7.3.5.t.t.r.r.t.t.r.r.r.t.r.r.r.5.8 8 u.0. .d h h j h g h h h r ",
"v.v.h d f &.=.A.A.h.[.( 2 & b W 9._.].).q.q.0.`.].].).q.q._.y.).q.q.).].'._._.].[.[._._.].[.].].t.D 8 u.0. .#.j h v.h h h h h r ",
"v.v.v.t h $.=.A.J.z.[.( 3 & b W ^ 9.e.` ` ` ` `.).` ( ` ` ).9.` ` ` ` ).9.` ` 9.` `.` ( ( ).).` ^ 3 8 u.0. .#.d h #.#.h m.#.h t ",
"v.v.t t h %.=.A.s.z.[.` 3 & b W Q ( ` ` ` ` ( ( ` ` ` ` ( ( ` ` ` ( ( ` ` ` ` ` ` ( ` ( ^ ( ( ` ( 8 8 u.0. .#.d d h #.#.#.M.h d ",
"v.v.r h h $.=.V.A.z.[.( 3 * b W ~ ` ` ` ` e.` ` ` ` 9.9.` ( ` 9.9.` ( ( ` `.9.` ( ` 9.).` ` ( ` ( 9 8 u.0. .$.h h #.d h h #.#.d ",
"h t h t h +.%.&.J.z.[.6.> & b W Q ` ` ( ` ` ` ` ` ` 9.` ( ( ( ` `.` ( ( ` ` ` ` ( ` 9.` ` ( ` ` 6.8 8 u.0. .%.M.M.m.#.h #.M.v.t ",
"#.#.#.d f f O.+.>.z..X( 3 & C W Q ( ` ( ` ` ` ( ` ( ` ` ( ( ( ` ( ` ( ` ( ` ` ( ` ( ` ` ( ( ` ( E 8 8 u.9. .B.S.C.B.$.h h M.d t ",
"#.#.#.f d d d d &.z.[.` 3 & b W Q ( ( ` ` ( ` ( ( ( ^ ( ( ( ( ( ^ ( ( ( ` ( ( ( ^ ` ( ( ` ` ( ( E 3 8 u.0.o.Z.D.D.C.M.#.#.M.v.t ",
"d f d h d d d d %.d.].6.3 & b W Q ^ ^ ^ ^ ^ ^ ^ ^ ( ^ ^ ^ ^ ( ^ ^ ^ Q ^ ^ ^ ^ ^ Q ^ ^ ^ ^ ^ ^ ( L 3 8 u.0.o.S.S.D.C.M.h h #.h d ",
"d d h d #.#.d #.%.d.[.( > & b W Q ^ ^ ^ ^ ^ ^ ^ ~ ( ^ ^ ^ ^ ^ ~ ^ ( ^ ^ ( ^ ^ ( ^ ^ ^ ^ ^ ^ ^ ^ R 2 8 u.q.<.A.S.D.C.m.h h M.h t ",
"d h h h j h h h %.d.oX( 2 & b W ^ ` ^ ( ( ^ ` ^ ^ ` ^ ( ` ^ ( ( ^ ( ^ ^ ` ^ ( ( ^ ( ( ^ ` ^ ^ ` H 3 8 u.e.o.Z.S.M.M.M.#.#.m.h t ",
"h h h h h h h h $.d.[.( 2 & b W ! ^ Q ^ ~ ^ ^ ~ ^ ^ ^ ^ ^ ~ ^ ^ ^ ^ ^ ^ ^ ^ ^ ^ ^ ~ ^ ~ ^ ^ ^ ^ H 3 8 u.e.<.B.M.m.m.m.m.#.M.#.t ",
"h h h h h h h j +.f.[.( 2 & b W W ^ ^ Q ~ ^ ^ ^ ^ ^ ^ ^ ^ ^ ^ ( ^ ( ^ ^ ( ^ ^ ( ^ ( ( ^ ( ^ ~ ^ Q 3 9 u.e.o.%.#.#.t t t h m.$.d ",
"h h h h v.h h h $.s.[.6.2 & b W Q Q Q ^ ~ ~ ` ( ^ ` ^ ^ ( ^ ( ( ^ ^ ^ ( ( ^ ( ^ ^ ( ^ ^ ( ^ ~ Q U 2 9 `.e. .#.d O.O.m.t #.M.v.d ",
"#.h h h h j h h $.s..X9.9 > c W W Q Q ^ Q ^ ^ ~ ^ ^ ~ ^ ~ ~ ^ ~ ~ ^ ~ ^ ^ ^ ^ ^ ~ ~ ^ ~ ~ ~ ~ R b 2 F y._  .#.t #.#.#.d #.M.h d ",
"h h h h h h h h f @.d.i.( 5 2 b S W Q Q Q ^ ~ ~ ~ ~ ~ ~ ~ ~ ~ ~ ~ ~ ~ ~ Q Q Q Q ~ ~ ~ ~ ~ ~ ~ H 4 F 8.6.o.+.#.#.#.m.#.h h M.d t ",
"h h h h h h h h j h :.g.q.D & x W Q Q ^ Q ~ ~ ~ ~ ~ ~ ~ ~ ~ ~ ~ ~ ~ Q Q ~ ~ ^ Q ~ ~ ~ ~ ~ ~ ~ G > P `._ | #.v.#.#.h h h h #.h t ",
"j h h h h h j h f h ;..Xy.D O 4 S Q Q ^ ^ Q ^ Q ~ ~ ~ ~ ~ ~ ~ ~ ~ ~ ^ ~ ~ ~ ~ Q ~ ~ ~ ~ ~ ~ E G > P _._ | h v.m.h h t d h m.d r ",
"d d r h h h f d d f ;..Xy.D & v W W Q ~ ~ ~ ~ ~ ~ ~ ~ ~ ~ ~ ~ ~ ~ ~ ~ ~ ~ ^ Q ~ ~ ) ) ) ) _ / G < P _./ | #.d h h d g d h M.h r ",
"h g r v.v.h d f d j :..Xq.D O x W W Q ~ ~ ~ ~ ~ ~ ~ ~ ~ ~ ~ ~ ~ ~ ~ ~ ~ ~ ~ ~ Q _ k.I.U.I.I.k.U : 3._._ | f h h h h h d v.m.g r ",
"h s t v.v.j f d d $.:.oXy.D O x W W ~ ~ ~ ~ ~ ~ ~ ~ ~ ~ ~ ~ ~ ~ ~ ~ ~ ~ ~ ~ ~ ~ ,.U.qXrXeX9XI.I , P _._ | #.h h h h h j h b.d r ",
"h d g v.v.h d f #.$.s.XXy.D O x S W Q ~ ~ ~ ~ ~ ~ ~ ~ ~ ~ ~ ~ ~ ~ ~ ~ ~ ~ ~ ~ ~ <.!.tXfXuXwX$XU , P _._ @.h h h h h j h h h h r ",
"j h h j b.h h f %.&.k..Xq.D & z A S Q ~ ~ ~ ~ ~ Q ~ ~ ~ E ~ ~ ~ ~ ~ ~ Q ~ Q ~ ~ 2.$XeXeXqXeX$XT : P _._ | f #.h h v.j j h j j d ",
"+.h h v.v.h h j &.>.k.XX`.D O ; A A W W ~ ~ ~ W W ~ ~ ~ ~ W Q ~ ~ Q Q Q Q ^ Q Q ! L.Q.9X/.Q.k.Z & P _._ | h h h j h j d h j b.h ",
"h h j v.v.h h +.>.A.k.XX`.v O ; V A S Q Q Q ~ W W Q W ~ W W Q ~ Q Q W W Q Q Q Q C 6 u F.G.y 1 x > P )._ | d h h d h j h h $.M.j ",
"$.j j j v.j j +.=.A.k.XXq.v O z V S W Q Q S Q Q Q ~ W W Q Q Q W W Q Q Q Q W W Q U 6 $ $ $ $ 7 v > P ).( | f h d d h h h h j M.M.",
"$.j h +.j v.j M.Z.A.j.XX`.D O ; V A S Q Q Q Q W W ~ Q ~ Q W W ~ W Q W W Q Q Q Q W >.a # # k *.N & P )._ | #.h #.h h d s s j %.&.",
"$.j h j v.h M.M.=.A.k..Xq.D O z V A W W Q Q Q S W W Q W W S W Q Q W W W W Q Q W ! P.T.n.n.T.P.I > P _.( | t h h h d g g s j %.&.",
"$.j f h h j v.M.Z.A.k.XX`.D & ; V A W S S Q S W W S W W W W S W W W W W W W W W ,.U./.^././.I.I : P )._ | t h #.h d h g g f +.$.",
"$.j f h h v.b.M.Z.A.L.XXq.D O ; V V S W W S W W W W W W W W W W W W W W W S W W T K.R.W.W.E.K.N & P )._ | d t #.m.v.h g g h #.#.",
"j h d j h v.v.b.&.=.k.XX).v O ; A A W S S W S W W S W W W W W S W W W W S W W S U } a a a a } D > P )._ | #.t #.h v.g g j g j d ",
"j h d d h j h b.$.*.s..Xq.v O z V S S S S W A W S S S S S S S S S A S S S S S A C 4 = * = = 4 c > P _._ ..#.m.m.v.v.v.b.j j f t ",
"+.h d j j h v.v.+.+.:.oX).v O ; V A S A C A V S S A S S V S A S S A A S A S A S A V B B B B C n > P _._ ;.%.v.m.v.g v.g b.h d r ",
"+.g d h h j h h d +.:..Xy.D O x V A S S S W A W S S S S S S S S W S S S S S S S S S S W C S W n & P _._ ;.M.m.v.v.v.g b.b.$.t t ",
"j h h h h h h h h $.;..Xy.D & ; V V A A A S S S S A S S A S S A S V S S A S S S S S S S A S S n & P _._ :.=.+.t O.O.v.j j h #.t ",
"h h h j j h h h h h ;..Xy.D & ; V V V V A S A S A A S S A S A S S V S S A S A A S A S S V V V n & P ]._ :.=.%.O.#.t h d j v.m.t ",
"j h h h h h v.h h h :..X).v O ; V V V V S W S S S S S S S W S S W S W S S S S S S S S S S V A n * P _.w.:.=.+.O.#.#.#.h h m.#.t ",
"h h h h h h h j h $.>.g.q.D * ; V V V V A S A A S A S S A S A A S V V S A S A A S A S S A V V z > P `._ ;.&.$.h t m.h h j m.#.O.",
"h v.h j h h h h #.#.&.f.e.( 9 - z V V V S S A V V A S S A V A A S S V V A S S A V V A S A A n ; F 7.0.<.=.%.+.h t h j h j M.d t ",
"h h h h h h h h h #.#.@.h._.H : - V V V S S A V V V S S A V A A W V V V A S S A A V S W A B ; 3 8.q.<.;.$.$.#.#.#.h h j h M.M.t ",
"h h h h h h j h #.h h &.h.'.L : = m V V A A V V A A A A V V V A A V A V V A A V A V A A A V ; , t.`.) @.$.#.h #.#.#.h j h #.#.t ",
"j h h h h v.h h #.h h &.h.].R & - V A A V V V V V V V V A V V V A V A V V V V V V V A V A V ; , t.y. .@.d d h #.t #.h h h m.#.O.",
"+.f s d h m.m.h h h h @.h.'.L : = B V V V V V V V V V V V V V V V V V V V V V V V V V V V V ; > 0.q.) } h h h h #.t h s g j +.j ",
"&.+.d d h m.m.v.h h h &.h.].L * - B V V V V V V V V V V V V V A V V A A V V V V A V A A V V ; 2 r.`. .O.h h v.h h m.h g g $.$.%.",
">.%.d d h h m.h h h h @.h.].L : = n m m V m m m V B B B V B m m V m m m B B V B B B B c m m ; > r.y.T O.j h h h #.h h g j N.B.B.",
"A.&.%.O.#.h m.h h j h %.h..XL & + = = = = = - = = = = = = = = = = = = = = = = = = = = & = = + 1 r.y.o.+.h h h #.#.h d b.N.B.B.V.",
"A.>.&.$.h h h d h j j $.k.c.j.p u u u u u u u u u u u u u u u u u u u u u u u u u u u u u u u p x.x.s.f h h h h #.f g $.N.V.S.V.",
"A.A.>.&.%.#.h d h j b.C.T.~.~.Q.R.R.R.R.R.R.R.R.R.R.R.R.R.R.R.R.R.R.R.R.R.R.R.R.R.R.R.R.R.R.E.^.~.~.R.C.b.v.h h #.f f l V.V.A.A.",
"A.>.Z.Z.M.$.d h j h b.T.W.9X9X9X9X9X9X9X9X9X9X9X9X9X9X9X9X9X9X9X9X9X9X9X9X9X9X9X0X/.9X9X/.9X9X9X9X/.^.T.C.v.d f O.d d f C.V.V.=.",
">.S.A.Z.B.$.d r h j N.R././.9X/.9X/././.9X/.9X/././././././.9X/./.9X/./.9X/./././././././././././././.W.G.m.h f d d d $.-.V.>.=."
};
