/* XPM */
static char *Screenshot_from_2024_03_13_20_56_531710363503[] = {
/* columns rows colors chars-per-pixel */
"64 64 211 2 ",
"   c #35171A",
".  c #351B1C",
"X  c #351F21",
"o  c #361E25",
"O  c #341F31",
"+  c #391F33",
"@  c #362224",
"#  c #3A2224",
"$  c #362729",
"%  c #3A2728",
"&  c #37282A",
"*  c #39292B",
"=  c #362335",
"-  c #3C2536",
";  c #3D2837",
":  c #372538",
">  c #3D263B",
",  c #3D293B",
"<  c #3F3039",
"1  c #6F1F21",
"2  c #7A1D20",
"3  c #412627",
"4  c #402729",
"5  c #432B2D",
"6  c #412B34",
"7  c #40263C",
"8  c #422A3C",
"9  c #482F3D",
"0  c #433133",
"q  c #4B3435",
"w  c #45313D",
"e  c #4A343D",
"r  c #4E393C",
"t  c #533637",
"y  c #513B3D",
"u  c #702C2E",
"i  c #78292B",
"p  c #673233",
"a  c #783A3B",
"s  c #3F2640",
"d  c #3F2940",
"f  c #402640",
"g  c #442D41",
"h  c #482F42",
"j  c #463143",
"k  c #4B3443",
"l  c #4E3944",
"z  c #4C3549",
"x  c #4E394A",
"c  c #523B43",
"v  c #593F42",
"b  c #533C4B",
"n  c #533E50",
"m  c #4E4040",
"M  c #544143",
"N  c #5B4345",
"B  c #5B4549",
"V  c #5E4A4E",
"C  c #554151",
"Z  c #5B4554",
"A  c #5D4955",
"S  c #5D4758",
"D  c #5E4A59",
"F  c #674A4A",
"G  c #614B4C",
"H  c #774749",
"J  c #634D54",
"K  c #624D5B",
"L  c #6A4F5D",
"P  c #665156",
"I  c #6B5555",
"U  c #65515C",
"Y  c #69545C",
"T  c #6E5859",
"R  c #765455",
"E  c #72525C",
"W  c #755B5C",
"Q  c #7B5D5D",
"!  c #75615F",
"~  c #675461",
"^  c #6C5661",
"/  c #6E5A64",
"(  c #735C65",
")  c #7A5D65",
"_  c #775B68",
"`  c #756164",
"'  c #7D6464",
"]  c #76646D",
"[  c #7A656C",
"{  c #756B6E",
"}  c #7C6A6D",
"|  c #766571",
" . c #7A6670",
".. c #736E71",
"X. c #7D6B72",
"o. c #7A7776",
"O. c #822629",
"+. c #892E31",
"@. c #87373A",
"#. c #913A3D",
"$. c #88494C",
"%. c #944346",
"&. c #94494C",
"*. c #854D55",
"=. c #954E52",
"-. c #86585B",
";. c #99575A",
":. c #A44B50",
">. c #A6585C",
",. c #8C605D",
"<. c #845B64",
"1. c #965D62",
"2. c #A65F62",
"3. c #836364",
"4. c #8B6265",
"5. c #826966",
"6. c #83656B",
"7. c #89666B",
"8. c #856B6C",
"9. c #8B6C6C",
"0. c #9D6265",
"q. c #956468",
"w. c #916B6C",
"e. c #8C736F",
"r. c #93706F",
"t. c #816D73",
"y. c #876D74",
"u. c #936D74",
"i. c #857273",
"p. c #8C7473",
"a. c #877779",
"s. c #897479",
"d. c #8D797B",
"f. c #937474",
"g. c #917977",
"h. c #997778",
"j. c #937D7A",
"k. c #AA6669",
"l. c #B46A6E",
"z. c #AF6C70",
"x. c #B46D71",
"c. c #A97778",
"v. c #B77578",
"b. c #C1767B",
"n. c #7F827D",
"m. c #81807B",
"M. c #97817D",
"N. c #98827F",
"B. c #A1807D",
"V. c #8B7C81",
"C. c #947D82",
"Z. c #A47D81",
"A. c #AB7E83",
"S. c #BD7E82",
"D. c #C27D82",
"F. c #8C8384",
"G. c #878886",
"H. c #958384",
"J. c #9A8582",
"K. c #9D8985",
"L. c #938B8B",
"P. c #9D8B8B",
"I. c #9C9797",
"U. c #A98687",
"Y. c #A28E8A",
"T. c #AA8B8A",
"R. c #A3918C",
"E. c #AB918D",
"W. c #A59593",
"Q. c #A99794",
"!. c #AB9A95",
"~. c #AA9B9A",
"^. c #B69D99",
"/. c #9CA29E",
"(. c #B2A29E",
"). c #B19EA1",
"_. c #9DB6A8",
"`. c #AAA9A6",
"'. c #B4A5A1",
"]. c #B9A6A2",
"[. c #B6A9A4",
"{. c #B9ABA5",
"}. c #B2ADAB",
"|. c #BBAEA9",
" X c #BDB2AD",
".X c #BBB5B0",
"XX c #B9B6B3",
"oX c #C5868A",
"OX c #CB8D91",
"+X c #C2B4AE",
"@X c #C2B5B1",
"#X c #C5BAB5",
"$X c #C8BBB6",
"%X c #C6BDB9",
"&X c #CABEB9",
"*X c #CCC2BD",
"=X c #D0C5BF",
"-X c #CEC6C1",
";X c #CFC9C2",
":X c #D3C7C1",
">X c #D3CBC5",
",X c #D4CFC9",
"<X c #D6D1CB",
"1X c #DCD4CD",
"2X c #DBD7D1",
"3X c #DEDAD3",
"4X c #E1DCD5",
"5X c #E5E2DB",
"6X c #EBE9E4",
"7X c #ECEAE4",
"8X c #F0EFEB",
/* pixels */
"M M m r e ; : = : - > > > > > > > : > : d : > > : > : j J { X.X.| | X.o.| D g : : : d : : : : > : : , : > : , , , > : < e C c e ",
"M m m r w 6 ; : : - + > > > > > , > > > : , , > > , S V.[.#X*X>X-XXX-X-X%X}.V.x > > > : > : , 7 > > , d > > > > - > ; , j m l e ",
"N c l e 9 7 7 > > 7 - 7 7 7 > , > 7 > 7 d , 7 > , K Q.,X2X1X5X6X5X;X3X2X2X3X,X~.Z 7 > > > > 7 g , , > > 7 > > > - > , , w l k w ",
"b c k w 8 6 7 7 - 7 7 + + 7 7 > 7 7 7 7 , , 7 7 K W.,X2X1X1X5X5X5X:X,X<X3X3X5X3X~.J 7 > = > 7 f 7 7 7 , 7 7 7 7 > 7 , ; ; w k w ",
"c k j 8 7 7 7 7 7 + + + + + + 7 , 7 7 7 7 7 > b C.@X,X2X5X1X3X5X5X*X:X<X<X<X5X5X3XP.b > > > , , 7 7 , 7 7 7 > > , , : : : , e w ",
"k h d , > 7 , , 7 7 f > 7 7 + 7 , , > > > > 7 { ~.XX<X:X!.M.Y.!.*XXX(.Q.R.R.*X5X6X-X[ 9 > > > s > > , d > > , > s s > : : , 8 , ",
"s d , s > , , , f 7 > > , s 7 7 , : , , > > C H.'.*X%XK.R.+X+X{.].|.#X#X{.J.P.4X7X5XI.x > > > > > > > : , > : s > > : : > > , - ",
"> > : : > : : , > , > > > + > + , : : : , , ~ R.[.>X!.~.,X1X1X1X<X1X1X1X1X*XY.*X8X7X XP , , , > > > : , > > , : + > > : , > > $ ",
", ; - = - > , , > > 8 8 8 8 7 7 ; ; ; ; , g X.Q.[.>XR.=X1X1X1X1X1X1X1X1X1X1X|.^.6X8X;X] , = > > s > > > > > > , s s > : > > > O ",
"; ; - : - - > ; - - 8 h k k k k w , ; - , g i.~. X;X{.1X4X4X4X1X1X1X1X4X4X2X:X].5X6X<XX.> > > > > > : > > > , 7 , , > > > > + O ",
"- > > - - - - - 7 9 w z b b b z k w 8 - , g i.!. X*X|.XX}.XX`.%X1X<X+X}.XX}.XX[.3X5X>XX.8 > > , > > > > > > > , > , > + > > : O ",
"> > - - ; - ; 6 9 e c c b b b c k k 9 ; > 8 X.~.|.*XF.{ { ] ..I.;X-XL...{ { { L.2X3X%XX.8 , s , , > > + > > > , , , > > > s : O ",
"> > > > ; ; ; 8 e c c v v v c l l x j , - g X.Q. X%X} H.(.R.t.G.*XXXa.i.~.~.C.a.,X2X.XX.8 > , f s > > > > > > > > , > : > > + O ",
", > > : ; ; w q r l c c c c c c l z j , > , i.W.%X<XXX}.`.`.F.F.*XXXm.L.`.`.}.#X2X2X|. ., , s , , , > > > > > , , , > > > > : O ",
"s s > = ; 9 e r r y y r y y y c l l k , - , X.W.+X*X'./._._.G.L.*XXXF.G._._./.).,X<X|.] - , > , > > > > > > > , > , > : > > > O ",
"s > > > ; w k c c y y r r y y l l l j 8 > 8 i.R. X#X} s.m.o.o.~.*X*X~.o.n.n.y.p.;X<X}.[ - > > 8 > > > > > > > > > , > : > s + O ",
"s s + > > 9 e c y r r y y c c c c k j 8 , f t.P. X#X! Q ! ! Q ^.&X=XW.! W W Q p.*X>X'. .> > > , > > > s d , , + > f 7 , 7 8 > + ",
"s > > + > 9 e c c y y r y c c y k k g 8 , f t.P. X#Xe.e.N.r.w.^.=X*XE.w.q.h.j.K.%X;X'. ., > > > > > > d 8 , , > > , 7 7 7 f , + ",
"> s + + - 9 e k c c y c M c c e j 8 8 8 , g i.K.|.#Xe.e.E.f.,.B.c.E.h.,.4.N.g.j.-X-X[.| > > > > > > , d 8 , , > + 7 > > , 8 > + ",
"s + : > 7 6 9 k v v b b N c k e 8 , , , > f X.K.{.@Xe.M.M.Y.1.B.x.=XQ.f.r.g.j.j.%X;X].| > > > > - > , , > 8 g j g f 7 > , s , + ",
"8 7 7 - - - 6 9 k c c c c k e 9 6 ; > , > d X.P.(.|.M.N.N.M.r.w.a ,.M.M.M.K.J.j.@X>X'.| > , > > - ; ; ; - 8 k x z h 8 7 7 8 , + ",
"7 7 - 7 - - - - 9 9 j k k 9 7 7 > - , > > d X.M.(.|.M.K.Y.M.M.5.u p g.N.K.K.M.j..X-XY.] , > > > , ; ; ; 8 k x b n z g > f f > O ",
"- - - - - - - - 8 8 8 8 9 8 - + - , > , , f X.M.(.+Xg.Y.M.M.5.M.^.B.e.5.Y.J.C.j.@X%XY.] > > > > ; ; ; 8 e x b C n h f > 7 8 > O ",
"- - - - 7 7 > 7 > > 8 7 8 > > > - ; , 8 , g X.N.(.*Xg.K.!.$X9.(.^.(.T.g.$XK.j.j.-X+XW.| > > > > - ; ; e l b b b n h 7 > 7 f > + ",
"- - > > > s > > > > > 7 > > > > > , > , , f t.J.{.&Xg.J. X*XW +X^.B.B.' ,X(.M.M.<X*X[.| , , , > - - 7 h x b b k h f 7 7 7 7 > O ",
"> > > > > , > > , > > > > , > , > 7 > > > s / g.[.-Xp.J.*X8.# K.=X$Xe.% N.#Xg.g.1X@XP.~ , > > > 7 6 7 h z b k h f f 7 > f g , + ",
"> > > > > > > > s > > > > > > > , > > > > > g [ R.].8.K.|.q $ y ].W.q @ N +XM.5. XP.] d > > > > - - 7 8 h h g 7 7 + > > 7 g 7 + ",
"> > , > > > > > > > > , > > > > > , , > > , > ^ g.e.Q Q.].4 $ $ p q % @ q +XY.R K.j.U : > > > = - 7 7 8 8 f > > > > + > 7 f 7 = ",
"> 7 , > > > > , > > > > > > > , > > > > , > > ^ g.a.' {.$Xy   . . .     F =X!.' s.d.S > > > > > 7 7 7 8 7 7 > + 7 7 7 > 8 g , + ",
"> > > , > > > > > > > > > > > > > , > > > > > x U k } *X+XR . @ % $ X # 5.*X+X! x K k > > > > , 7 8 f f f > > > 7 f > > 7 f > O ",
", > > > > > > > , > > > > > > > > > > > > > > > > j H.>X~.V.6.Q T T ` 5.H.'.=Xa.d > > > > > , 7 8 f f f 7 s s f 7 7 > + , 7 > O ",
"> > > , > , > > > > > > > > > > > > > > > > > , > ~ '.*Xd.[ Q.#X$X*X+XR.X.P.>X(.S + > > > > , , s f f f s > s > > , > + , 7 + O ",
"> : + > , > - , + - - 7 - - * - - 6 6 7 - - > - z P.>X{.^ / !.>X=X>X*XY.` }  X>XC.g > > > > > 7 , > > s > s > > > > > > > f > O ",
"> + : s d > - - > 7 8 7 6 8 8 9 7 6 8 7 7 > = > Y U.'. .Z M t V I R G t V I d.$X{.U > > > > 7 7 > > > , > > , > : > + > , s = O ",
"= = > > , > ; - 7 7 h k k l l l r l k Z [ ) A Y 9.9.9.] P .   . . . . . # T J H.@XC.k = = > > 7 , > > > > > > s > > > > , , = O ",
"- > : s s > - ; 7 9 e l c l c c c c J h.oXc.g.Q g.8.w.C.q . @ @ . . % X . N A T ^.].[ A Z S Z x > > > > > > , > > > , > , , > O ",
"> - > , d > - ; 6 e l c c c y c c c [ S.z.$.F F ! } _ ^ 5 % * #   . @ & @ y J x H.{.h.-.H H 7.y.L f , > > > > > , , > > , f > = ",
"8 > > s d > - , e c c c c y y y y c u.S.Q H a p B ` j U 6 * * *   . @ * * q U 6 K g.-.9.W E K ^ 7.^ f > > > > > , , > > > 7 , - ",
", > > s d > - 8 y c c v c y y y l M f.k.5.( Q H H K , Y * * * # G y @ * * * T > 7 Z R R S f 8 , x  .x > , > > > > > , > , , f , ",
"8 > > d s , - 9 e y c y r t y t r M u.&.) b W -.0.K , Y * * * % [ E # * * ; T > 7 7 z ) 7.n f 7 , f 7 , > > > > > , > > , 8 g , ",
"8 , > 8 , , s g y c c c r y y v l B 7.;.8.e J 1.1.L > ~ 6 * * * ` Y @ * & q U > , , > f L _ g s + s 7 > > 7 > 7 + > - : - , w w ",
"8 , > , , , s h r l c r r k c k l B 4.k.y.j A $.@.K + L q * * * ` T $ * & M D > > > 7 7 7 g f , > > 7 7 > + > > + > = : : ; 9 w ",
"8 , ; , , , d g l c c c c c c c y B 3.%.) l b -.+.E , K r * * * ` T $ * & M C > - 7 7 f 7 8 8 - > f 7 > + > + f f > > : , 6 6 8 ",
"8 ; > , , , f g l c b v c c b v c c [ >.-.c j Q O.^ , n B * * 0 ~ Y 6 * & J z > > - > , - 6 - ; 8 8 7 > > + > > f > : : : ; - - ",
"8 - - > , > s f 9 e c c c b c b c c 6.x.<.l b H 2 Y , b V * * q U U 0 & & I k > - - - * 7 6 9 w 9 9 9 8 7 > > 7 s : : : , , - = ",
", - > > > > s f 8 e k l l l l c l b 7.2.4.8 b H a Z > g Y * & r U ~ 0 * * U , > - 7 7 9 e r y y e k e j g 7 , 7 s s s d , , + $ ",
", ; = > > > s , 6 6 e k h k e h e l <.k.) - 7 n C , , , Y < * q K Y 0 * r U , > 7 7 6 e r v c y k c c b k g s s s s s : d , > O ",
", - > > > , s , - 7 8 6 9 7 6 7 6 g 7.oX6.7 7 7 > > , : J r * q ~ U ; & M Z > > - 9 k c c y t y c v v b z g d s s + : d d s + O ",
", > > > > > , > > > 7 7 7 > 7 - , g 7.OXu.g > > > > > > S c & r K U 0 $ B n > > 7 8 k l y y y y c c M v c k 7 - + 7 > > , , , + ",
"> > > > > > > > > 7 > > > , > 7 , , _ z.u.g > > : > > > Y 0 X B n Z y X r S > > 7 h z l c y t y y c c c c e 6 - 7 7 > > > d 7 + ",
"> > > > > s > > > > 7 7 7 > > 7 7 g <.>._ > > > > > > > Y 6 X J z x B @ q K > > 7 h b b M y r t r l c c l h 6 7 + 7 7 > , 8 7 + ",
"> > > , > > , > 7 > , > > 7 > > f f ) T.h.z > > > > : : Y 5 $ T j z J & q U , , 7 g l b M c y r c c c b l 9 6 - 7 7 > > , 7 7 + ",
"> > > > > > > > , > > 7 > > 7 > > : C 1.2.S > > + : > > U 6 * U g x P $ q U , , 7 8 h k l c c c c b b l h 9 6 7 > > > , , f 7 + ",
"> , > > , , > > 7 7 > > 7 > 7 > > > z *.@.^ > > > > , d Y 4 * Y d j U & q K > , 7 7 8 9 e l l c c c c e 9 8 7 7 > > , > , f 7 + ",
"> > > > > > > > > > > 7 > 7 > , > > z q.%.^ > > s g g g ^ % % Y d j P @ q K > 8 8 7 > 6 9 9 k j k e k 9 7 7 - > 7 > > > , 8 7 + ",
"8 > > > , > > , > 7 > 7 , > > 7 > > z u.2.( > , f j k j ^ q # T g k P . y Z > > 8 7 - > 8 9 8 7 8 8 8 7 - - 7 7 + 7 > > , 7 7 + ",
"6 7 = - > f s s , > > > > > > > , > Z 0.z.~ > > 7 h b k / 5 # U 8 j I o t S , , , > > > 7 , 7 , > , 7 > > > > 7 7 + - : > , ; ; ",
"9 7 % + 7 > s s , , > > > > f s z n _ %.1.~ n b v k z l W 5 . T g z P . t K > , > > > > > > > > > > , > > > > > 7 > : : ; , 9 8 ",
"r 9 6 - > > 7 > > > > > z ) u.s.u.Z.u.;.1.h.U.A.Z._ L L [ y X F C S y X P ~ > > > , > > > > > > > > > > > > > , 7 > > , , w e 9 ",
"l e 7 7 > 7 > > > > h L _ U.Z.0.x.OXx.D.S.k.v.x.x.1.-.c.p.5 # q ^ Y 3 X c L > 7 > s > > > > , > > > > > , > > > 7 > > , j l k w ",
"c r 9 7 6 7 > > 7 s n C.c.2.+.a 2.x.2.v.b.%.&.z.oXv.2.l.C.t . 6 } I 6 o t C > 7 > > > > > > > > > 7 > > > , , 7 , ; ; < l x x r ",
"c y r 9 8 7 > > + x <.1.%.#.2 1 i 1 2 @.:.>.>.&.@.O.i H K J 3 . } I . 3 J g 7 > > > > , > > > > , > > > > > > > > ; ; w l m x e ",
"y c l k 9 7 + > s K _ E *.&.#.+.O.%.1.Z.0.$.&.=.&.@.&.u.z z J N ( T G J j > > > > > > > , > > , > > > > > > > 7 ; - : < l M l q ",
"c c v l h 8 7 + > > s s j S 7.1.=.u.~ A.&.=.1.v.U._ ) _ z f h n j j b f > 7 > 7 , > s > > > s > > > > , > > > > - & * < j x l 0 "
};
