/* XPM */
static char *move11710350260[] = {
/* columns rows colors chars-per-pixel */
"64 64 250 2 ",
"   c #040C02",
".  c #0D0A03",
"X  c #180704",
"o  c #091704",
"O  c #041B04",
"+  c #1B140C",
"@  c #161909",
"#  c #1D1A12",
"$  c #1E1B1B",
"%  c #240A04",
"&  c #360B09",
"*  c #26120A",
"=  c #2B150B",
"-  c #241C0C",
";  c #2B1B0C",
":  c #371808",
">  c #231D13",
",  c #2A1B13",
"<  c #271818",
"1  c #341911",
"2  c #3B1B13",
"3  c #042305",
"4  c #092808",
"5  c #162608",
"6  c #083907",
"7  c #0D3509",
"8  c #063B09",
"9  c #123A09",
"0  c #0A2811",
"q  c #192716",
"w  c #0D3C11",
"e  c #163718",
"r  c #24250C",
"t  c #2D220C",
"y  c #35220D",
"u  c #3B230B",
"i  c #292617",
"p  c #23221B",
"a  c #2C241B",
"s  c #322213",
"d  c #392618",
"f  c #332B1B",
"g  c #3A2A1B",
"h  c #373413",
"j  c #3A3715",
"k  c #291B23",
"l  c #381E27",
"z  c #361E33",
"x  c #391F34",
"c  c #1F2C28",
"v  c #232422",
"b  c #282725",
"n  c #2C2A24",
"m  c #2B2B2C",
"M  c #362926",
"N  c #33242C",
"B  c #332C2B",
"V  c #2A332A",
"C  c #393627",
"Z  c #34342D",
"A  c #362334",
"S  c #3B2436",
"D  c #352936",
"F  c #3C2936",
"G  c #372639",
"H  c #3D263B",
"J  c #3D293B",
"K  c #2B3735",
"L  c #343432",
"P  c #3B3232",
"I  c #353B34",
"U  c #3C3B35",
"Y  c #3A383B",
"T  c #46190A",
"R  c #50180D",
"E  c #411C14",
"W  c #48270C",
"Q  c #55280C",
"!  c #48360E",
"~  c #5A3A0F",
"^  c #442313",
"/  c #4A2A16",
"(  c #442B1C",
")  c #522C13",
"_  c #572916",
"`  c #463719",
"'  c #583619",
"]  c #662B0E",
"[  c #672A15",
"{  c #673519",
"}  c #713B1B",
"|  c #452B23",
" . c #462D28",
".. c #542C23",
"X. c #473626",
"o. c #543424",
"O. c #54342A",
"+. c #563B28",
"@. c #402A37",
"#. c #40263C",
"$. c #442B3B",
"%. c #422B3C",
"&. c #413935",
"*. c #45323D",
"=. c #4A343E",
"-. c #4E3A3D",
";. c #563732",
":. c #513B3D",
">. c #633B23",
",. c #6B372B",
"<. c #633C2B",
"1. c #6F382B",
"2. c #0C430B",
"3. c #0F470D",
"4. c #08490A",
"5. c #0B540D",
"6. c #065A0D",
"7. c #144915",
"8. c #0E5913",
"9. c #145816",
"0. c #09620F",
"q. c #0C6512",
"w. c #0C6A13",
"e. c #186418",
"r. c #0B7816",
"t. c #16751A",
"y. c #29412C",
"u. c #384126",
"i. c #2D4239",
"p. c #37473B",
"a. c #1F6F21",
"s. c #257525",
"d. c #4E4C1D",
"f. c #5B4719",
"g. c #674616",
"h. c #6F5218",
"j. c #78681A",
"k. c #5A4227",
"l. c #494539",
"z. c #594534",
"x. c #544C33",
"c. c #67492B",
"v. c #764729",
"b. c #765925",
"n. c #684837",
"m. c #734B34",
"M. c #784B38",
"N. c #6D5331",
"B. c #765339",
"V. c #766D28",
"C. c #3E2640",
"Z. c #3D2940",
"A. c #3D3641",
"S. c #402640",
"D. c #432C41",
"F. c #443241",
"G. c #4B3442",
"H. c #493A44",
"J. c #4E3A44",
"K. c #4E3549",
"L. c #503745",
"P. c #523C43",
"I. c #533C4A",
"U. c #543C50",
"Y. c #3D4743",
"T. c #434343",
"R. c #4B4948",
"E. c #554647",
"W. c #49514A",
"Q. c #51514C",
"!. c #585955",
"~. c #6E4F4A",
"^. c #744C45",
"/. c #685546",
"(. c #785845",
"). c #5B6358",
"_. c #79624B",
"`. c #68625B",
"'. c #586061",
"]. c #70706D",
"[. c #97321F",
"{. c #A8361F",
"}. c #A3481C",
"|. c #8F6D1D",
" X c #834D34",
".X c #86583B",
"XX c #985232",
"oX c #AF4F2A",
"OX c #976725",
"+X c #8A752C",
"@X c #AB6D2B",
"#X c #A57A26",
"$X c #B77925",
"%X c #895D47",
"&X c #945F47",
"*X c #8A5D53",
"=X c #8A6449",
"-X c #976648",
";X c #93634D",
":X c #896756",
">X c #986A55",
",X c #907254",
"<X c #9A745A",
"1X c #A46B49",
"2X c #AC7443",
"3X c #A66D54",
"4X c #A97659",
"5X c #B4775A",
"6X c #B57B5D",
"7X c #926F6B",
"8X c #957963",
"9X c #A67664",
"0X c #B57B65",
"qX c #AF7972",
"wX c #0C8519",
"eX c #14881C",
"rX c #14931E",
"tX c #1C8A21",
"yX c #199624",
"uX c #229327",
"iX c #1DA327",
"pX c #22A62B",
"aX c #24B12C",
"sX c #AA8826",
"dX c #B68726",
"fX c #B68D32",
"gX c #BBA033",
"hX c #C79C29",
"jX c #CF8739",
"kX c #CB9D33",
"lX c #D4A62E",
"zX c #CAA230",
"xX c #D8A532",
"cX c #BE845A",
"vX c #9C816B",
"bX c #AB8367",
"nX c #B78567",
"mX c #AE8D76",
"MX c #BD977B",
"NX c #CF8854",
"BX c #C4896A",
"VX c #C28C73",
"CX c #C79577",
"ZX c #D09A73",
"AX c #B99A81",
"SX c #A0A7A1",
"DX c #DA9D86",
"FX c #C8A187",
"GX c #D4A585",
"HX c #EEC1A7",
/* pixels */
"-.-.-.-.*.P D A A A S S S G H G G G G G G G G G G G H G S S S G G C.Z.Z.J J G G G G G G G G A G G H G G G G G H J S S D *.H.L.G.",
"l.E.l.H.G.%.J S S S H x S H S H H H H J J G G H #.H H #.H H H H Z.C.Z.Z.G G A G G H H G S S H H J G J J G H H H @.H J D *.R.P.L.",
"P.E.P.G.=.@.@.H G H #.#.#.#.H S.#.H H H H H #.H #.#.#.#.#.#.#.#.Z.Z.Z.J D H H D %.#.#.#.S H H S.#.H G H #.H H H S #.S H *.H.L.=.",
"P.P.L.=.$.@.#.#.#.H x #.#.x #.#.#.#.#.#.#.#.#.#.x @.H #.#.#.x #.G G J J *.*.G.F.$.$.#.#.S H S.S.#.#.#.#.#.#.#.#.H H @.J J $.G.=.",
"G.L.G.$.$.#.#.#.#.x x H x x x #.#.#.#.#.#.#.#.#.#.x #.x #.#.#.H @.J $.*.G.J.L.E.:.G.$.$.#.S #.S.#.#.#.#.#.#.#.H #.S.H G A J *.G.",
"D.G.D.%.#.H H H #.#.#.#.#.#.#.x H H H #.#.H H #.#.#.#.#.#.#.H @.%.*.*.=.H.J.P.P.l.-.=.$.@.H H H H H H H H H H H #.S.G A A H %.$.",
"J D.H C.H H H Z.#.#.C.H H H #.#.G H H G H H C.G #.#.H #.#.H H J $.*.Y J.P.l.T.l.l.l.&.*.@.H G C.H H J C.H H J C.H C.C.G A H %.H ",
"G H G G G G J J G H H S H S x H G J J G J J G G H H H G H H S F C i u.x.l.u.h h j d.` P P H J J J G J G J G J G x H G G J %.S A ",
"D S D S S S H J H H #.@.#.H #.J J J F S J %.H H x H G S D P i h j d.j h d.h.V.j.j.|.j.` i V B G C.G H S H G H J C.H G H H G H x ",
"S J S S S H H @.S S $.D.G.G.G.G.$.@.J S H %.D.H C.H H A M j j ! ! f.h.f.h.sXgXsXsXgXsXf.d.d.P S H H H H H H H #.H H H S H H H z ",
"S J S S S S F S @.@.$.G.I.I.I.K.G.=.$.J H %.J H H x A g h h ! f.~ } |.|.sXsXhXhXhXxXkX#X|.V.C A H H H H H H H H H H H H H H H z ",
"S H H H G S S S $.=.L.P.I.I.I.I.H.G.*.J H J %.H C.C.l o.g.! ! f.h.|.#XdXsXdXhXlXlXxXxXkXgX+Xf A S.H H H G H H C.J D.H S G H H z ",
"G H H H S F @.@.=.G.P.P.P.I.P.P.L.L.G.J H H %.G.C.N < ) ' ~ W W ~ @XdX$XdXsXdXzXzXxXxXkX#Xh.a A J H H H H H H H G C.H H x H H z ",
"H H H G F F $.*.=.:.P.P.P.P.P.P.H.I.G.%.S G D.Q.T.l * 1 g.g.Q ) Q h.@XfX$X$X$X@XdXjX$XOXh.h N H H H H H H H H H H H H S H H H z ",
"C.C.H S S $.=.=.:.:.:.:.:.:.:.:.J.G.H.%.H H H @.E.z.~.| b.b.T Q R } -X1XoXoXNXZXNXoXoXoX' a A C.#.H H H H H H H H H H S H H H z ",
"C.C.H S F $.=.P.:.:.:.:.:.:.:.P.J.K.G.%.S H @.S ;.~.7Xl.f.g.T R ]  X>X&X[.{.BXHXDXoX[.XX<.N G H C.G H H G H H H H D.H H H G H z ",
"C.C.C.x G $.=.P.:.:.:.-.:.:.P.:.P.L.G.D.H H C.z < l I.X.` f.W T R %X*X.X}.}.cXFXqX1.[ ,.=.K G J J S.H H C.%.H H S H #.H #.#.H x ",
"G H x x H $.=.P.:.=.:.:.:.:.:.P.L.G.D.%.J H H k & l E ;.` ' B.) } ;X^.>.@XNXfXB...E & 2 &.T.Y H H H H Z.J D.H H H H #.#.#.D.H S ",
"G x x S H @.=.G.P.P.P.P.P.P.:.:.D.F.D.%.H H H l ^.*X..R T ' .X`  X3XM._ 2XNX4X.X..& , n./.&.D S S H H D.%.#.J H S H H H H #.S.H ",
"H C.C.x S @.$.=.P.E.P.P.I.E.P.=.$.$.%.H H #.S l ^.7X,.T & / N.( %XqX^.' 1XNX4X4X;X1.B.,XvX/.B A S H #.J J J D.F.S.D.H H H D.H x ",
"S #.H #.S @.@.#.G.L.L.I.I.P.G.$.@.F S H H C.H < M ;.2 % % = s ; n.9X*XM.-X&X%X9XnX4X(.:XmX].f z G H @.H H @.F.K.K.K.%.H #.D.H x ",
"H #.#.S S S x @.$.G.G.G.G.G.$.@.H H @.J H H C.z k < X X % = ; t ( n.*X>X>Xm.>.;XAX9Xo.O._.x.a A S @.F F @.*.K.U.K.K.D.#.#.D.H x ",
"S S @.S S S S @.@.$.%.$.$.$.#.S S @.H H H C.C.H A Z > * ^ ,.n.k.d ; ( B.>X;X<.n.qXqXO.* i , k S @.F @.$.F.I.I.I.U.K.D.H H S.#.S ",
"A S S S #.#.#.x H #.H %.%.%.H S S H J J H H C.H A b k.B.;X4X4X,Xn.1 % E M.*XO.O.qXqX_.M p N A H S F S $.G.I.I.I.U.K.D.H H D.H x ",
"S S H H H H H H H H H %.H %.H H H H J H H H J G S g (.9XMXVXVXbX,Xc.1 * E / < ( *X9X*X&.n H J #.@.S $.D.I.I.I.K.D.D.S.#.#.%.#.x ",
"S H H H J H H H H H H H H H H H H J H H H H H J F | ;XVXDXGXZXnX1X-XB.k.' ( % * | n.X.B I D H H S S @.D.K.I.K.G.D.S.#.H #.D.H S ",
"S H H H H H H H H C.H H H J H H H H H H H H H S @.;.;XVXZXGXCXnX=X.X<X4XvX=XX.% X a V i.A.H H H H @.H $.D.G.D.#.#.x #.H #.D.#.H ",
"S H H H H C.H H H H H H H H H C.J H H H H H H D  .1.%X0XnXMXCX4X.X X-XbXMXMX=Xg q i.Y.A.J H G H #.x H #.$.S.#.H #.H S x #.S.#.S ",
"G J H H H J H H H H H H J H H H H H J H H H N  .M.>X5X5X6X6X6X&X Xv.m.%XvXmX_.` q Y.A.Z.G D A A H #.H %.#.#.H S H #.#.H H #.#.S ",
"S H H H H H H J H H H H H H H H H #.H H H H l o.%X5X0X5X6X5X.Xv._ o.o.| k.x.` - @ c K c c v k b N G H D.#.#.H H #.#.#.H #.D.H x ",
"G H H H H H H H J H H H H H H H H H H H H A | n.-X6X6X3X>X X..W W ^ | P &.C > . $ !.'.K q b c W.'.T.Z.S.S.C.C.H #.#.H x H S.H x ",
"S H H H H H H H H H H H H H H H H H H H S k O.%X4X3X5X5X;XM.2 * / y a T.R.T.Z # D ].].A.L T.K 7XSX'.F.#.S.H S.S.H H H S H #.H z ",
"G x z C.J H S #.S S H H S S S S S S S H x < o.-X1XXX6XVXCX8Xc.2 ( 1 + v m K R.&.n Z I K T.Q.m !.].Y.Z.Z.H C.H H H H S x H D.H z ",
"S G z H D.H H S S H #.%.@.$.$.$.@.$.*.$.S , o.M. XXX4XCXGXCX>Xc.E + q l.W.Q.`.`./.Q.W.W.'.!.$ $ m D G C.H H H H G H H H H D.G z ",
"S S S C.C.H S F H #.$.G.=.=.G.L.:.=.L.G.S , o.v.B.b..XnXVXCXnX>X>.= * Z U P &.E.].].T.K Q.Q.k k A G G H J H H H H H H G H D.H z ",
"S S S G C.H H S S @.G.L.L.P.P.P.P.P.P.H.*.< s +.n.N.B.=X3XBXBX6X;XB.z.E.E.l. .X.-.&.# + k m $ z H H C.H H H C.H H #.J H H H H z ",
"D S H H C.H G S $.*.L.P.P.P.:.P.P.L.P.P.L q @ a ( k.c.b.-X3X4X6X3X4XmXmXvX:X/. .d * 1 n # + < S H H C.H H H H H H %.H H H D.G S ",
"F J G C.D.J H H =.=.P.P.E.:.:.:.P.:.L.=.i 5 O   @ t ` f.k.v..X3X-X3XnXVX<XB...O.E.2 /.,Xz.r N J H H H H H H H #.H J Z.H H H H H ",
"@.J H S.S.H S @.=.P.P.P.:.:.:.:.=.:.P.&.q 7 3 O 5 5 4 5 5 g c.M.v.1XBXZX5XM.^ ;._.O.,XAX_.f F J H H H J H H J H G H H H H J D.S.",
"J J H C.S.H H @.=.P.:.:.;.-.-.:.:.=.P.&.e 9 2.6 6 2.8 4.3.3.r u >.-X0XBX5X.X^ | z.( :XmX(.f S #.H H H H H H H H H H H S H J D.D.",
"J @.H @.C.H C.D.=.P.:.:.:.:.P.P.:.P.P.T.y.w 5.e.q.q.r.eXeXt.2.5 h N.;X>X=X+.* * < = n.:Xz.d S C.H H H #.#.S.H H H H S G G J $.=.",
"J @.F H %.H C.D.=.P.P.P.:.G.:.:.:.P.L.E.W.w 5.tXuXeXrXpXaXuXt.3.@ s X.+.` t .   . X ( ;.X.M H C.H H #.H H x H H #.x x G A J $.=.",
"J J F J J H C.D.L.:.P.P.P.P.L.P.P.P.P.P.W.e 4.t.yXwXr.yXaXpXuX5.O o @ 5 0 4 3   . + , < n F #.@.H #.#.H x H H #.#.H S G A J @.$.",
"F $.H J C.G C.D.L.P.I.P.P.P.P.I.P.P.P.R.Y.5 6 q.tXyXwXwXr.r.t.3.3 O 4 6 8 4.w 3 q l.Q.f f S @.S @.#.#.#.H x x #.#.H H G H J @.#.",
"F J S H H H C.D.*.=.L.P.J.J.J.P.J.H.I V e 0 3 4.w.rXyXyXr.6.5.4.3 3 7.9.8.9.8.4 q ).].I i F $.=.$.$.$.$.#.#.H H C.x G G D J J S ",
"F H S H H H G Z.$.*.$.*.U P P P Z V q o 8 4.q.0.0.r.yXiXr.6.4.3 O 3 7.8.e.w.e.8 4 y.p.e b &.:.:.P.=.G.G.$.#.H #.C.C.C.Z.J J S x ",
"F H S H H H C.S.@.$.%.> p # > C C h + o 9.uXpXrXr.r.wXpXeX0.6 O   O 7 8 6.a.a.4.3 q p b *.P.:.:.:.P.P.I.G.D.S.x C.C.C.G Z.J S z ",
"F S H G H S C.H S F D p f f g /._.B.d 4 8.yXiXiXrXwXwXuXeXq.6 O     O 6 6.s.s.7.e p.&.H.:.:.:.-.:.P.E.I.K.K.D.C.C.C.G Z.Z.C.S x ",
"S H H H H H H H H #.A p x.` ^ m.=X=X+.5 2.t.eXrXrXrXwXeXt.q.6 O o o 4 3.e.e.8.7.p.H.G.L.:.:.;.:.P.P.P.P.P.G.$.@.S #.H G Z.%.H x ",
"G #.J H H J C.H H H A > C ^ : ' v. Xk.r 4 5.w.r.wXeXr.w.8.7.7 o o 4 9 9.e.9.7 e Y D.G.L.P.:.l.:.:.P.P.P.P.G.$.S x #.H H H D.S.x ",
"S H H H H H H H #.#.A > y : T Q } v.{ u @ 2.6.0.w.0.0.5.3.7 5 - - 5 5 9 7.e e i.Z.D.I.I.P.P.:.-.P.P.P.P.L.G.$.@.@.#.#.S J #.#.x ",
"G H H H H H H H H H D a ; & T Q ] } { u o 9 4.4.6.5.3.9 4 5 t ` z.( ; 5 q e i.A.J %.L.P.I.P.:.-.P.P.P.P.G.=.$.S x #.#.H J #.#.#.",
"S H H J H H H H #.H F M y u Q ] ] ] Q : . 0 w 8 6 6 5 5 * : ) 1.B.n.( > @ I A.%.#.%.D.G.L.L.P.P.P.P.I.L.G.$.$.@.@.H %.G C.H #.H ",
"G H H H H H C.H H H H S s : Q ] _ Q T % o 0 0 0 3 o @ y W W ] { _ ^ 1 = - &.Y J %.H %.$.=.G.L.P.P.P.I.L.G.$.#.H x #.H H J D.#.x ",
"S H H H H H H J H #.H F d : Q { T : + # K i.K i.i @ ; W Q { } } { { m.n.o.h a L %.@.#.@.$.G.G.G.L.=.G.$.%.H #.#.#.#.H H H D.#.x ",
"S J H H H H H H H H H F d u ~ v.>.( 1 a I H.A.A.I + = & : W { } v..X=X.Xc.` s f P @.S H %.$.@.@.$.$.$.@.H S S #.x #.H H H S.%.x ",
"@.@.S x H S.C.C.H H H D g y ' v.B.M.c.g p Y %.J Z + % * & : Q [ 1.v.v.v.c.c.' y a S H H J J %.H #.H H %.H H H H #.x S G G J @.#.",
"=.@.S S H #.S.C.H J H J M t W / ' { +.^ r L F.J Z # ; y y y : W ) Q ) / ! ' ` : ; S H H H H H H H H H H H H H H #.#.S G G J $.$.",
"=.$.@.x S H S.H H H #.J m - - ; * ; t # 5 L %.D Z q @ r 5 f C s ; = ; r ; ; ; * , S H H H H H H H H H H H H H H #.H H G J $.G.=.",
"=.-.$.@.@.H #.H H H H H S l M M N n f n m J D.H D Z I Z Z U *.&.&.&.-.Y &.P &.P D H H H H H H H J H H J H H J #.#.H H J F.G.G.L.",
"-.:.=.$.@.#.H H J H H H H H H J H J H J H J Z.H S F @.$.%.J %.F.F.F.F.F.F.F.%.J J H H H H H H H H H H H H H H H #.@.D *.H.H.I.L.",
"-.P.=.=.$.$.H H H H H H H H H H H D.J G H D.%.H H #.H H H #.J %.#.H H H J H H J H H H H H J H H H H H H H H H H #.S S J H.J.P.J.",
"-.P.P.-.D.$.H S H H H H J H H H %.J H H H D.H H #.H H J H #.D.#.H #.#.H H #.%.H H C.H H H H H C.H H H H H H H #.S S S P H.H.L.-.",
"-.P.P.P.G.$.H S H H H H H H H H H J J H H Z.D.H H #.H H D.S.#.#.H H H H #.H H H H J H H #.H H H H H J H H H H S @.S F F =.J.P.=."
};
