/* XPM */
static char *move21710350299[] = {
/* columns rows colors chars-per-pixel */
"64 64 246 2 ",
"   c #090701",
".  c #170A04",
"X  c #091704",
"o  c #011B02",
"O  c #161709",
"+  c #1C130C",
"@  c #1D1C16",
"#  c #270C06",
"$  c #330E05",
"%  c #271407",
"&  c #26140B",
"*  c #2B140D",
"=  c #2B1D0C",
"-  c #381708",
";  c #3D150A",
":  c #331F0D",
">  c #261C16",
",  c #331C13",
"<  c #3A1D16",
"1  c #052305",
"2  c #0D2B06",
"3  c #0A280A",
"4  c #152909",
"5  c #043406",
"6  c #0A350A",
"7  c #063C09",
"8  c #0A3C0A",
"9  c #11380C",
"0  c #0B2B11",
"q  c #182618",
"w  c #0C3E12",
"e  c #143116",
"r  c #23210B",
"t  c #38220C",
"y  c #2E330B",
"u  c #292618",
"i  c #2C221C",
"p  c #352214",
"a  c #3B2414",
"s  c #382C17",
"d  c #35251C",
"f  c #3A241B",
"g  c #2B3317",
"h  c #393517",
"j  c #2C1E26",
"k  c #321D28",
"l  c #361E33",
"z  c #391F34",
"x  c #1D2623",
"c  c #1E3620",
"v  c #242B25",
"b  c #2A2925",
"n  c #3C2A23",
"m  c #34232D",
"M  c #332C2D",
"N  c #392929",
"B  c #283328",
"V  c #2C342C",
"C  c #2B3B2D",
"Z  c #363528",
"A  c #3B332C",
"S  c #3C3A2D",
"D  c #2E2430",
"F  c #362435",
"G  c #3B2436",
"H  c #352934",
"J  c #3C2A36",
"K  c #372639",
"L  c #3D263B",
"P  c #3D293B",
"I  c #2E3832",
"U  c #343334",
"Y  c #3B3433",
"T  c #343C33",
"R  c #3A3B34",
"E  c #3C333B",
"W  c #333939",
"Q  c #3A3C3C",
"!  c #431909",
"~  c #4D1B11",
"^  c #42220C",
"/  c #4C260E",
"(  c #59270C",
")  c #48330C",
"_  c #51300C",
"`  c #482717",
"'  c #442B1C",
"]  c #582716",
"[  c #532A14",
"{  c #542B1A",
"}  c #473717",
"|  c #4A321A",
" . c #58361A",
".. c #67381A",
"X. c #452A25",
"o. c #453327",
"O. c #4A3627",
"+. c #43352C",
"@. c #573827",
"#. c #412B36",
"$. c #40263C",
"%. c #442B3B",
"&. c #422B3C",
"*. c #463734",
"=. c #45313D",
"-. c #4A343E",
";. c #4E3A3D",
":. c #533D33",
">. c #513B3D",
",. c #583F39",
"<. c #653B25",
"1. c #663E33",
"2. c #08470B",
"3. c #13470E",
"4. c #09550E",
"5. c #11510E",
"6. c #0D4211",
"7. c #144814",
"8. c #0E5712",
"9. c #135413",
"0. c #175A16",
"q. c #225F19",
"w. c #0B6713",
"e. c #0C6413",
"r. c #146716",
"t. c #0A7615",
"y. c #14771A",
"u. c #2E4534",
"i. c #39423A",
"p. c #1C7721",
"a. c #2A7324",
"s. c #4C4A13",
"d. c #594616",
"f. c #64400E",
"g. c #684B19",
"h. c #775015",
"j. c #7D641E",
"k. c #554327",
"l. c #484536",
"z. c #4C433D",
"x. c #574438",
"c. c #694629",
"v. c #78462A",
"b. c #744B2C",
"n. c #74562E",
"m. c #664737",
"M. c #724A32",
"N. c #774839",
"B. c #765339",
"V. c #7B6334",
"C. c #3E2640",
"Z. c #3D2940",
"A. c #402640",
"S. c #432C41",
"D. c #453340",
"F. c #4B3442",
"G. c #433A41",
"H. c #4E3A43",
"J. c #4E3549",
"K. c #4F3D48",
"L. c #503745",
"P. c #523C43",
"I. c #533C4A",
"U. c #543C50",
"Y. c #3C4640",
"T. c #4B4846",
"R. c #544746",
"E. c #50524A",
"W. c #595A55",
"Q. c #764D43",
"!. c #6D5747",
"~. c #795847",
"^. c #6B5553",
"/. c #5E695D",
"(. c #66655B",
"). c #736657",
"_. c #636D63",
"`. c #7C6D64",
"'. c #71776C",
"]. c #9C3C1D",
"[. c #A5371E",
"{. c #865C19",
"}. c #87681D",
"|. c #95671D",
" X c #884A33",
".X c #924C32",
"XX c #835335",
"oX c #875A3C",
"OX c #92593C",
"+X c #AD5229",
"@X c #996928",
"#X c #896A37",
"$X c #916E32",
"%X c #AC7A27",
"&X c #BA7829",
"*X c #B46E30",
"=X c #C36B2C",
"-X c #865B46",
";X c #8D5842",
":X c #8E6545",
">X c #966649",
",X c #8B6A56",
"<X c #976C56",
"1X c #8A7159",
"2X c #9A7557",
"3X c #A2674B",
"4X c #AF754E",
"5X c #A77558",
"6X c #B2795D",
"7X c #8F7267",
"8X c #AA7963",
"9X c #B67D63",
"0X c #C37B52",
"qX c #15881B",
"wX c #13901E",
"eX c #1A8822",
"rX c #1B9A24",
"tX c #238D24",
"yX c #19AC27",
"uX c #22A829",
"iX c #25AD2F",
"pX c #A98528",
"aX c #B88727",
"sX c #B48D35",
"dX c #CD962E",
"fX c #C89A2C",
"gX c #D2A735",
"hX c #A68267",
"jX c #AA8769",
"kX c #B38365",
"lX c #B88569",
"zX c #BA906D",
"xX c #AC8977",
"cX c #B88D74",
"vX c #BB9478",
"bX c #D19048",
"nX c #D1A242",
"mX c #C5896C",
"MX c #C28D73",
"NX c #C89877",
"BX c #D69976",
"VX c #CCA27C",
"CX c #8B948C",
"ZX c #BE9C81",
"AX c #D09F87",
"SX c #E7B694",
/* pixels */
";.;.z.;.;.J H H F F G G K K G L P K K K K K L K K G K L G G G K K C.Z.P Z.K K K K K P K K F K F K K K K K K K K L G K H =.K.K.-.",
"z.R.H.;.=.=.J K F G z z L L P L L L P L P K L L L L L P L $.P L C.C.Z.Z.E K F K K L P K K K P L P P K P L L L P $.L J P =.K.I.-.",
"P.I.H.;.%.%.#.L L z $.$.z $.L L $.L L L L L L L $.A.L L $.$.$.$.C.C.Z.K K J G J %.$.L L z L $.S.$.L L L $.L L L G G L K =.H.H.-.",
"P.P.H.-.%.%.$.$.L $.$.$.$.$.$.L $.$.$.$.L L $.$.$.z $.L G $.$.z K P K Z.S.=.D.D.%.&.%.$.z L $.A.$.L $.$.$.$.$.L G $.%.J J %.F.-.",
"H.L.F.%.&.$.$.$.$.z $.z $.z $.z z A.$.$.$.$.L L $.$.L $.$.z L $.P %.&.%.H.H.P.P.L.-.-.&.$.G $.A.$.$.L $.$.$.L C.L A.L K K P =.F.",
"%.D.S.$.$.$.$.$.$.$.$.L $.z z $.L L L $.L L L L $.$.$.$.$.$.$.$.%.=.F.;.z.l.l.l.l.z.-.%.$.P L Z.$.L L L L L L L $.L P K F K %.&.",
"P S.P C.L L P Z.$.$.L L C.L $.$.L P P L L L L L L L L L $.L J +.O.l.z.:.} s.} h h h T =.*.T E K L L P C.L L L L L C.L K K P &.$.",
"K Z.K K K K K P K L L L G G L z K P K K P P P P z L L L L +.s h u.) ) ) g.j.}.j.g.) s } h g C E P P K K P P K P C.z L K K P G z ",
"J K G G G P L P L L $.&.&.$.$.$.J P J G P &.L P L L G J A s.d. .) ) h.h.{.aXaXaX|.h.h.d.s.s.g T Z.L K C.L L P L L L L G P L L l ",
"G J G G G G G $.G G $.&.D.F.F.F.&.%.P J L &.&.K L L L Z h d.g._ _ f.{.|.pXpXfXfXaX%XpXpXpX$Xh u.E P L z L L L L L C.L G L L K l ",
"G J G G G G G J $.#.%.H.P.I.I.I.-.%.%.J L P &.L L L H u y f.( ( _ f.|.pXaXpXfXgXdXdXfXgXnXsXg.h W E L L L K L L L P L L L P z z ",
"K P L K J G G J %.-.L.P.I.I.I.J.J.H.D.P K %.C.L H J Z h ) _ ( ( ( ..|.%X&X&XaXaXfXaXfXgXdXsXV.y C P G L L L P C.L L L L G C.K z ",
"G K L G L G J #.-.L.P.P.I.R.P.L.H.J.F.P G L $.m > r u S ) _ ..~ ( {.@X@X*X+X*X4X&X+X=X*X@X#Xg.h T P J L L L L L L C.L L L P L l ",
"P C.L G J J %.=.-.>.P.L.P.P.P.P.J.K.F.&.L L #.#.d N x.h ) b.c.( ( ..:X3X[.[.0XSXBX+X[..Xv.t u S E L L L L P L L L L L z l C.L l ",
"C.C.C.z G %.-.-.>.;.>.>.>.>.>.>.H.H.F.&.G G #.R.).R.!.n d.n.[ ~ (  X<X;X[.[.0XSXAX.X]. Xk.u T E $.L K L L L L P P P L K G L K l ",
"C.C.L K J %.-.>.P.>.>.>.>.>.>.>.F.K.F.%.$.K $.I.^.X.' @.g.g.g.~ ] ;X-X1.+X=X0X8X.X] ! ~ *.R E P L L L L L L L L L L L L L L L l ",
"C.C.C.z L %.-.L.P.>.>.;.>.>.,.P.L.J.D.S.&.L P F G * ! <.]  .#X| c.2X~. .%XbXbX X~ # # X.z.l.P L &.L L L L C.L L G L $.L $.$.L G ",
"K C.l G G &.-.P.>.>.>.>.>.>.>.P.J.F.S.&.P L K l > , 1.1./ [ V.} B.cX1X .pXbXbX3XM.' ` Q.`.E.i.E P L L Z.S.&.L P z L $.$.$.S.L G ",
"l z C.z G %.-.H.P.>.>.P.P.P.>.>.-.S.&.&.L L L P k N 7X1XX.t O.p m.xX1Xk.$XsX4XlX8X<X,X7XxX`.T Q J L L S.&.Z.L P L L L L L S.L L ",
"L C.l L G #.%.=.P.P.I.I.I.R.P.-.%.%.P P L P C.P F b T Z +   . % @.,X1XB.:Xn.XX8XNXMXQ.^.7X`.b W P L $.P P P S.S.S.A.$.L $.A.L z ",
"L $.$.G G $.#.%.H.J.L.P.I.P.-.=.%.L P L L L C.C.L H T O       . * { @.B.<XoX1.XXlXcXx., +.S q H J P %.L G %.D.K.J.F.S.$.L $.$.G ",
"G $.$.G G G G G &.-.-.F.F.F.%.#.G #.G L L C.C.P P P U O & , < a t $ - { -X<X1.@.8XvX~.i + v B J G P J J P =.J.I.U.J.S.$.$.S.L z ",
"G G #.G G G G G %.%.&.&.&.&.L G G J L L L L L C.P Y n a @.B.~.B.B.{ ; ! @.Q.X.' ,XZXhXl.b Q P P J J #.%.=.H.I.I.U.J.S.L L S.C.z ",
"m G G G $.$.G $.$.$.$.$.%.&.L L G L K P C.P C.L J N k.~.2X8XlXzXjX:XM.<.| < & , x.1X1Xz.U P P L G J G %.J.I.I.I.J.J.&.L L A.L G ",
"G L L L L L L L L L L $.P $.L L P L P L P L L P +.' ~.6XmXBXAXBXVXjX2X2X1X!.p . > g Z i.i.=.P L G #.$.D.J.I.I.J.J.S.A.$.$.S.$.z ",
"G L L L L L L L Z.L L L L L L L L L L L L L L #.o.1.>X9X9XmXmXNXVXkX2XjXvXcX~.f + B T R =.P L P $.G $.S.J.I.J.D.%.A.A.L $.S.L G ",
"G L L L L L L L L L L L L L P L L P L L L K m X.@.M.>X9X9XMX9X8XkX5XoX<XcXAX8XR.v W Y.Z.P P P K G G $.&.D.F.S.%.L L z L $.S.$.L ",
"K L L P L P L L L L L P L L L L L L L L P m X.@.v.;X>X9XAXcX<XQ.;X;Xb.c.~.<X,X,.@ I Y.Z.Q i.Y.W U G z %.%.A.$.G z L L z $.A.$.G ",
"G L L L L L L L L L L C.L L L L L L L L G , | b.;X5XzXzXjX,Xx.< @.c.@.a f X.' > O B W x @ x x C I x x K $.$.L L L $.L L L S.$.G ",
"K L L L L L L L L L L L L L L L L L L L F ,  .oX5X6XkX5XB.` & & | ` s z.R.R.R.A C '.xXY.b W x _.CX_.x K A.A.L L $.$.$.L $.&.L z ",
"K L L L L L L L L L P L L L L L L L L K k X.1.;X5X>X4X6X2Xk.r s @.s + U E R T T l.W.W.W Y R.V _.CX_.B K A.$.C.L A.$.$.L L $.L l ",
"G L L L L P L L L L L L L L L L L L L k , @.N.oXOXOX6XNXVXjXB.' ` * + U Q Q W E./.T.Q Z.E.W.q C E.I q K A.L A.A.L L z G L $.L l ",
"K z L z P L L L G L L G G m G J G G G j & @.M.b. X.X6XNXNXAXxX@.^ < f z.R.T.W.'.'.'.W.E.W.W.q q x x D K Z.L L C.L L G G L &.G l ",
"G K z L A.L G J G L $.&.%.%.%.%.#.%.%.m u l.c.M.v..X3X6XlXMXcX-X-X-X:.s N N T._.(.W.Z @ J T.v V U K L L L L L L K L L L L S.P l ",
"K G K C.C.L L G G $.%.F.F.H.-.L.;.H.H.=.u.g } c.c.v.XXOX3X6XlX8X5X<X-X~.~.:.N > u u O . + > @ K P L L L L L L L L L L K L C.L l ",
"G G G L Z.L K G G %.-.L.L.L.P.I.P.P.I.T.Y.q & p } c.c.b.XX;X;X>X5X6XkXxX,XO.& , +.& , :.+.> H L L L L L L L L L L $.L L P P L l ",
"H G L L S.L L G %.=.L.L.P.>.P.>.P.P.I.T.V O     O y h h s.M.b.XX3XlXAXvX,Xa . O.~.X.m.2X).+.P C.&.L L L L L L L L S.L L L C.L G ",
"J L L P Z.L G L -.-.P.P.I.>.>.>.>.L.P.i.q X o X 4 2 2 2 y h } d.-X2XcXZX1Xa . o.^.X.Q.xX,X*.P &.L L P L L L P L L L P L L L L P ",
"P P L C.C.L L #.-.P.P.>.>.>.>.>.;.;.H.u.0 2 9 5 5 3.9.5.3.6 2 r O.~.,X,XQ.^ $ < X.< Q.8X~.+.%.L L L L L L L L L K L L L L P Z.S.",
"J L P C.S.L L #.-.>.P.>.>.>.:.>.;.H.K.u.0 6 0.5.4.8.e.y.tXp.9.9 4 p d f m X.O.X.& + @.N.1.X.L S.C.L L L L L C.L L L L L K L S.S.",
"%.P L P P Z.L S.;.L.>.>.>.>.L.>.P.L.H.u.0 8 0.r.8.w.w.qXyXiXtXr.2.X 4 Z T U *.X.. . & a X.$.$.$.L L L $.L $.L L L G G F K P %.-.",
"J P L %.L L C.S.-.>.P.L.>.L.>.>.P.>.T.i.e w 9.r.p.y.t.wXyXiXyXqXe.8 e C Y.i.Z u O b o.d X.$.$.A.L L $.L L z L $.z L K K K J %.%.",
"P P J P P L Z.S.L.L.P.P.L.L.>.P.P.P.P.*.c 6 2.5.e.y.eXrXyXyXrXqXr.e.8 e u.Z.T @ r E.).;.N $.$.G L $.$.$.z L L $.$.L L G J J %.%.",
"J %.G L C.L C.S.-.P.I.I.R.P.P.I.P.P.P.T.T 3 5 7 2.8.r.t.t.t.t.t.t.y.8.7 u.Q G.V u E.(.U m G $.#.%.$.$.$.L z z L A.$.G K K P L %.",
"P G K L L L C.Z.=.-.L.P.P.P.I.P.P.H.G.;.b @   o o 1 6.9.7 5 2.4.t.rXp.9.w W Z.I @ v M m m #.%.=.%.-.%.%.$.L L L C.L K K J P L G ",
"J L L L L L P S.%.%.-.H.L.J.H.H.;.U n o.,.X.+     X 1 1 o o 5 8.qXuXuXp.6.C Z.K F k m J %.;.>.>.-.-.H.F.S.%.$.$.C.C.C.C.Z.K G z ",
"J G G G L L L C.#.%.=.F.F.F.D.H.Y u t _ Q.N.X.O 1 3.7.5 o 6 9.r.wXuXiXqXw C E P K G %.-.>.>.P.>.>.P.P.J.F.S.A.C.C.z C.K Z.L G l ",
"J P K G L L L C.G G %.%.%.%.%.*.g p ^ ..v.v.{ = 6 q.a.5.5 7 8.t.t.wXtXw.6 B K P L %.-.J.L.>.,.;.>.P.R.I.J.F.A.C.C.C.K Z.Z.L L z ",
"G L L L L L L L L L &.L $.&.T.d p % - ( ..../ = X 9 0.r.2.5 7 8.e.e.8.2.3 V P L $.%.F.F.;.>.:.>.P.P.P.P.P.J.%.G G $.L K P S.L z ",
"K L L L L L L P L $.L L L &.z.s a $ - _ ..( ! # X 4 7.0.9.7 6.9.5.2.7 1 1 I P $.$.A.F.I.P.>.;.:.>.P.P.P.P.;.%.G G $.L L L &.$.z ",
"G L L L L L L L L L $.$.P P =.*.< - - - / ! ! ; = 4 e 7.7.6.3.3.6 1 1 0 B K P L $.S.J.I.I.P.>.;.>.P.P.P.L.-.%.G G $.G L P A.$.z ",
"G L L L C.L L L $.L L L L P &.=.: t - % ^ $ ! ! % . X 4 3 1 2 4 o 0 e B E K L P $.S.F.P.R.P.>.>.P.P.P.P.L.-.%.$.$.$.$.G L $.$.$.",
"K L L L L P L P L $.$.L $.$.L %.X.t % # ! ! ! ; # # % O 4 . X 4 q C U K L L L L $.&.S.H.J.L.P.>.P.P.P.J.H.%.#.$.G $.$.K P A.$.z ",
"G L L L L L L L L L P L L L L P #.s % # / ] ] ! $ ^ | | | } u A l.E P P L L L L $.$.$.&.F.F.P.L.P.I.I.L.D.&.$.$.$.$.P L P S.$.L ",
"K L L L L L L L $.L L $.L $.L L &.J d t ^ { { ! $ [ g.XX>X-X@.d i M K L K L L L #.$.$.$.&.-.-.F.F.-.-.%.&.$.G $.G $.P L P A.$.z ",
"G P L L L L L L L $.L $.L L L $.L P *.h - { { ; $ ` <.v.OXb.[ ' f d N K L L L L %.$.$.J &.&.%.%.%.%.%.%.$.$.G $.G $.L L L A.%.z ",
"#.#.G G L A.A.C.L L L L L L L P C.&.&.+.t ` { ; # $ !  .v.....B.m.| f X.&.$.L L L L L P $.&.L P L &.L P L L L $.$.z G K K L P $.",
"%.#.#.m L $.A.C.L L L L L L L L L P P %.a t ^ # . # $ ! { ..c.B.B.<.t < G L L $.L L L L L L C.L L L L L L L P L A.z K G J P %.%.",
"-.%.#.G G L A.L L L L L L L L L S.P L L +.a % . . = , p ^ | |  ...| - % m $.L $.P L L L L L L L L L L L L L L L $.L L K P =.-.-.",
"-.;.%.$.$.L L L L P L C.L C.L L L P L P &.#.i . O > r Z n , & = p t & = m L $.L L L L L L L L L L L L L L L L L $.$.L P =.F.J.L.",
">.P.-.%.%.L L L L L L L L L P L C.&.L L P &.J A n S i.*.=.T *.Y +.S A M $.L $.L L L L L L L L L L L L L L L L L $.J J %.D.K.K.H.",
";.L.-.-.%.$.G L L L L L L L L L L P P L L &.&.P P E %.P P S.D.D.=.E %.%.$.$.$.P L L L C.L P L L L L L L L L L L L G G E G.I.L.L.",
";.x.>.L.-.%.L G L L L P L C.L L L S.L L L S.L L L L L $.&.$.$.S.P L L $.L $.L L L P L L L C.L L L L L P L L L L $.G G J F.H.P.;.",
"-.P.P.P.F.&.L L L L L L L L L L L &.L L K S.S.L $.$.L L L S.A.L L L L $.L L L $.L L L L L L L L L L C.L $.L L G $.N K Y -.H.>.-."
};
