/* XPM */
static char *move41710350396[] = {
/* columns rows colors chars-per-pixel */
"64 64 249 2 ",
"   c #090D03",
".  c #180906",
"X  c #051B04",
"o  c #0A1806",
"O  c #1C1404",
"+  c #171509",
"@  c #1B1B0B",
"#  c #131211",
"$  c #1D1B12",
"%  c #250D07",
"&  c #350F04",
"*  c #251609",
"=  c #2A140B",
"-  c #2C1A0C",
";  c #381807",
":  c #331D0C",
">  c #261A15",
",  c #331E12",
"<  c #3A1E14",
"1  c #052404",
"2  c #052C05",
"3  c #0B2809",
"4  c #172408",
"5  c #132D0B",
"6  c #073708",
"7  c #0B340C",
"8  c #13390B",
"9  c #1C271A",
"0  c #0F3415",
"q  c #15351A",
"w  c #28240E",
"e  c #33220E",
"r  c #3E260C",
"t  c #2E320E",
"y  c #272519",
"u  c #332513",
"i  c #3C2314",
"p  c #3B2915",
"a  c #35251A",
"s  c #342B1E",
"d  c #3A2A1B",
"f  c #29331B",
"g  c #373517",
"h  c #261924",
"j  c #371F25",
"k  c #361E33",
"l  c #391F34",
"z  c #1C2822",
"x  c #1C3120",
"c  c #2A2826",
"v  c #342B23",
"b  c #3B2C24",
"n  c #372528",
"m  c #3D2B2C",
"M  c #2B3629",
"N  c #343325",
"B  c #33332C",
"V  c #3E342B",
"C  c #3B382A",
"Z  c #362335",
"A  c #3B2436",
"S  c #352A33",
"D  c #3C2A36",
"F  c #372639",
"G  c #3D263B",
"H  c #372B38",
"J  c #3D293B",
"K  c #2E3634",
"L  c #343334",
"P  c #3B3432",
"I  c #343A34",
"U  c #3C343B",
"Y  c #383A39",
"T  c #3B3C3C",
"R  c #491809",
"E  c #551B07",
"W  c #4A1A11",
"Q  c #47260B",
"!  c #4B2C0C",
"~  c #54290C",
"^  c #4C350D",
"/  c #432715",
"(  c #4A2C15",
")  c #432B1D",
"_  c #4A2B1D",
"`  c #443212",
"'  c #473719",
"]  c #583213",
"[  c #593819",
"{  c #642B0E",
"}  c #692C18",
"|  c #683718",
" . c #452923",
".. c #432D23",
"X. c #512F25",
"o. c #483925",
"O. c #43332B",
"+. c #4A342B",
"@. c #553926",
"#. c #402737",
"$. c #422B35",
"%. c #40263B",
"&. c #422B3C",
"*. c #433434",
"=. c #473931",
"-. c #45323D",
";. c #4A343E",
":. c #423A3B",
">. c #4E3A3C",
",. c #513B3D",
"<. c #653B29",
"1. c #613E31",
"2. c #08470B",
"3. c #0D550D",
"4. c #095B0E",
"5. c #154A12",
"6. c #104F10",
"7. c #0D5714",
"8. c #135612",
"9. c #3F4316",
"0. c #0A6412",
"q. c #126515",
"w. c #106B13",
"e. c #0B7215",
"r. c #177719",
"t. c #1D5F20",
"y. c #37403B",
"u. c #3A4239",
"i. c #544714",
"p. c #5A4419",
"a. c #694617",
"s. c #744B17",
"d. c #755B16",
"f. c #494229",
"g. c #5B4722",
"h. c #5C442E",
"j. c #44423C",
"k. c #4B453A",
"l. c #5E4234",
"z. c #5B4739",
"x. c #6A4726",
"c. c #64422C",
"v. c #7A4927",
"b. c #734C2B",
"n. c #7A4D2C",
"m. c #6D5324",
"M. c #674737",
"N. c #775137",
"B. c #7A5335",
"V. c #786322",
"C. c #3E2640",
"Z. c #3D2940",
"A. c #3F3241",
"S. c #402640",
"D. c #432C41",
"F. c #453341",
"G. c #4B3442",
"H. c #473B44",
"J. c #4E3A44",
"K. c #4E3549",
"L. c #503745",
"P. c #523C43",
"I. c #533C4A",
"U. c #543C50",
"Y. c #4D4443",
"T. c #464845",
"R. c #544144",
"E. c #524B46",
"W. c #524E4E",
"Q. c #505147",
"!. c #594D54",
"~. c #595A54",
"^. c #6B5145",
"/. c #7C5444",
"(. c #7A5844",
"). c #78624F",
"_. c #636559",
"`. c #60625F",
"'. c #756354",
"]. c #6E726A",
"[. c #A13B1F",
"{. c #A63D1D",
"}. c #942D25",
"|. c #85551B",
" X c #87661A",
".X c #99751E",
"XX c #8B552B",
"oX c #87573A",
"OX c #955A3B",
"+X c #A74F29",
"@X c #996F2D",
"#X c #AB6627",
"$X c #AA7824",
"%X c #B5732F",
"&X c #C17828",
"*X c #875A45",
"=X c #935D42",
"-X c #8A654A",
";X c #976748",
":X c #9F714E",
">X c #886855",
",X c #956C55",
"<X c #8C725C",
"1X c #9D7758",
"2X c #AA754F",
"3X c #A56C55",
"4X c #A87658",
"5X c #AE7C5C",
"6X c #8E7167",
"7X c #987965",
"8X c #A67C68",
"9X c #B47D62",
"0X c #B57D69",
"qX c #0D891B",
"wX c #15871D",
"eX c #19911F",
"rX c #159320",
"tX c #1A9823",
"yX c #228A22",
"uX c #15A925",
"iX c #11AD25",
"pX c #21AA28",
"aX c #7D8174",
"sX c #AC8427",
"dX c #B88627",
"fX c #A98532",
"gX c #C9972C",
"hX c #D19730",
"jX c #D6A434",
"kX c #B88846",
"lX c #AF845F",
"zX c #B48455",
"xX c #A98468",
"cX c #B78769",
"vX c #B8926F",
"bX c #A98B74",
"nX c #B88C73",
"mX c #BC9A7C",
"MX c #BBA27F",
"NX c #CD9957",
"BX c #C48968",
"VX c #C38B74",
"CX c #C59777",
"ZX c #D49075",
"AX c #C6A37E",
"SX c #919587",
"DX c #B99882",
"FX c #D99881",
"GX c #E9B89F",
/* pixels */
":.k.P.>.:.D D S Z Z G G Z Z G G F F F F J F F J F F G F G Z F F F F Z.Z.H H J F F F F F F Z Z F F F J F F F F J J G Z D F.J.J.J.",
"k.R.,.J.;.&.D Z A Z l l G G G G G G G F G F G G F G G G G %.G G C.C.Z.Z.Z.F Z Z F G C.F F F A G G F G F F G G G A G D H F.J.P.G.",
"P.R.P.>.;.&.#.G A %.A %.%.%.G G %.G G G G G G G A %.%.%.%.%.%.%.C.Z.Z.J J F F D D %.G G A l %.D.%.G G G G G %.A A A #.J -.G.K.;.",
"P.P.L.;.&.&.#.%.%.%.%.%.%.%.%.A %.%.%.%.%.%.%.%.%.%.%.%.l %.%.%.G J J J F.F.F.-.-.&.&.D A %.S.D.%.%.%.%.%.%.%.%.%.G J D H -.G.;.",
"G.P.G.D.&.%.%.%.l %.l A l %.l %.%.%.%.%.%.%.%.%.%.%.%.l %.%.A %.&.-.-.>.Y.j.j.C f.j.-.-.D J &.&.S.%.%.%.%.%.%.G %.S.C.F H J ;.F.",
"D.G.D.&.%.%.G %.%.%.%.G %.l %.l G G G %.G G G G %.%.%.G %.%.%.*.=.o.f.f.f.i.i.` g g N C H.T A.S.%.G G G G G G G %.S.F Z Z F ;.&.",
"J Z.Z.G G G G J S.%.G G G G %.l F G G F G G G J A A G G %.#.O.o.' ` ^ t ^ d.V. Xd.i.r d C g 5.T.U J J G G F G C.G G G F F G %.#.",
"F C.F F F F J F G G G G G G l G F J J J F J C.F G G G G A O.o.g.' / i.a.d..XdXgX$X Xd.s.i.i.9.f H J J F J J J F l G F F J G A l ",
"D G D A Z G G &.G G %.&.&.%.%.G D D D G G J G F G A G D m ' a.a.! ] s. X.XdXdXgXgXsX$XdXsXfXV.t u.A.G F G F J G C.S.G G G F G k ",
"Z D A Z A Z G G A A &.&.F.G.G.G.&.#.&.D D S.&.G G G G :.d i.i.! ! ^ s..X$X%XgXgXjXgXgXhXjXjX@Xi.9.A.J G G G G S.G G G Z G G G k ",
"Z #.A A A A A D #.#.;.G.I.I.I.I.G.-.&.D J &.G G G l D O.` ^ ^ ! ! ! s.#X&X&X&X&XdXdXgXhXhXgXfXg.9 y.Z.F G G G G G &.G G Z G G k ",
"F J G G A D A D $.;.G.I.I.I.I.L.P.G.F.D G &.S.Z.l h y ) _ Q ] ^ R { XX@X#X&X#X&X%X%X+X&X%X.XV.i.q A.J G G G G G G Z.G G G G G k ",
"F G G G A D D #.;.G.P.I.I.I.P.P.J.K.;.J F G S.Z.F Z =.l.( [ m.| ~ { *X;X+X{.{.ZXGXBX{.{.OX<.w f y.A.H J G G G G G G G G G G l k ",
"G G G G G $.$.;.;.,.,.P.P.P.P.,.K.K.J.J G G &.D.!.!.P.M...b.m.~ E E /.,XOX[.+XZXGXBX}.}.N.O.z Y A.A.F F G G G C.G F G G G G F k ",
"C.C.G G D &.-.;.,.,.,.,.,.,.,.,.J.J.G.-.G G G S.`.!.n  .@.p.m.p.W <.>X*X|.#X2X2X<XM.W R  .P T D.J G G G G F G J G &.G G G F G k ",
"C.C.G Z D $.;.P.P.,.,.,.,.,.,.,.J.K.G.&.A G G k G h % / [ / m.V._ *X3X<.| dXNX2Xx.: % & X.:.j.F.G G G G G G G G G G G G A G G k ",
"C.C.C.l G #.;.P.P.,.,.>.,.,.P.P.P.L.G.D.J J C.G h # j ^.@.i p.m.^ >XvXn.s.kXNXzX-Xc.W X.'.).k.u.F.G G G Z.J G G G %.S.%.&.&.G G ",
"F G l G G #.;.P.,.,.,.>.,.,.,.P.G.G.D.&.G C.C.F Z h ;.6X'., Q ! i >XbXB.s.kX5X9XlX4X>X>X8XbX'.N F G G Z.&.S.J F A G %.%.G S.G l ",
"l F l l D &.;.G.,.P.P.,.P.,.,.,.F.&.&.&.G G C.C.F h c :.h . . . * M.<XB.oX;X<.=XcXMXxXM.).7X~.c Z G J S.S.&.Z.G G %.G A G &.%.G ",
"C.C.l G G #.$.;.P.I.P.I.I.I.P.,.;.%.&.G G G Z.G J F H S # . . . . u X.1.*X,X*X<.-XmX8X_ / =.n B Z G J &.D &.S.F.S.%.%.G G S.G l ",
"G %.%.A A #.#.&.G.L.P.I.I.P.G.&.#.$.D G G G Z.C.G J H.c # > < < < , % , <.,X>XX.M.nXbXM.* y c J D A %.A D &.F.K.K.G.&.G %.S.&.Z ",
"A %.%.#.A A A A &.;.G.G.G.;.-.$.D G G G G C.C.G D U M f a l./.oX/.N._ & ( ,.R./ M.8XDX6Xb M D D D D D D &.&.K.U.U.I.D.%.&.S.%.l ",
"Z $.#.A A A #.A $.&.&.&.&.&.#.A G G G D G G G C.J P g z.>X7X0XnXnX9X*Xc.[ ) < %  .^.6X'.I I H G D $.D &.-.K.R.R.U.K.D.%.G S.%.l ",
"Z A A A %.G #.A %.%.%.&.%.&.G G A A G &.Z.J C.G D N o.>XxXVXAXFXFXCX5X:X1X>Xh.> % <  .P y.U Z.G A A $.&.K.I.I.I.K.K.S.G G %.G G ",
"Z G G G G G G J G G G %.G J G G D J G G G G G #.*._ b.1XcXBXVXVXCXCX2X2XcXMXxXh.- > B I U Z.Z.G #.A &.F.I.U.I.K.K.D.S.%.%.S.#.Z ",
"A G G G G G G G G G G G G G G G G G G G G G D $._ @.n.3XzXBXcX5XlXcX;X;X4XmXDX<X+.c H A.A.J H J $.#.%.D.K.K.K.G.S.S.S.%.&.S.%.A ",
"Z G G G G G C.G C.G G G Z.G G G G G G G G G m ) [ XX=X;XlXCXxX-Xb.-XB.x.M.).<X'.b > K Y A.Y y.Y T U Z #.D.G.D.&.G G l l %.&.S.A ",
"G G G G G G G G G G G J G G G G G G J G G Z a [ v.;X9XVXvX1X).X.i c.c.X.a d N s $ $ K K z z z 9 M B c Z &.&.%.A A A G G %.D.S.A ",
"Z %.G D G G G J G G G G G G G G G G G G G m / c.=X8X0XcX,Xc.i % = o...P R.W.W.k.s j.aXaXK K M B aXSXQ.I J %.G A A %.%.l %.D.%.G ",
"F G G G G G G G G G G G G G G G G G G G Z X.' b.;X3X3X0XxX>X+.=  .@.> > L Y P P k.Q.~.W.c A.T.I aXSXQ.I J C.G G S.D.S.G %.S.G k ",
"A G G G G G G G G G G G G G G G C.G G G n / x.n.oXoX=X0XDXMX<Xh._ i + 9 L T I j.~._.T.T T ~.T.y k.k.f L &.G G S.%.%.G A G %.G l ",
"F %.G G G G G G G G G J G G G G G G G D ../ <.v.v.XXOX9XAXAXCX,X_ Q e N R.E.E._.aX].`.W.W.`.T.$ y B S D S.C.S.S.G G A A G %.A k ",
"Z G l G G G G D A A A %.A l A #.A A G D V p [ m.v.v.oX2X5XcXVXxX*X*Xb.X.) j  .!.`.`.~.c h H.T y L J J J C.G G C.G G G Z %.&.G k ",
"Z Z l G C.G G #.A G %.%.$.&.$.&.$.$.&.&.&.V ` [ a.b.B.oXOX3XcXxX4X4X;X*X*X^.+.a y c 9 . . > w c J &.G J G G G G F G A G G S.G k ",
"Z F Z C.C.G Z A A %.&.G.G.G.>.P.L.;.K.G.-.T $ * e o.c.x.XXoXOXOX;X5X5XcX0X*X) + s N * ..,.d g P J G G G J G G G G G G F G J G k ",
"A G G G Z.G G A %.&.;.L.L.P.P.I.P.I.I.Y.T c o   o w g p ` | b.b.OX4XvXAXnXN.* # z.^.d ^.<Xc.=.-.J G G G G G G G G %.G G G G G Z ",
"D G A G S.Z.F $.$.-.G.P.P.,.P.,.P.P.I.P.K # X X 2 2 3 5 4 t ` [ c.>XxXmXnX(.> . M.^._ >XbXM.=.#.G G G G G G G G G S.G G G S.J G ",
"D D G C.C.J G A ;.L.P.P.,.,.,.,.,.P.,.J.M o 0 8 6 6 7.7.3.8 7 4 u @.).<X>X@.> %  . ./ *X7Xl.+.&.%.G G G G G G G G J J G G J %.F ",
"D J G C.S.J A #.>.P.P.P.,.,.,.,.>.>.,.J.M 1 8 5.2.3.0.e.yXyXr.6.7 w , m b d b +.a % = l.N.X.+.&.J G G G G G Z.G G G G G G J S.&.",
"&.J G G S.G G #.;.P.,.,.,.,.,.,.,.>.J.>.M 5 5.6.q.r.wXeXtXpXpXwX3.X   y P C ) o., . . , < i $.&.C.G G G G G G G F G %.F G J D.D.",
"J D D J S.C.G S.;.P.,.,.,.,.P.P.P.,.P.J.u.q 8 2.3.r.yXtXuXuXuXuXq.1 X z y.T V g * $ B V < n $.%.G G G %.G %.G G A A G Z F D D.F.",
"J &.G G &.G Z.D.;.,.P.P.>.L.>.P.P.P.R.R.Y.M 7 6 3.0.r.qXuXiXiXrX0.2 6 7 x H =.s @ N _._.*. .&.%.G G S.G G G l %.%.G F Z Z D ;.;.",
"J #.D &.&.C.Z.D.G.P.P.P.P.L.P.P.P.Y.T.T.j.M 3 6 3.4.e.qXuXiXuXqX7.2 6.2.q S &.T M C _.~.O.n #.#.G %.%.%.l G G %.%.A A Z D D %.&.",
"D D J G G F C.D.L.,.I.I.P.P.P.R.R.v 9 z y 4 X 5 2.2.4.e.qXuXrXe.2.7 t.6.q S G &.P P j.P n Z A $.%.%.%.%.G l l G %.C.G G F G #.#.",
"D #.A G G G C.S.;.F.L.P.P.R.P.E.g : % O.h.a   X 5 6 6 2.0.wXwXq.6 6 t.2.x F S.G G A Z A Z $.$.;.-.;.&.&.%.A A %.C.C.C.F F J G A ",
"D D A A G G G Z.&.$.G.L.K.K.J.E.p ; & 1./.@.>   X 1 2 6 0.wXr.q.6 1 2.6 q F G G A A #.#.$.>.,.,.>.;.G.G.;.%.%.S.C.C.F F J J A l ",
"D J G G G G C.Z.$.#.;.G.;.;.;.k.b e = _ x.@.e o 1 6 2.4.wXeXr.8.6 3 7 3 z F Z.F A #.&.;.,.P.P.,.,.P.P.L.K.&.S.C.C.l G Z.Z.J A k ",
"D G Z G G F G C.#.A &.-.$.&.&.$.=., : : ( ( w 4 8 2.4.r.tXwXw.2.2 5 5 5 z F F F %.$.G.P.P.,.,.,.,.P.I.I.K.D.D.C.C.C.F Z.Z.S.A l ",
"G G G G G J G G G G &.G %.%.G #.;.u e * r ` @ 5 5.8.q.r.r.r.0.6 X 5 5 y H F G J %.%.;.L.>.,.,.,.,.P.R.I.P.G.&.#.l %.G F C.D.G l ",
"F G G G G G G G G %.G G G G %.J #.*.u . ; r + 5 q 5.3.3.4.3.2.6 1 3 9 S F G G %.%.D.G.L.P.,.@.,.P.,.P.P.P.G.&.$.l %.G G G S.%.A ",
"Z G G G G G G G G G %.%.G %.G G G -.O.* ; Q = @ O 3 3 1 2 2 2 0 q z S F A G G D G D.L.I.I.P.,.>.,.P.P.P.P.F.$.#.#.%.%.A J %.%.l ",
"G G G G G G C.G %.G G G G G G %.G G D , r ! Q % O O * O O o o M L H G A G G G %.%.D.L.I.I.P.,.>.P.P.P.P.L.G.&.#.A %.%.A G %.%.%.",
"Z &.G G G G G G G %.%.G &.G G %.G G D v e ( p % ; Q ~ ~ ! e y T U F D G G G G G %.&.&.G.L.P.P.P.P.I.P.L.K.;.&.#.A %.G G Z.&.%.A ",
"Z G G J G G G G G G J G G G G G G G J U p e e * R ~ { { | | o.c y y P &.G F G G %.&.&.&.-.L.L.P.P.P.L.L.;.&.%.%.%.G &.F J S.%.l ",
"F G G G G G G J %.G G %.G %.%.G G G G J V * * ; ~ ~ { { v.=X*XM.' / a O.&.G G J #.%.G %.-.;.G.F.;.;.;.&.&.%.%.%.l %.J G J %.S.l ",
"A %.G G G G G G %.G G %.G G %.G G G G F D s % = ; R E { | =X,X*XoXc.Q p $.D G G &.%.G $.&.&.&.&.&.&.;.&.A A l %.%.%.G G G %.%.%.",
"&.%.A l A C.S.C.G G G G G G G C.Z.&.G G G D + % & & & Q } | v.oX=Xn.[ e a D G G J %.G G G &.Z.G G G G &.G G G G %.l G Z F J #.#.",
"*.&. .A A %.S.C.C.G G G G G G G J J G G F D > - : Q R e Q ~ ~ [ x.@.( - a D G G G G G G G G G G G G G G G G G G %.G F F F #.&.;.",
"-.;.&.A A S.S.C.G G J G G G J G G S.S.A D J h > = - p o.u - - : < u - @ c D G %.G G J G G G G G G G G G G J G G %.l G J &.D.F.G.",
";.;.$.#.A %.G G G G G G G G G G G &.G G G &.D Z k n S -.V C V V O.V B n Z G G G G G G G G G G G G G G G G G G G G G G J F.F.G.L.",
"J.P.;.$.%.#.%.G G G G G G G G G J Z.G G F D.S.G Z A %.#.#.-.&.&.&.F.&.D D G G %.G G G G G G G G G G G G J G G G #.A D &.F.H.I.P.",
">.P.;.;.&.&.#.A G G J G G G J G J &.&.F G S.&.G A %.A G G J D &.G G G %.%.%.G G G G C.G C.G G G J G G G G G G G %.#.Z U J.J.P.P.",
">.P.P.J.;.&.G G G G G G G G G C.G S.G G G S.S.D %.G %.%.&.S.S.%.G J G D %.G %.G G G G J G G G G G G G C.G G G A #.A S $.:.K.K.;.",
">.P.P.P.F.&.A G G G G G G G G G J S.J G D D.S.G G G %.G &.S.S.%.G %.%.G G G %.G G G G G G G J G G G G G %.G G G #.A D D G.P.>.>."
};
