/* XPM */
static char *move31710350341[] = {
/* columns rows colors chars-per-pixel */
"64 64 245 2 ",
"   c #060A01",
".  c #170A05",
"X  c #021402",
"o  c #031B04",
"O  c #0A1A06",
"+  c #191705",
"@  c #1B130B",
"#  c #1A1B0C",
"$  c #1C1713",
"%  c #230C06",
"&  c #3E0D03",
"*  c #251608",
"=  c #2E150C",
"-  c #2D1A0D",
";  c #34140B",
":  c #341B0E",
">  c #39180A",
",  c #291B16",
"<  c #331C12",
"1  c #371A16",
"2  c #032404",
"3  c #082707",
"4  c #0C2D0D",
"5  c #152709",
"6  c #083508",
"7  c #063D0B",
"8  c #0D3D0C",
"9  c #13360C",
"0  c #0B2C11",
"q  c #182616",
"w  c #0F3910",
"e  c #153716",
"r  c #26260B",
"t  c #34240D",
"y  c #3B230D",
"u  c #312B0E",
"i  c #272717",
"p  c #2A231C",
"a  c #332313",
"s  c #3B2313",
"d  c #382819",
"f  c #25361C",
"g  c #373315",
"h  c #321F27",
"j  c #361E33",
"k  c #391F34",
"l  c #1E2F23",
"z  c #2B2422",
"x  c #292926",
"c  c #2B2C2B",
"v  c #382625",
"b  c #332A24",
"n  c #35222B",
"m  c #352A2A",
"M  c #3C2A2B",
"N  c #283926",
"B  c #393528",
"V  c #3B342A",
"C  c #362335",
"Z  c #3B2436",
"A  c #352A34",
"S  c #3C2936",
"D  c #372639",
"F  c #3D263B",
"G  c #3D293B",
"H  c #353534",
"J  c #3A3433",
"K  c #3B3738",
"L  c #3B3B3A",
"P  c #461A09",
"I  c #56180D",
"U  c #431E11",
"Y  c #44240D",
"T  c #49270D",
"R  c #4C2D0B",
"E  c #582B0C",
"W  c #4A330C",
"Q  c #563009",
"!  c #462717",
"~  c #4D2B1B",
"^  c #562617",
"/  c #542B14",
"(  c #542D1C",
")  c #463113",
"_  c #463519",
"`  c #56361A",
"'  c #642D0B",
"]  c #622E10",
"[  c #673719",
"{  c #733E1C",
"}  c #432C23",
"|  c #462C28",
" . c #542D21",
".. c #453124",
"X. c #4B3222",
"o. c #47362A",
"O. c #543422",
"+. c #593827",
"@. c #402737",
"#. c #412B35",
"$. c #40263C",
"%. c #422A3C",
"&. c #433333",
"*. c #483434",
"=. c #443D33",
"-. c #45323D",
";. c #4A343E",
":. c #4D3A3C",
">. c #553933",
",. c #513B3D",
"<. c #643A27",
"1. c #683C32",
"2. c #763E32",
"3. c #054409",
"4. c #0C440D",
"5. c #07490C",
"6. c #0B4B0C",
"7. c #11480F",
"8. c #09560D",
"9. c #134712",
"0. c #0C5A13",
"q. c #155714",
"w. c #0D6312",
"e. c #0E6A15",
"r. c #136716",
"t. c #156C19",
"y. c #0D7617",
"u. c #17761B",
"i. c #1B4823",
"p. c #2D412B",
"a. c #374337",
"s. c #544416",
"d. c #5C4D14",
"f. c #684916",
"g. c #6C5314",
"h. c #7C5E16",
"j. c #7B621F",
"k. c #5B4428",
"l. c #484339",
"z. c #544433",
"x. c #594839",
"c. c #5D5038",
"v. c #674426",
"b. c #6C442D",
"n. c #744529",
"m. c #684737",
"M. c #6E4934",
"N. c #744A38",
"B. c #6A5137",
"V. c #7B553B",
"C. c #3E2640",
"Z. c #3D2940",
"A. c #402740",
"S. c #432C41",
"D. c #463341",
"F. c #4B3442",
"G. c #4E3A43",
"H. c #4A3944",
"J. c #4E3549",
"K. c #503745",
"L. c #523C43",
"P. c #533C4A",
"I. c #543C50",
"U. c #4A4242",
"Y. c #484944",
"T. c #574A47",
"R. c #56514B",
"E. c #595753",
"W. c #694D43",
"Q. c #765046",
"!. c #7B5846",
"~. c #615857",
"^. c #7A5C56",
"/. c #5D6157",
"(. c #736154",
"). c #6A6964",
"_. c #77726B",
"`. c #A1351D",
"'. c #933428",
"]. c #8B5A1B",
"[. c #926A1C",
"{. c #A5631D",
"}. c #854F2F",
"|. c #985924",
" X c #87573A",
".X c #965B3C",
"XX c #A4442B",
"oX c #B35D24",
"OX c #987322",
"+X c #956437",
"@X c #A97924",
"#X c #B27827",
"$X c #B77034",
"%X c #895C47",
"&X c #945D46",
"*X c #825750",
"=X c #AE5E42",
"-X c #8C6145",
";X c #95654D",
":X c #99674B",
">X c #886558",
",X c #956856",
"<X c #8D745A",
"1X c #9D7653",
"2X c #B3704D",
"3X c #A26D54",
"4X c #AA6E5A",
"5X c #A87558",
"6X c #B57B59",
"7X c #997764",
"8X c #8E7670",
"9X c #A37864",
"0X c #B47D6A",
"qX c #A07974",
"wX c #0E8119",
"eX c #16861E",
"rX c #1D8B22",
"tX c #199823",
"yX c #218B23",
"uX c #229526",
"iX c #1FA729",
"pX c #24A62B",
"aX c #B58426",
"sX c #A78732",
"dX c #BB8C36",
"fX c #C9982D",
"gX c #C59638",
"hX c #CE913D",
"jX c #D3A536",
"kX c #A48267",
"lX c #AC8467",
"zX c #B88769",
"xX c #B38A72",
"cX c #B99478",
"vX c #CE8F4A",
"bX c #C4976D",
"nX c #C79677",
"mX c #C89271",
"MX c #CAA27A",
"NX c #D4A37A",
"BX c #B29181",
"VX c #B0A59D",
"CX c #D1A485",
"ZX c #D9AB92",
"AX c #E8B38B",
/* pixels */
":.x.G.:.-.J S C C C k Z Z Z D D Z D D D D D D G D D D F Z Z Z D D C.Z.Z.K D D D D D D D D C C D D D D D D D D D $.Z A A -.H.G.H.",
"l.U.G.H.;.%.S Z C Z F k D F F F F F D F F D D F F F F F F $.D F C.C.Z.G Z.D C C D D C.D D Z F F G D G F F F D F @.$.S G D.P.L.F.",
"L.L.L.:.-.%.@.Z F F k $.k $.$.$.$.F F F F $.F F $.$.$.$.$.$.$.$.D G G G K S A S %.G F F F F $.S.$.F F F F F F $.Z F F G -.F.L.;.",
"L.L.K.;.-.%.@.$.F $.$.$.$.$.$.$.$.$.$.$.$.$.$.$.k @.F $.@.$.$.#.V V l.l.l.g u l.=.&.%.S F k $.A.$.$.$.$.$.$.$.F Z $.@.S G %.F.F.",
"G.K.F.S.%.$.$.$.k k $.k k k k $.$.$.$.$.$.$.$.$.$.k $.Z #.o.o._ s.k.W u ) d.d.s.g g a.H C Z $.%.$.$.$.$.$.$.$.$.$.F F D A G -.F.",
"S.F.S.%.$.$.$.$.$.$.$.F $.$.$.k F F F $.F F $.F $.$.S V _ ) W W W f.f.d.g.h.[.[.j.d.g u i b Z $.F F F C.F F F A.F C.C.C C D %.%.",
"G Z.Z.F F F F G S.$.A.$.F F $.$.F G G D F F C.F $.$.M ..) W W W R R f.[.OXOX@XfXfXOXg.g.d.g f S F D F D F F G D F C.F D D F %.$.",
"D G D D D D G D F F D F Z Z k F D G D D G G D F F Z d O.< W ` W R Q ].aXaXaXaXfXjXfXaXdXsXd.q A G G G G D F G D k F F D D S Z Z ",
"Z D Z Z Z D F %.F Z $.@.%.$.F %.S G S F S A.F D D S a _ Y W ` W R g.@X#X#X#XaXaXfXfXjXjXsXs.i A F D F F F F F F C.C.F Z D F F j ",
"S S Z Z Z Z F @.Z Z %.S.F.F.F.F.%.%.#.S G %.F Z Z m * ; ) y ; P v.}.|.$XdX$XgX#X{.#XgXsXd.r f C $.F F F F D F %.F F F F F F Z j ",
"Z G F Z Z Z S Z @.#.-.F.P.P.P.J.F.%.%.F F A.G Z v , 1 ( Y & P ^ %X&XXX`.=XAXAX2X`.XX+Xs.# i H Z.F F F D F D F F F $.F D F F D k ",
"Z D D F S Z Z Z %.;.K.K.P.P.P.K.H.F.F.S F S %.*.W.W.( +.> & I <.>X,XXX`.=XAXAX4X'.'.Q.d f H Z.$.C.F F F F F F F G G F F F F D k ",
"D F F F Z S S #.;.F.L.L.L.L.L.K.K.P.F.%.F $.S._.BX<X .^ I P I 2.>XN.|.oX$XbX9X2.I ^ >.K L K C.Z.F F F F F F F C.F F F F k F D k ",
"D F F F S #.%.-.;.,.L.K.L.T.L.L.H.P.F.S F k J.8X8XT.U ; O.U I &X>XO.].hXvXdXN.1 % ; o.=.-.$.F %.$.F D F F F F F F $.F F F F D k ",
"C.C.D F Z %.;.;.,.,.,.,.,.,.,.L.H.K.F.%.F F Z.~.R., % % _ : ( ,X>X( ].hXvX6X;X .1 | *XT.=.S F A.F F F F F D F $.F Z.F k F F F j ",
"C.A.D Z S %.;.,.L.,.,.,.,.,.,.,.H.J.F.%.F Z Z.D H K c @ @ @ s !.>X+.|.vXvX0X0X7X*X>XkX8Xl.c D F C.F F F F F F F F G F D F F D k ",
"C.C.C.k F %.;.L.,.,.,.,.,.,.,.L.L.K.F.S.G C.F D K Z.N .   . % O.N.b..X+X}.5XcXmX,XQ.7XkX=.n D F $.Z.F F C.G F D F $.$.F $.%.F k ",
"k C.k k F %.;.,.L.,.,.,.,.,.L.,.J.F.S.%.G F Z.Z.-.J b d 1 % % y  .b.;X%Xb.N.0XCX&X~ >.T.z C $.G F F F F %.Z.F F F F $.$.$.%.C.Z ",
"D k k F @.%.;.F.L.L.L.L.L.L.L.;.;.D.%.%.F F A.G m o.B.Q.N.~ 1 s 1 ( >X9X!. .>XBX>XU * , z Z F F D F Z.%.A.%.F F F $.F F $.A.F F ",
"D C.C.k Z #.%.;.L.L.L.L.P.L.L.,.%.@.%.F F F D m o.^.9XlX9X!.` ! O.( N.,XW.U !.cXBXQ., z C F F F Z F F %.S G S.D.$.$.$.F F A.F k ",
"F $.$.Z Z @.@.#.;.L.L.P.L.K.;.-.@.#.S F F F n *.!.0XnXnXzX1X XM.%XM.O.! s - x.8XqX^.h n G F F F Z F $.S Z @.F.J.J.J.S.F %.%.$.Z ",
"Z $.$.$.Z Z Z @.%.;.F.F.F.F.-.@.S F F F F G 1 +.;XzXnXNXMXzX1X%X5X,XM.+.+.X.! ~ >.;.*.@.F F F F $.S S S S F.J.I.J.J.S.$.F A.F k ",
"Z Z @.k Z Z Z Z %.%.$.-.%.%.@.Z F F F G $.*.| 1.:X6XbXbXNXcX4X3XzXmX5X:X,X1.; = ; , #.G F F F F S #.S %.D.F.P.P.I.J.S.F F A.$.Z ",
"n Z Z Z @.$.Z $.%.$.$.$.$.%.$.D Z Z S %.*.X.<.N.&X3XvXNXMXzX4X4XmXCXmXzX3X<.U O.} a S F F F F F Z Z #.%.J.P.T.J.I.J.%.F $.A.F k ",
"Z F F F F F F F F F F G F G F F S F @.&.o.k.V. X X+XbXmXxX&X X&X0XnXZXnX;X .<.>Xx.p J Z.Z.G F F @.@.$.S.J.P.P.J.F.S.$.$.$.%.$.k ",
"D F F F F F F G F C.F F F F F F F G M X.v.V.1XlXkXkXzXzX4X2. .1.!.xXBXxX>X+.m.^.l.i =.-.%.G F F Z @.@.-.J.P.J.F.A.A.$.F $.S.F Z ",
"D F S F F F F F F F F F F C.F F F #.d ( V.5XzXMXMXxX5X*X1. .! d d z.c.z.X.} v B i @ x D #.%.G F F Z @.$.S.F.%.$.F F k F $.S.$.F ",
"D F $.F F F F G F F F F F G F F $.| ~ +. XlXbXnXlX,Xb.( ! d v V V B L p p T.~.c q i p R.^.~.%.F Z $.$.$.%.S.F F F F F k $.A.$.Z ",
"Z F F F F F F F F F F F F F F F Z U O.n.;X5X6X6X5XV.) ; g p i a.Y.Y.Y.a.H._.8XZ.V a.B kXVX).%.D $.$.$.%.$.$.F F F $.$.F F S.$.k ",
"D F F F F F F F F C.F F F F F F F v X.b. X:X.X4XzXcX<Xl.g , @ z c c c Y.E.U.L c l.Y.x E.8XY.S F $.$.A.A.A.F F F $.A.$.k $.%.F k ",
"F F F F F F F F F F F F F F F F $.*.g O.V. X}.2XnXCXcX<Xo.@ d x.R.R.E./.)./.R.E./.R., z G A G F A.A.A.A.A.$.C.F $.$.F F F A.F k ",
"Z F F F F F F F F F G F F F F F F -.a _ b.n.}..X6XmXcXcXV.X.| ....J /._._.).l.H R.T., n Z G F F %.A.A.A.C.F A.A.F F Z Z F $.F j ",
"Z Z k F Z.F F Z G Z F Z Z Z Z S n S H d g / { }..X3XzXzX-X!.!.B.c.z.l.Y.Y.L $ . z n , k F F F $.F F A.F C.F F C.F D F k F S.F j ",
"Z D k D C.F Z S Z $.@.%.#.%.#.%.%.G a.N # r ` f.n.%X3X3X:X3XlXxXkX>XB p p @ @ $ @ , h D F F F A.F F F F F F F F F F D Z A.A.D j ",
"C Z C C.G F F Z Z $.%.F.F.F.G.F.G.H.c 0 9 9 5 _ k.m.N. X:X6XmXxX,Xm.a B x.d +.m.~ , S F F F $.F F F F F F F F F F F F F F %.F j ",
"Z D Z F C.C.F Z @.%.;.K.K.L.L.L.L.Y.x 4 7.w.4.4 q # : <. X4XmXnX,X_ % z.(.O.%X9Xm.| Z $.$.F $.$.F F F F F F F G F F S F F F F C ",
"S F D F Z.A.F Z #.-.F.L.K.L.L.,.L.U.l 0 r.u.t.8.3.6 5 u v.,XlXxX<X1 . } z.! ;X0XN.#.S F F F $.A.A.F F F G F F F F %.F F F A.G Z ",
"S F F $.A.G Z S -.K.L.L.L.L.,.,.,.G.H e 0.yXuXyXe.8.3.5 u X.m.B.z.i . $ * - N.;X<.#.F @.$.$.G %.F F F F F F F F F G F F F F $.D ",
"S F F C.A.F F Z ;.L.L.L.x.:.,.,.:.G.Y.l 3.r.yXuXu.w.6.6 5 5 5 5 5 9 2 o   . v +.o.S A.F %.A.%.$.F F F F F F F F D F G F D %.A.A.",
"%.%.D C.A.F F #.;.,.L.,.,.:.>.,.:.L.Y.l 3 3.8.8.w.w.6.7.4.8 4.4.6.6.8 2 X @ , , m G %.$.F $.A.A.F F C.F F F C.F F F G F F G S.S.",
"G S F G %.Z.F S.;.L.L.,.,.,.,.L.L.L.Y.l 2 o 2 2 7 4.8 9.q.q.r.r.e.r.0.0 q Y.E.c c D C.D F $.A.F F F F $.F $.F F F F D C Z S %.F.",
"G @.F G F F C.S.F.:.,.L.:.;.;.G.:.U.a.e 4 o X 2 2 2 3 8 9.q.e.e.y.t.w.7 e /.).L c Z.G A.A.$.$.A.F F $.F F k F $.$.k Z Z D F %.-.",
"%.G S F $.C.Z.S.:.L.:.&.J m V V V c 5 w q.7 o 0 0 2 o 2 4 7 8.w.e.t.t.5.0 p.a.l x Z G A.%.%.@.$.F $.$.$.F k $.F $.F Z D Z S %.%.",
"G S S %.F D C.S.G.G.L q q * r a t r O 4.t.t.7 2 9.8 2 X o 2 6 3.5.w.e.0.3.w 0 O z D G Z Z Z #.Z @.$.$.$.F k k F $.F D D G @.%.@.",
"S @.Z F G F C.A.-.F.J r B - y s.s.) 5 8 u.uXu.0.r.q.6 X   X 2 3 3.0.y.eXrXu.0.0 x C Z Z @.#.#.-.-.-.%.%.$.$.Z $.C.D D D D G D Z ",
"S S Z F F F F Z.#.&.l.g c.d T v.n.` * 3 u.pXiXwXeXu.9 X X 3 4 8 5.w.y.tXpXrX0.N A D $.#.*.;.,.L.;.,.K.F.%.$.$.$.A.C.C.C.G G Z k ",
"S F Z D F F C.C.Z -.=.u k.Y P ] [ Q * X 5.yXpXtXeXu.9 X O 9 e 8 5.r.rXiXiXrX5.N Z $.%.;.K.,.L.,.,.L.K.K.F.S.A.C.C.C.C.D C.G Z j ",
"F G Z F F D C.F Z S &.a _ > P ' ' E : + 3 r.tXtXy.8.2   O 3 5 3 6 q.u.rXwXw.i.D G %.;.K.L.,.,.>.,.T.L.P.J.J.A.C.C.k D Z.Z.F F k ",
"Z F F F F F F F F S &.g y > P ' ' ' ~ * O 7.r.e.0.7 X   . * * + 5 5 9.6.5.i.a.G $.$.F.K.L.,.:.,.L.L.L.L.L.F.%.@.Z $.F D G %.$.k ",
"D F F F F G F F A.F J | < P E ' ' ' T % 5 9 6.3.7 2   . ; ^ / E R : + 2 4 a.Z.%.$.S.F.K.L.:.>.>.,.L.L.P.L.F.%.@.k @.$.F F A.$.F ",
"D F F S F F F F F F %.o.; U ' ' ' T % . + 5 9 6 0 X   % T [ { n.{ <.g u i V G S F S.J.P.T.,.,.:.,.,.,.P.K.;.%.Z @.$.$.D F $.$.k ",
"F F F F C.F F F F $.%.&.< U [ { [ P %   X 3 9 N p.x . = ~ [ ' { n.-X+XB._ i p A F %.F.J.T.K.,.,.L.L.L.L.K.;.-.@.k $.$.F G S.$.k ",
"D F F F F F F $.$.F %.&.< ~ <.}. X<.y + 5 f N H K H # @ ; > Y E n. X:X Xv.) a b Z S S.J.K.K.L.L.P.P.P.K.K.%.@.$.F $.$.D G A.%.F ",
"Z F F F F F F F F F $.&.< ~ n. X:X-X<.y u V L G D H # @ * * = Y Q v.n.n.<.<._ < v Z @.%.;.G.K.L.L.L.K.K.;.%.$.@.F $.F F F A.$.k ",
"Z F F F F G F F F $.S &.a s O.v.b.M.k.) t d &.F %.J - - y : t t Y R Q / ^ ^ ! < n S @.@.%.F.F.F.;.;.;.;.$.$.Z $.k $.$.S G $.$.k ",
"D F F F F F F F F F F J p * - : : : < t - v S G S.-., - ; ; ..o.a = ; ; ; > : = n F S @.%.%.@.@.@.%.%.%.@.@.F $.$.$.F D F $.$.$.",
"#.#.Z Z F A.C.C.F F F %.S m m M M M M M M &.%.G @.;.*.*.*.| o.#.M v M n h h n n D F F F %.F F %.G F F %.F F F F $.k Z D D S %.$.",
"#.#.Z Z F $.A.C.F F C.F S S G G G %.G S G %.A.G @.F.K.L.,.%.$.S #.Z @.$.@.$.@.@.F F F F F F F G F F F F F G F F $.F Z D D G %.%.",
";.-.#.Z k $.A.F F F F G F F F F F A.F F S S.G F %.-.K.K.S.%.@.%.%.$.F F $.F $.$.F F F F F F F F F F F F F F F F $.k F S G %.F.;.",
";.,.%.@.Z F A.$.F F F F F F G F G A.F F F A.A.S $.$.%.-.%.%.@.$.F F $.F F F $.$.F C.F F F F F F F F F F F F F F $.F F G D.F.K.K.",
",.,.;.%.$.@.$.k G F F F F F F F G A.G F F %.A.Z Z F Z $.F Z $.%.F $.$.F F F $.F F F F F F F F F F F F F G F F F $.S S G H.H.P.L.",
"G.L.,.-.-.$.@.F F F F F F F F F G G G F F A.Z.F F Z F $.$.F $.@.$.F F F $.F $.F F F F G F F F F F C.F F F F F F $.Z S -.H.H.K.G.",
",.L.L.;.-.%.F F F F F F F F F F $.A.%.D G A.%.F F $.F $.%.A.$.$.$.F F $.F $.F F F F F F F F F C.G F F F F F F F Z Z S S H.L.L.;.",
";.L.L.L.;.%.F F D F F F F C.F G F G F F F S.$.F F F F $.%.A.$.$.F F F $.F F F $.F C.F F F G F F F F F F @.F F Z @.Z A S D.G.,.;."
};
