/* XPM */
static char *player_left1710078772[] = {
/* columns rows colors chars-per-pixel */
"64 64 245 2 ",
"   c #030402",
".  c #0B0403",
"X  c #050A05",
"o  c #0A0B06",
"O  c #080B08",
"+  c #0C0B0C",
"@  c #140B0A",
"#  c #180808",
"$  c #061007",
"%  c #0C130B",
"&  c #0D1B0D",
"*  c #17190D",
"=  c #100F11",
"-  c #0E1A11",
";  c #1A1516",
":  c #131D13",
">  c #1C1C1C",
",  c #27090A",
"<  c #360B0C",
"1  c #320E10",
"2  c #221315",
"3  c #281818",
"4  c #371819",
"5  c #13210E",
"6  c #0F2112",
"7  c #142314",
"8  c #182416",
"9  c #182A16",
"0  c #1B231B",
"q  c #152A1A",
"w  c #1B2D1C",
"e  c #1D321C",
"r  c #282A1B",
"t  c #2E2C1D",
"y  c #1E1A22",
"u  c #231D24",
"i  c #261E26",
"p  c #361F2A",
"a  c #1F2921",
"s  c #1E3422",
"d  c #242524",
"f  c #252B26",
"g  c #2C252C",
"h  c #292929",
"j  c #392527",
"k  c #322F2C",
"l  c #243C25",
"z  c #273728",
"x  c #332635",
"c  c #3B2436",
"v  c #342C35",
"b  c #3D263A",
"n  c #382A38",
"m  c #3C2A3B",
"M  c #2D3933",
"N  c #373437",
"B  c #471515",
"V  c #561819",
"C  c #651E1E",
"Z  c #44241E",
"A  c #411E20",
"S  c #452323",
"D  c #4A2626",
"F  c #4C2B2A",
"G  c #532B2B",
"H  c #572B29",
"J  c #54342E",
"K  c #40263C",
"L  c #422B3C",
"P  c #492F3E",
"I  c #43323D",
"U  c #4B343D",
"Y  c #5D3432",
"T  c #573638",
"R  c #782828",
"E  c #6A302B",
"W  c #653836",
"Q  c #6B3B3B",
"!  c #723C38",
"~  c #2A442B",
"^  c #2A462A",
"/  c #32482B",
"(  c #32532F",
")  c #2C4531",
"_  c #2C4C33",
"`  c #334838",
"'  c #2D5135",
"]  c #2E5339",
"[  c #335435",
"{  c #3B5637",
"}  c #32543B",
"|  c #335B3D",
" . c #3B5C3B",
".. c #3C613D",
"X. c #51583A",
"o. c #684E3A",
"O. c #77423E",
"+. c #4A653F",
"@. c #3F2841",
"#. c #432C42",
"$. c #4C3442",
"%. c #493842",
"&. c #523C43",
"*. c #5B3D45",
"=. c #693E41",
"-. c #3B4844",
";. c #345D42",
":. c #3A5D42",
">. c #376043",
",. c #3B6343",
"<. c #3E6945",
"1. c #3A654A",
"2. c #3E6A4C",
"3. c #3E6C51",
"4. c #454A48",
"5. c #534242",
"6. c #495840",
"7. c #4A5754",
"8. c #565B5A",
"9. c #6C4343",
"0. c #744343",
"q. c #7A4543",
"w. c #7A4A48",
"e. c #74544B",
"r. c #795555",
"t. c #476845",
"y. c #446B44",
"u. c #436D4B",
"i. c #586A46",
"p. c #46714B",
"a. c #4B734B",
"s. c #4B7448",
"d. c #56754C",
"f. c #537B4D",
"g. c #436D50",
"h. c #486F53",
"j. c #57625C",
"k. c #447354",
"l. c #4A7553",
"z. c #4D7955",
"x. c #457659",
"c. c #47795B",
"v. c #4C7C5B",
"b. c #537C54",
"n. c #527D5A",
"m. c #587B58",
"M. c #6D674C",
"N. c #78685B",
"B. c #65795D",
"V. c #73775B",
"C. c #536B61",
"Z. c #646969",
"A. c #6F7872",
"S. c #892C2C",
"D. c #8E302F",
"F. c #873733",
"G. c #87453A",
"H. c #924138",
"J. c #864B4A",
"K. c #834C4B",
"L. c #89534D",
"P. c #8A4F50",
"I. c #835355",
"U. c #8C5453",
"Y. c #865959",
"T. c #925654",
"R. c #965955",
"E. c #955C5B",
"W. c #9C5C5A",
"Q. c #A15F5B",
"!. c #856C52",
"~. c #9C645D",
"^. c #A4625E",
"/. c #A8635E",
"(. c #8E7964",
"). c #927964",
"_. c #A46463",
"`. c #AB6663",
"'. c #AC6966",
"]. c #B16B68",
"[. c #B8736D",
"{. c #4F805D",
"}. c #568155",
"|. c #5A8354",
" X c #5F8856",
".X c #55825C",
"XX c #5A855B",
"oX c #5E895D",
"OX c #63875B",
"+X c #718A5C",
"@X c #4F8060",
"#X c #548361",
"$X c #5A8663",
"%X c #5C8A64",
"&X c #5E8C68",
"*X c #688563",
"=X c #628D64",
"-X c #628E69",
";X c #738665",
":X c #659265",
">X c #6A9465",
",X c #65926B",
"<X c #6A956B",
"1X c #6D996B",
"2X c #729464",
"3X c #759768",
"4X c #739C6B",
"5X c #6E9870",
"6X c #749B72",
"7X c #75A26C",
"8X c #7AA46D",
"9X c #7FA86F",
"0X c #77A470",
"qX c #7BA671",
"wX c #7EA973",
"eX c #8C835D",
"rX c #8C8B6A",
"tX c #8D8F6A",
"yX c #8C9A71",
"uX c #85A46E",
"iX c #82AC75",
"pX c #88A976",
"aX c #8AAD7C",
"sX c #90AB79",
"dX c #8AB379",
"fX c #8CB37C",
"gX c #91B67D",
"hX c #8F9494",
"jX c #8CAE80",
"kX c #8EB281",
"lX c #92B581",
"zX c #93B982",
"xX c #99BB84",
"cX c #9EA4A2",
"vX c #ACAFAF",
"bX c #B6B9B9",
"nX c #BEBFC1",
"mX c #C7C9C9",
"MX c #D3D6D6",
"NX c #DFE0E1",
"BX c #E9EAEA",
"VX c #EEF0EF",
"CX c #F4F5F5",
"ZX c #F7F8F8",
"AX c #FEFEFE",
/* pixels */
"5.X.$.%.I N c j n b c c b b b b m m b @.n b n b b b b x x u y y y y y y x @.@.x x x x x x x n b n n @.b b n b b m b n n P &.&.$.",
"5.5.&.U U L c c c c c c c c b b b b b n b b b @.m @.@.d ; 2 2 2 2 2 2 2 = y y y u ; ; y y g x m b b @.n b b b m b b n m %.&.&.$.",
"5.5.&.U P L b b c K K K K K @.@.K m b b b b b b b b g ; p $.*.*.*.*.*.$.c 2 + = 3 3 3 3 ; ; ; i x m b b K b K c c c b m #.%.$.$.",
"*.&.$.P L K K K c K c K K c K b K K K K @.b b b K b > p =.r.r.r.r.w.r.w.w.T 3 p U j j F T U j 2 ; x m @.K #.K b c K L m m #.$.$.",
"&.$.#.L L K K K K c c b K c c K L @.m #.L m L L L x 2 T I.Y.I.r.I.Y.I.I.r.I.*.p S F J T 9.9.=.G 3 2 v n m m m #.m #.b n v m L $.",
"$.#.@.b K b m b K K L m b c g p g g g g g g g g i ; 2 q.E.E.r.=.9.w.0.w.I.Y.I.Q S j T W T F F D B 3 > 3 3 i g g n @.@.x x b L L ",
"#.@.@.@.b b b m #.#.@.v y =     X   X     . . o X   @ W E.E.9.D K G D P r.E.E.T.Q 1 4 S D F D D D Y Y F S 4 3 2 > i m n n m L K ",
"@.@.x b n b n @.L x ; + X = : 0 9 8 0 8 0 7 5 2 # .   3 I._.E.I.0.9.0.0.U._._._.K.4 G 0.J.U.P.K.0.K.T.U.U.w.0.Q G 2 g m m K b p ",
"m c c c c c m L N @   % e +.OX2X2X2X2X2X>X2X+Xo.! < . . J ~.[.].'.'.'.'.'.'.'.'.T.H Q W././.T.Q Y J.W.Q.R.0.Y Y Q F 2 m m m b x ",
"L c c c c n b L N + $ X.3XdXgXfXzXgXgXgXgXfXgXyX!.C , . ; o.'.[.[.[.[.[.].W.T./.`.J.J./.]./.J.C H C P./.W.Q H G G W 3 g I @.b p ",
"c c b c c c L I n O : |.gXxXzXzXxXgXzXxXgXgXgXdXeXF.V . . 4 ! O.U.W._.].].J.Y O.Q.`.`.].]./.Q.R.J.H W P.W.R.U.P.O.q.D 2 x I @.c ",
"b m b b m L I N 3   : B.gXxXzXzXzXgXsXsXfXgXdXdXeXH.R < .   o # # 3 H q.R.W.O.H Q J.Q.].].`.`.`.Q.! B Y J.W._.Q.R.R.K.D 2 d m m ",
"m b b L I v 3 = X X f 2XgXzXlXlXzXsXyXtXdXdXdXdXeXH.D.C < # o . .   . # 4 W P.J.Y H P.'.'.'.`.`._.R.! W ! W./.Q.W.R.T.U.W 4 3 > ",
"L b #.N > + O % w X.+XpXzXlXgXgXgXyX).rXsXdXdXdXeXH.D.D.R C V B < # . . . # D U.E.P.E.'.`.`./.Q.^.Q.Q.R.R.Q.Q.W.K.W 9.w.K.O.E 4 ",
"#.b #.v O   f t.2XpXlXgXlXgXlXfXsXtX).tXdXdXdXiXeXH.D.H.G.o.S.S.S.R V < .   # 0._._._._.E.J.J.J.q.J.T.W.L.J.T.E.0.G Z B H W q.q.",
"@.#.m g . : B.aXlXlXlXlXlXlXfXfXyXrX).uXiXdXdXiXeX!.L.eXeXeX!.G.S.S.S.R B . @ Q `.'.'.E.Q D D H H H H Q Y Y J.E.E.K.O.! H D ! L.",
"@.@.m g X 0 4XlXzXkXkXkXkXfXjXpXyX(.rXpXaXiXiXdXiXtXuXuX9X8XuX!.G.S.S.S.B . @ Q _.'.^.L.O.O.J.J.J.! H 4 1 Q P.J.K.U.R.T.J.0.q.P.",
"@.@.@.g   0 3XlXkXkXkXkXkXfXaXsXrX).tXaXwXaXdXwXwXwX9X9X9XuX8X2X!.F.S.S.V . o F T.Q.L.O.w.R.^.~.R.T.w.Y A 0.Q D S 0.U.R.R.U.U.U.",
"c b b g X 0 3XlXkXjXkXjXfXaXiXyXrX).yXwXdXiXwXiXwXwXwX9X9X8X8X8XV.G.S.S.C #   # F Q W H F O.W.~.W.q.W W Y 0.Q G A D W 0.K.U.R.U.",
"@.b b p   0 3XkXkXjXjXjXfXaXiXtX).).yXwXwXwXiXwXwX9XwX9X8X9X8X8X2XM.S.S.R B @   o # 3 S Z G L.E.U.! F 4 A 0.U.P.9.S 4 A Y K.T.I.",
"K L I g + 0 3XjXjXaXkXaXpXdXuX).~.rXpXwXwXiXiXwXwXwX0X8X8X8X7X7X3X+XG.G.F.R B # .     . # 4 Q Q D F Y W D O.T.E.U.w.O.W Y w.P.P.",
"m L L g   0 <XjXaXjXaXaXaXaXyX).(.rXqXiXwXwXwXwX0X0X0X9X8X8X8X7X8X2X+X+X!.o.o.o.Z 1 @ .   . # @ . + 2 D Y q.P.I.Y.U.I.P.K.P.U.I.",
"c K I g X 0 2XjXaXqX6X3X3X2X;XY.r.V.<X4X0XqXqXqX9X8X7X7X7X7X7X2X2X+X X Xd.M.i.X.o.X.t , .       .     . # 4 S Y 0.K.I.U.U.I.I.P.",
"c c m g   0 ;X6XB.6.{ / ^ f t 3 t k / X.t.d.OX4X7X7X7X7X7X+X|.t.{ / ^ t e 5 9 & * * * * .     < B < #   . . X + 2 J 0.K.P.P.K.q.",
"c b L g   0 *Xi.0 y f f f h k k h h h r f 0 r +.>X0X7X4X:X{ 8 > e r f f k k M N h z h d > % . Z E o.H < # @ . X   # 3 D T Y G S ",
"b K m g X 0 a.z a A.cXvXbXbXbXbXbXvXvXhXA.4.> 0 d.4X7X1Xd.7 > 8.hXcXvXbXnXmXmXmXmXmXbXvXhX8.* t X.M.o.o.C V V < .     . + . @ ; ",
"b m I g X : 6.7 4.MXZXZXZXAXAXZXZXZXZXCXBXmXA.: +.>X7X>X .> Z.MXBXCXCXZXZXAXAXAXAXAXZXZXCXvXf 5 +.+X Xi.O.R R R B < # .     + g ",
"b m @.g X : { > j.BXAXAXAXAXAXAXAXAXAXAXAXCXhXr ( >X7X=X_ f cXCXAXAXAXAXAXAXAXAXAXAXAXAXAXmXv : +. X X|.o.O.R R R C V B ,   = n ",
"b m m g X 7 6.: 8.NXAXAXAXAXAXAXAXAXAXAXAXVXhX> { :X4XOX^ f cXCXAXAXAXAXAXAXAXAXAXAXAXAXZXmXl 5 s. X X|.d.o.G.O.R S.E o.4 . + N ",
"b b m g . 7 t.w k vXZXAXAXAXAXAXAXAXAXAXAXmX7.0 t.>X4X:X{ 0 rXBXAXAXAXAXAXAXAXAXAXAXAXAXCXcX8 9 f. X|.|. Xd.o.o.o.R o.o.Z . + n ",
"b #.m g X 7 m.{ 7 j.mXZXAXAXAXAXAXAXAXZXNXA.a z OX1X1X>Xt.: 4.mXZXAXAXAXAXAXAXAXAXAXAXAXMX8.5 ( f.|.|.|.|.+.d.d.o.O.o.X.S o + n ",
"b b m g   0 *XXXz r 8.vXBXVXZXZXZXZXBXnXA.d 0 t.>X<X>X>X|.l > Z.mXZXAXAXAXAXAXAXAXAXZXmXA.8 e +.|.|.}.+.( +.|.f.X.o.M.+.t o + v ",
"c b @.g O 7 -X6Xd.z ; k Z.cXbXbXbXcXA.N > w y.%X1X>X>X>XOXp.e 0 j.vXNXVXZXZXAXZXBXNXvX8.> 7 ..}.|. Xs.^ e +.|.f.+.X.+.i.Z o @ k ",
"c x x g   7 B.6X4XOX{ 8 ; u d f d d 0 > ^ a.:X1X:X>X>X>X>XoXt.e : v Z.hXvXbXbXvXhX8.d : 9  .}.}.+...^ & 9 t.}.}.f.f.|.+./ % @ v ",
"b c n d O : $X6X6X6X:Xm.X.k u 2 r l { l.OX>X1X:X:X:X:XOX:X=XoXa./ 7 > 0 d f d a 0 : 5 ^ t.}.s...^ 5 $ X & { f.f.f.f.s.s./ o % v ",
"m b @.g   > B.6X6X6X6X5XV.N.e.r.M.OX-X<X:X:X:X:X,X:X:X:X:XOX=XoX}.p.{ ^ e 7 7 w ^ [ +.f.|.|.+.^ 5 o . X & [ a.f.f.f.s.+./ X + v ",
"m m n d   7 m.6X5X4X5X5X;X(.r.Y.B.*X,X<X,X:X:X:X:X:X:X=XOX=X=X=X%XXXXX}.d.a.a.d.f.b.}.XX|.}...9 o # * r / t.a.f.s.}.}.+.^ o o v ",
"g u > =   : n.6X5X5X5X<X;X!.r.r.N.B.,X-X:X:X:X:X:X%XoX=X:XOXoXoXoX X XoXXXXXXX.X.X}.}.}.}.s.( 5 , * @ l t.s.f.a.s.+.}.s./ o + n ",
"% = +     : m.5X5X<X5X<X;XN.r.N.r.V.*X,X:X&X:X:X:X%X=XoXOX%X%XoX X X|.|.XXXX}.}.}.}.}.}.s.[ 9 @ 2 * . 9 ..s.a.a.s.s.s.+.^ o + n ",
"~ [ ~ O   > m.5X<X<X<X<X;XN.A.V.V.B.-X-X:XoX:X%XoX:X%XoXoXoXoXXXXXXXXXXXXX.X.X}.b.}.}.}.s./ 5 2 4 @ % l +.s.f.s.s.s.a.+.^ X = N ",
"b.b...%   : n.<X<X,X5X,X*XN.B.B.B.%X-X=X=X=X%XXXb.b.n.b.b.m.XXXXXX|.}..X}..X}.b.b.b.z.f.s.[ & . 3 * l  .p.s.p.s.s.p.s.y.^ X $ M ",
"%X.X+.&   : m.<X<X,X,X,X*XV.B.=X-X-X-X%XXXn.u.{ ^ z e s ^ { y.a..XXXXX.X.X}.b.b.b.}.z.<.^ ^ 5 X . e ..p.a.s.s.s.s.p.s.y.^ & @ N ",
"XX.X..%   : z.,X,X,X-X-X*XV.*X=X%X$Xb.t.[ f = % % % % % % % 7 ~ +.a.b.b.b.n.b.b.z.}.a.^ & $ X X $ ^ s.p.a.a.s.p.p.p.y.s.^ X + v ",
"$X.X,.&   : m.,X,X-X-X-XA.V.$X&X.X,.f & % % - w l ` [ _ l 7 % O % w _ ..a.b.n.l.z.z.a. .7 X X & e [ p.a.p.p.s.y.p.p.y...^ o % v ",
".Xm. .&   : z.,X-X&X-X-XB.B.=X%Xg.q + % w _ t.h.z.n.n.b.l.t.[ e + $ % - / a.n.f.z.f.z.p.^ $ q [ t.u.s.p.p.s.y.p.y.<.+. .e X o v ",
".Xn.,.%   - h.-X-X&X&X-XB.B.$X$Xl.l ~ t.l.m.#X.X#X.X.X.X.Xm.z.u. .^ 8 - ~ l.l.b.f.l.a.p._ e ..p.p.s.p.p.p.p.p.y.<. .^ 9 o   + v ",
".X.X:.%   : m.&X&X&X$X-XB.B.$X$X#Xz.n..X#X$XXX.X.X.X.Xb.m..X.Xz.z.a.u.:.t.l.l.l.k.a.z.s.....p.p.s.p.p.u.p.p.<...^ 6 O     + d v ",
"v.z.;.%   ; h.&X&X&X&X$XB.B.$X$X$X#X.X$X#X.X.X.X.X.X.X.Xn.z.b.{.z.n.z.z.z.l.l.s.l.p.l.p.s.p.p.p.p.p.p.u.<.y...9 $ X     . > x c ",
"[  .) X   : h.&X&X$X$X$XB.B.$X#X#X#X#X#X.X.X.Xn.v..Xv.b.z..Xz.z.l.f.z.l.z.l.l.t.,...t.u.p.p.p.p.u.s.y.u.p.<.[ & X     @ < i b c ",
"% % %     : h.&X&X#X$X$Xm.m.$X#X#X#X.X#X#X.X.X{..Xv.{.z.{.z.z.z.z.z.z.l.l.k.t._ M M / t.p.p.p.2.u.t.u.y.<.<...e X   . < 4 p K c ",
"y ; = O   - 3.&X#X#X#X@XB.n.#X#X#X.X.X.X@X.X.X.X{.z.{.z.z.z.c.z.l.l.l.l.l.p. .) 7.7.~ _ ..<.1.>.:.<.y.<.<.<.<.' &     , < 4 b c ",
"n n v y   - c.v.&Xv.g.-.:.c.@X#X@X.Xv.#Xv.v.z.v.v.v.v.z.z.l.z.z.s.l.l.l.l.k.;.M j.A.7.l l ' ) l l _ ;.<.<.<.<...s X   . 1 4 p n ",
"@.@.@.a   - g.A.$Xv.;.a z ] g.v.v.n..Xv.v.v.{.z.z.v.c.z.f.k.l.k.k.l.p.k.3.g.} a ` j.8.M 6 6 M -.-.z _ ,.<.<...,.' %     1 4 4 b ",
"b b @.i   : g.&X#Xv.u.) q q M 1.c.v.v.v.v.v.z.v.v.l.c.l.l.l.l.l.l.p.a.k.3.;.z s f ` 7.j.-.s -.Z.8.M s ..,.,.<.<.] -   . 1 4 i c ",
"b b n y   - g.n.#Xv.v.u.' w : l ;.g.l.v.v.l.z.z.c.x.l.l.k.l.k.k.p.k.k.p.1._ @.7.-.M 4.A.C.@.M -.` z ~ >.<.<...>.' &   . , 1 x c ",
"b b @.a   - 3.v.#Xv.v.v.h.;.s s s | x.v.c.c.l.x.l.x.l.k.k.k.k.p.g.g.p.g.3._ ) C.C.-.M 7.C.@.g q f ~ ] ;.>.>.>..._ &     . # p c ",
"L m @.y   - 3.v.v.v.@Xc.v.c.3.;._ ;.k.c.c.x.l.x.k.k.k.k.k.p.k.p.u.u.u.2.2.} z M ) s a a -.7.-.s s | >.>.>.>.>.| ' e $       y m ",
"U m n d   - 3.c.v.@X@Xc.c.v.c.3.3.3.c.c.x.k.k.x.k.k.k.k.g.k.3.k.g.u.u.2.2.1.] ) ' ' ' s M 7.7.-.e | >.>.>.>.......' l 6 X   = v ",
"U U n y = = 3.C.v.@Xc.@Xc.c.c.c.c.c.3.@Xx.k.k.k.3.k.k.u.2.k.g.2.2.u.2.2.2.2.1.,.,.1.1.] s @.;.-.s ] >.| >.| | >.| | | _ 7 X % n ",
"&.U @.u   - 1.c.c.c.c.c.c.x.x.c.c.3.@X3.k.k.k.3.k.3.3.k.3.2.3.2.2.2.2.2.1.2.1.1.1.1.,.>.] s s s _ >.>.>.>.| ;.| | | | ] e X + v ",
"&.&.I u   - 1.c.c.c.c.c.x.x.x.x.3.c.k.3.3.3.k.3.3.3.3.3.3.3.3.3.1.1.1.2.1.1.1.>.1.>.1.,.>.] ' ' | | ;.;.| | | | | ] | ] s X $ v ",
"&.&.I d X = ;.3.3.1.3.3.3.2.1.1.1.1.1.1.2.1.1.>.1.1.>.>.>.>.;.;.>.;.>.>.;.| ;.| | ] ] | | ] ] ] ] ] ] ] ' ' ' ' ' ' ' ^ e $ % v ",
"&.&.%.g   X 6 a a q s q q s a q 7 q q 6 q q 6 q q 6 q q 7 6 7 6 6 q 6 6 7 6 6 6 6 6 6 6 6 6 6 6 6 6 6 6 6 6 6 & & & & & $   + v ",
"T &.%.d X       X X               X X X X X X   X X       X X     X     X     X   X X                 X     X   X X         + v "
};
