/* XPM */
static char *coine1710072999[] = {
/* columns rows colors chars-per-pixel */
"64 64 243 2 ",
"   c #340531",
".  c #390935",
"X  c #3C0A36",
"o  c #341F31",
"O  c #3B1837",
"+  c #362536",
"@  c #3B2436",
"#  c #3C2936",
"$  c #362639",
"%  c #3D263B",
"&  c #3D293C",
"*  c #3F303A",
"=  c #440D3A",
"-  c #480E3A",
";  c #44133C",
":  c #4C113D",
">  c #56143F",
",  c #412937",
"<  c #40263B",
"1  c #422A3C",
"2  c #45313C",
"3  c #4A333E",
"4  c #493D3C",
"5  c #3D2840",
"6  c #471A43",
"7  c #4C1E46",
"8  c #531341",
"9  c #5C1745",
"0  c #531D43",
"q  c #5B1B43",
"w  c #621B45",
"e  c #6A1E45",
"r  c #651B4A",
"t  c #6B1E4D",
"y  c #701F50",
"u  c #472546",
"i  c #442D41",
"p  c #532147",
"a  c #542349",
"s  c #592449",
"d  c #463243",
"f  c #4B3443",
"g  c #4C3943",
"h  c #453548",
"j  c #4B3549",
"k  c #4E3A4B",
"l  c #503645",
"z  c #523B44",
"x  c #523C4A",
"c  c #572D52",
"v  c #5B3657",
"b  c #69244A",
"n  c #74224B",
"m  c #77244A",
"M  c #6C2C51",
"N  c #752252",
"B  c #7B2455",
"V  c #7B2C52",
"C  c #7C2858",
"Z  c #663758",
"A  c #763759",
"S  c #6D3C62",
"D  c #56424A",
"F  c #564253",
"G  c #594555",
"H  c #5C4856",
"J  c #5D4A5B",
"K  c #624E5A",
"L  c #66535C",
"P  c #6A4465",
"I  c #694867",
"U  c #754868",
"Y  c #655364",
"T  c #6C5A6A",
"R  c #715A6C",
"E  c #7F4E71",
"W  c #795976",
"Q  c #77666F",
"!  c #796776",
"~  c #862A4E",
"^  c #862954",
"/  c #852A5B",
"(  c #8C2B5C",
")  c #932E58",
"_  c #883659",
"`  c #993359",
"'  c #A33556",
"]  c #A3385B",
"[  c #AC3B5D",
"{  c #B43D5D",
"}  c #912D61",
"|  c #8E3461",
" . c #9C3264",
".. c #9A3565",
"X. c #A43663",
"o. c #A4356A",
"O. c #A83968",
"+. c #AC396B",
"@. c #B63E64",
"#. c #B33C6B",
"$. c #B93F6C",
"%. c #93415F",
"&. c #BA405F",
"*. c #854967",
"=. c #984665",
"-. c #865B77",
";. c #925370",
":. c #AC4261",
">. c #A44469",
",. c #B64566",
"<. c #BD4163",
"1. c #BD416C",
"2. c #AD4771",
"3. c #B64572",
"4. c #AE5472",
"5. c #B95578",
"6. c #83627F",
"7. c #96647C",
"8. c #83737C",
"9. c #B3687C",
"0. c #C44565",
"q. c #C74866",
"w. c #CE4966",
"e. c #C4446D",
"r. c #CA466E",
"t. c #CD496C",
"y. c #D24B67",
"u. c #D34B6D",
"i. c #DB4E6D",
"p. c #C8536C",
"a. c #D2536D",
"s. c #DC516D",
"d. c #C64871",
"f. c #C34C74",
"g. c #D34C71",
"h. c #DB4E70",
"j. c #C8567A",
"k. c #DD5272",
"l. c #D65876",
"z. c #E3526F",
"x. c #E8546F",
"c. c #E45371",
"v. c #EB5671",
"b. c #E45B75",
"n. c #EC5B74",
"m. c #E45E79",
"M. c #F15B74",
"N. c #CD6079",
"B. c #D8647B",
"V. c #E5667D",
"C. c #ED627A",
"Z. c #F16077",
"A. c #F2657B",
"S. c #F36A7E",
"D. c #846681",
"F. c #866A84",
"G. c #896C85",
"H. c #986A84",
"J. c #857482",
"K. c #8B7C84",
"L. c #8D768B",
"P. c #8C7D8A",
"I. c #96758C",
"U. c #947D92",
"Y. c #9A7E94",
"T. c #B2778D",
"R. c #C45D80",
"E. c #CD6985",
"W. c #D86B84",
"Q. c #C87789",
"!. c #D6788A",
"~. c #DA7E94",
"^. c #E76B82",
"/. c #F46D81",
"(. c #E97689",
"). c #F57485",
"_. c #F67C8B",
"`. c #F77D8B",
"'. c #E87E90",
"]. c #8E8088",
"[. c #91828A",
"{. c #968694",
"}. c #9D879C",
"|. c #9C8C9A",
" X c #9D9097",
".X c #9C929B",
"XX c #A48A9D",
"oX c #A2949D",
"OX c #A594A3",
"+X c #AA92A4",
"@X c #AA93A5",
"#X c #A599A3",
"$X c #AC9DAB",
"%X c #B39BAC",
"&X c #ADA2AB",
"*X c #B2A9AE",
"=X c #B3A4B1",
"-X c #B5ABB3",
";X c #B8A8B4",
":X c #BBADBA",
">X c #B8B0B7",
",X c #BCB1BA",
"<X c #DA8993",
"1X c #F5818E",
"2X c #F8828E",
"3X c #E98794",
"4X c #EA8994",
"5X c #F58592",
"6X c #F88591",
"7X c #F68C97",
"8X c #F98A94",
"9X c #F3939C",
"0X c #FB949B",
"qX c #FC999E",
"wX c #CA8DA4",
"eX c #EB9DA2",
"rX c #FC9EA1",
"tX c #F697A8",
"yX c #C6ABB9",
"uX c #FDA4A6",
"iX c #FDA6A9",
"pX c #F2B2B8",
"aX c #BFB3C0",
"sX c #C3B4C2",
"dX c #C4BBC4",
"fX c #CBBDC9",
"gX c #D9B8C3",
"hX c #EFBEC4",
"jX c #C9C1C6",
"kX c #CDC4CC",
"lX c #D3C6CE",
"zX c #D7C4D0",
"xX c #D3CBD2",
"cX c #D9D4D9",
"vX c #DAD4D9",
"bX c #F3C6CC",
"nX c #FAC8CA",
"mX c #E6D5DB",
"MX c #F9D7DA",
"NX c #E6DCE2",
"BX c #F6DEE3",
"VX c #EBE6EA",
"CX c #F8E0E5",
/* pixels */
"4 4 4 4 2 # + o + + + + + + @ @ + $ + $ $ $ $ $ + @ + + + @ + + $ $ $ & & $ $ $ $ $ $ $ @ + + $ $ $ $ + $ $ $ + # @ + + 2 g g * ",
"D z z 4 3 , # + + + $ @ % % % $ % % & $ & & % % & # & % % % & % 5 5 5 5 & $ $ $ $ % $ % $ + & & & $ & @ % % & & % @ # * g D g 2 ",
"D D z 4 2 1 , @ # @ < % < < < < % % < < % % % % < < < < < < < < 5 5 5 & & $ + # 1 < < # @ O % < < % & % % < % % @ % # # d g g 3 ",
"D z 3 3 1 1 < < , < ; , < < < < < < < < % < < % @ < < % < % < < % & & & 1 1 4 2 1 1 < , % % 1 i < % % % % < < % % < & & # 2 3 2 ",
"z l f 1 1 < < < @ @ O % O @ O < < < < i u f i i 1 u 1 1 1 < 1 i f i f 4 k D D G z z f 1 % O % i < < < < < < % % % < $ + # 1 3 2 ",
"l 3 i < < < % & < < < < @ < @ @ % + i Y 8.J.J.8.J.J.J.! G c R J.K.K.K.P.].].[.[.[.K.R f % % % 5 % % % $ % % % % i 5 % + + & 1 1 ",
"1 5 % 5 % % & % < < < < 5 i i f h h G oXxXcXcXcXcXcXcXdX8.Y *XxXcXcXcXcXvXvXcXcXvXxX#XH g d h 5 < & & & % % & % O 5 $ $ @ & 1 @ ",
"% % % $ $ $ & & % % % $ $ x K.|.|..X|.}.}.}.{.XXXX}.}.}.}.|.}.}.}.}.}.}.XX}.|. X}.}..X.X.X.X|.P.F & $ & & & $ % % % & $ & 1 @ o ",
"& & @ @ @ % & & $ % , 1 j Q dXcXvXvXjXG.s 0 a a a a a v XX:XR p 7 0 0 a q a 0 0 7 a F.kXcXcXvXdXQ j 5 $ % % % & % % % $ % % $ o ",
"# # @ @ @ @ @ & @ , 1 G {.@XL.F.8.G.F.=.' ' ' ' ' ' ^ V *.D.C N N ~ ` ] ' ' ` ^ N N A D.F.F.F.L.OX[.k & % % & % % % % % @ % % o ",
"@ % @ @ @ @ @ @ @ 2 D ! -X%XA 0 s s M +.i.w.0.0.y.u.e.o.N N ` +.+.e.z.x.v.v.i.$.+.+.} b q q 6 S $X=XT J F j & % % & % @ % % $ o ",
"% % % $ @ # @ , 2 G  X;XL.*.:.<.&.4.N.5.#.~ b m ^ #.r.g.0.,.y.s.i.x.v.M.v.M.v.z.i.u.t.@.{ { ) / U G.-XdX-XJ.d & 5 & % @ $ & O o ",
"% % % % @ # , 2 H 8.$X%XE _ l.Z.l.j.Q.4. .r 0 M _ 5.l.^.S.A.Z.v.v.v.M.A./.M.M.M.v.h.c.v.z.u.e.X.V E =XfXaX|.T k % % % % % % % o ",
"& % % $ , , 2 D ].,XL.U O.a.1X!.3._ M (  . .=.E.<X9X7XrX0X8XS.M.M.M.M.).8X/.M.v.c.e.r.c.g.e.g.h.r.:.S v I {.-X! h 5 % @ $ % @ o ",
"u % % + , 1 K 8.oXoX;._ <.l.!.5./ t y =.R.3.l.'.8X8XqXrX0X2X`.)././.)._._./.M./.V.t.d.g.j.j.b.n.v.w.~ n V H.$X{.! k 5 @ % % @ o ",
"5 5 % @ , 4 8.dX XA ` t.1.1.2._ 0 y o.E.5X^.n.A.A./.6XqX2X).8XqXrXrXrX_./.M.A.6X5Xm.g.3.W.3X/.M.v.x.i.i.q.` P @X;XT i % $ % % o ",
"5 5 % + < l ].mX}.0 ' b.B.j.2.( N =.E.9XrX8X_._.`.`.`.2X`.2XqXiXiXiXuX0X_./.A.)._._.^.g.^._.`.).k.u.v.c.r.[ ) H.{.}.J.j 1 < % + ",
"6 % $ O , x [.lXU.b ] C.4X~.>...o.E.7XtXrXrXrXrXuXqX`.S.2XuXuXuXuXuXuXuXqX).M.M.).0X5XM.v.^._.'.j.e.c.u.$.r.q._ U =X=XY j < % + ",
"5 O $ % G oXoXG.;.] @.f.j.4.V | Q.'.).).).).5XrXiXuX2XS.8XuXiXiXuXiXiXiXrX0X_.A./.tXtX6XW.r.R.R.g.i.v.c.u.r.e.[ ..7.P.OXG.j % o ",
"% % % $ T kX=Xc ) u.r.#.+.} r =.3X_./././.A.).0XqX0X`.S.8XuXiXuXqXuXuXiXuXuX0X/./.6XqX3XE.#.3.3.k.v.c.c.h.e.#.u.0.b R kX&Xx < + ",
"< % @ 1 R xX*Xs ~ x.c.u.+.[ &.a./._.8X0X0X8X6X).).).`.8XqXuXuX0X_.2XuXuXuXiXrX/.M./.^.j.j.h.^.'.V.c.e.$.$.+.#.g.q.w U xX=Xz 5 o ",
"< 1 % & R xX=Xa m &.y.t.] ] s.Z./.8XrXuXuXuXrX).A.Z.`.uXiXuXqX8X).2XuXuXrXrX6XA.M./.W.j.h.^.`.7X).m.d.$.#.o.} <.0.V *.%XOX! v # ",
"# < & 2 R lX&Xa ; w )  .t m a.S.0XrXuXuXuXuXrX0X`.Z.2XrXiXqX`.).qXqXuXuXrX_./.M./.8X7X3X).M.M./.8X5Xm.c.u.) w ) $.0.:.U P.dXJ.& ",
"@ # f R [.@XI.A V _ >.] q b N.8XuXuXuX0X0XrXiXuX8XZ.2XuXuXqX).S.qXuXuXqX6X_./.M./._.0XrX`.M.h.W.7X7XC.c.r.B : ^ e.c.{ 0 F.cX.X5 ",
"@ @ G -X;XU _ 0.B.<XV.q.q b <X9XrXrXrX_.).0XuXuX8XS.2XuXiXqXS.S.qXuXuX2XS.8X8XS.M./.).tX`.v.e.f.3X7XM.u.+.y > [ z.v.{ w G.xX|.f ",
"% % K dXdXv n s.).`.S.y.e > *.4.E.'._._.6XqXiXuXqX2X8XuXuX0XS.).qXuXuX`.A.6XqX/.c.h.W.tX`.n.e.3.^./.g.1.o.) ' w.v.M.y.' ;.Y.|.K.",
"% % J :X:XP V y.c.n.x.0.e = 0 A 2.l.^.8XrXuXiXrXrXuXuXuXuX0X).).0XuXrX2XS.6X8XS.h.$.R.7X`.c.e.#.g.l.+.o.+.r.h.v.v.v.v.i.` Z }.kX",
"% % h ! {.@XI._ ] @.` e - p ;.9.!.'.8XrXiXuXqX2X6XuXuXuX6X`.2X2X_.6XrX0X6X`.).A.h.#.j.^.l.e.+.+.$.X.N ^ r.z.M.M.x.u.g.h.' a |.vX",
"% % i J J.:XXXM / O.V > : V !.qXtXuXuXrXqXqX6XS.).uXiXuX`.).7X8X/._.rXrX0X).M.v.g.1.r.h.d.+.o.o.o.( r ) h.x.x.v.k.$.e.i.' s }.vX",
"% % F .X$X6.*.,.N.!.j.[ ) X.B.1XuXuXrX2X/././.M.).rXuXuXqX0XuX7XA.).rX8X/.M.c.r.e.g.r.1.+.o.o.o.o.+.{ w.x.g.e.h.z.$.$.h.' 0 XXvX",
"% % J dXsXv B s.).6X/.c.,.O.1.l.3X4X0X_./././.S._.8XrXuXuXuXuX0X).(.'.^.c.h.u.e.e.g.r.+.+.#.+.o.#.e.u.c.x.r.#.r.g.e.r.z.' a |.vX",
"% % J jXdXv m i.A.A.Z.c.1.} b V 2.l.^.2X0X0X0X0X2X).6XrXuXuXuXuX9X'.5.3.3.#.$.g.g.#.+.+.e.g.$.#.r.u.e.t.c.r.o.#.$.g.c.c.' a |.vX",
"@ $ J dXsXv m s.M.M.v.v.r.X.t r B @.n.).8X8X8X8X).C.^.'.~.'.5X8X6X^.d.j.j.d.e.r.$.) ) $.r.t.#.+.r.r.e.r.u.r.e.1.r.c.v.r.) 0 }.cX",
"@ $ J dXsXZ m e.v.x.v.v.v.u.X.B 9 ` c.n.C.C.M.M.M.v.g.3.3.5.V.A.A.m.b.(.3X^.g.$.) w ^ t.r.$.o.+.+.e.g.g.$.u.c.c.c.v.h.#.^ 8 }.cX",
"$ + J dXfXc 8 / ) ' ,.r.c.v.y.X.B ` $.[ ` <.r.r.s.v.i.r.e.g./.`._.^.l.R.E.:.` o. .) X.e.r.e.#.o.o.+.r.r.r.h.v.v.v.g.e.o.y a }.cX",
"1 i Y aXaXS p p > > ^ O.u.v.x.w.O.O.o.n w  .+.X.1.u.i.i.z.C.4X9X4XW.O.o...N 9 / +.r.r.#.r.h.$.o.+.+.+.r.x.v.v.v.u.$.o. .y 7 }.vX",
"x 8.OXU.L.+X$X+X9.` n B 0.v.M.x.u.g.r.) ( $.@.n e m ~ ^ q.v.N.5.*.A r / ../ y r B +.$.+.#.1.#.+.r.r.g.h.v.h.$.) ^  .} r 8 6 }.vX",
"T #X:X! 6.fXNXBXpXW._ n { y.y.y.w.w.0.O.` $.@.Z c c p b ' q.O./ : X 8 y } } / 9 r } o.}  .o.o.#.g.c.c.c.h.$.} r 9 C N 6 ; v }.jX",
":XU.D.@X;X~.wXpXnXhX!.[ ~ e e b n e e w 9 r *.%XsXyXQ.:.~ b 9 : X 8 N y 8 8 9 N }  .C r C o.o.o.#.$.$.$.#./ 9 y N r 6 X I =X.X! ",
"NXF.Z sXzX4.4.Q.hXBXtXa.~ > X u Z I Z 6 = v D.gXmXBXpX'.` q X X 8 r B 9 X   6 y / / y 9 B o.o. .} } o. .( y 9 y y 8 . . D.vX.Xh ",
"NXD.Z sXfXU q Z @XMXrXn.y.` > U aXxX,XR c @XsXT.~.pXnXnX3X+.8 > N N 8 X       6 8 8 r /  .o.o.} r r } C 9 r B r =     ; F.xX.Xk ",
"NXD.c yXgXI.W D.%XbX9Xc.&.>.-.{.>XNXNXD.v fXfX2.=.9.yXBXtXs.` m N 9         . 8 9 y ) +.` V B N r r N y r y y 6     6 R {.$X! h ",
"cXF.v T.pXmXmXmXbXuX).p.~ U :X&X! *XcXD.v fXfXS 1 Z oXmXtXn.y.[ r 6 = X ;   6 C X.w.i.i.` : - > C N 8 9 C r =     X P :X#XK D 1 ",
"OX|.I.7.T.pXMXMXpX1X,.` 7.|.#XK.L #XcX8.v wXgX@XI.XXyXbX8Xs.[ =.I.U.U.U.F.c X 9 ) h.A.).p.` ~ ~ y r . 8 r 8     6 D.}.|.! d & # ",
"Y &XkXW U <XeXeX'.p._ U ;X;XQ K K oXzXD.S T.pXmXVXBXhXuX(.t.A W lXNXcXvXdX! 6 X e 0.V.qX(.M.z.0.y =     . 6 6 6 P =X&XY h & & + ",
"G =XVX,XXX;.=.U _ _ H.@X.X8.D z z T [.oX}.;.H.pXnXnXuXS.:.| Y.sXVXxX{.P.[.OXU.c : m :.S._.5XS.z.#.~ -   . T OX$XOX{.! h & # # o ",
"G .XcXcX:XU f v c P oX:XQ x f 3 3 3 K *XlXG.;.Q.<X<XB.p._ W jXVXNX#XF h J OX:XW u ; ~ V.1X0X).x.y.O.M c v {.jXcX-XT h 5 & & @ o ",
"d K Q ! P.=X:X:XyX;X{.! x , , , , , F *XVXlXoXE A A M V Y.fXVXcXP.J 5 5 i J J.$XY.a A 3XrXqX).a.^ *.%X:X:X.XD.! W & % 5 5 < o o ",
"& & 1 i Y =XkXkXkX:X! f < % % % & % x {.jXkX=XW I I P W sXVXcX&XJ & % % i J F.=X.XU =.9XrX8Xl.{ *.F.yXxXdXK.4 , < < % % & & % o ",
"# % % & h J Y Y Y Y k < % % % < % % i v Y Y J.,XkXkXkXxXVXcX[.J i % % @ x .X:X! %.4.V.0X6Xl.` U %X*X8.Q R G 2 , O < % $ & i < O ",
"% % & % % % % % $ % % % % % & < % 5 % % # & J OX>X,X:X:X>X#XJ i % % % % F :XxXI e N.2X2XN.:.;.G.$XoXK 4 l 3 , < , < % % < < < @ ",
"% % % % % % % 5 % % < % % < % % % % % % $ & d F F F F F F v d < % % + & J -XjXI A !.2Xn.%.Z XX,X8.L D z l 3 , @ < @ % % & < < o ",
"% % % % % % % % < % % % < < % % 5 % % % % % < $ $ # @ $ O $ % % % % i T {.|.I.=.,.4X!.%.;.{.OX.XL D z l f 1 < , % < 1 $ & i % o ",
"& % % % % % % % % % < & & % % < % % % % % % % % % & % % & % % % % % k {.jX6.M &.V.4X9.K Y.sXK.K D z l l 3 1 , < < % % % & < < o ",
"% % % % % % % % % < % < % < % % % % % % % % % & 5 5 i i i < & $ % % k .XcX6.w &.a.=.7. X.XK.L f 3 3 3 3 1 % < < @ < & & & 1 < o ",
"% % % & & % % % % & % < % % & < & % % % % & % < i i g h d i & % & $ j {.dX8.A :.' e 8.lXoXD 1 , , 3 1 , < @ # < ; < % $ & 1 , ; ",
"2 , o @ O 5 5 % % % % % % & % % < 1 & % % i % % 1 i l l 1 , # # % % i J ! OX%X*.q ; D.cX.Xh % & % & % & % % % % # % @ $ & & # # ",
"2 , @ @ % % u 5 % % % % % % % % & & & $ & < & % 1 f x l f , , @ % % % % J -XxXL.I I L.>XJ.i % % % % % % % % % % % @ @ $ # & 1 < ",
"3 3 , @ % < u @ % % & % % % % % & < % % % i % % 1 3 z l 2 1 1 # % % % % F -XVXcXlXfXOXT v & & % % % % % % % % % % % $ & & 2 3 2 ",
"3 3 1 , % % % % % % % % % % % 5 & < % % & i % % , 1 1 2 < < , < % % & % x P.-X:X:X-XP.j & & $ % % % % % % % % % < % % 1 f g l 3 ",
"z 4 3 3 1 < , % % % % % % % % % & 1 & % % & % % # < < @ % % < < % % % i i k G G J F k 5 % % % % & % % % % % % % , @ + 2 f g g 3 ",
"4 z 3 3 1 < % @ % % 5 % % % % & < 5 & $ % i 5 % % @ @ < < % < < % % % % % % O 5 % % % % % % % % % % % % % % % 1 , # # * g D z 4 ",
"z z z 3 2 1 % % % % % % % % % % & < % % & i i @ % % < < % < < i < % < % < % % % % & % % 5 % % % % % % % % % % % @ @ # * g z z 2 ",
"z z z z 3 1 @ $ % % % % % % % 5 % 5 % @ % i % % < < % % i i % % < % % % % & < % % % % % % % % % 5 % & % % % % , @ @ + * g z 3 2 "
};
