/* XPM */
static char *exit_open1710083137[] = {
/* columns rows colors chars-per-pixel */
"64 64 218 2 ",
"   c #000000",
".  c #0C0402",
"X  c #0C0902",
"o  c #0B0B0B",
"O  c #120404",
"+  c #1C0505",
"@  c #140D03",
"#  c #1E0B05",
"$  c #1C0C0A",
"%  c #1B1306",
"&  c #0F1011",
"*  c #131314",
"=  c #1C1514",
"-  c #240707",
";  c #200C04",
":  c #2C0E07",
">  c #270708",
",  c #2C0909",
"<  c #32090A",
"1  c #3A0C0E",
"2  c #221405",
"3  c #2B1206",
"4  c #281A07",
"5  c #3D140B",
"6  c #331A08",
"7  c #3B1B08",
"8  c #3B0E12",
"9  c #241C17",
"0  c #36181D",
"q  c #2C2106",
"w  c #2F230A",
"e  c #352509",
"r  c #3B230A",
"t  c #28221C",
"y  c #362816",
"u  c #3B2B15",
"i  c #3C1B28",
"p  c #361E33",
"a  c #391F34",
"s  c #2B2826",
"d  c #252B2D",
"f  c #372925",
"g  c #2C302E",
"h  c #36332D",
"j  c #362435",
"k  c #3C2436",
"l  c #3D2837",
"z  c #372639",
"x  c #3D263B",
"c  c #3D293B",
"v  c #3C3735",
"b  c #440D0E",
"n  c #490E0F",
"m  c #45150D",
"M  c #4E171F",
"N  c #561211",
"B  c #5E1214",
"V  c #591C10",
"C  c #50181F",
"Z  c #601414",
"A  c #621D13",
"S  c #44270A",
"D  c #4D270C",
"F  c #4E290C",
"G  c #54280D",
"H  c #47330B",
"J  c #4C390B",
"K  c #54360D",
"L  c #5C2917",
"P  c #4C3710",
"I  c #593615",
"U  c #533C12",
"Y  c #612F0F",
"T  c #612012",
"R  c #642F10",
"E  c #643610",
"W  c #6B3512",
"Q  c #683B13",
"!  c #64351C",
"~  c #663A1E",
"^  c #6C3C1B",
"/  c #703D15",
"(  c #4E1720",
")  c #4E1821",
"_  c #4A1D28",
"`  c #501921",
"'  c #4D2A2C",
"]  c #562D24",
"[  c #582E22",
"{  c #5D3426",
"}  c #5C372A",
"|  c #412635",
" . c #452933",
".. c #4A2C33",
"X. c #40263B",
"o. c #422B3C",
"O. c #492E3C",
"+. c #4E3334",
"@. c #45323E",
"#. c #4B333D",
"$. c #4D3A3B",
"%. c #523435",
"&. c #573B37",
"*. c #5A3D33",
"=. c #53363A",
"-. c #533B3D",
";. c #663B22",
":. c #5A410E",
">. c #5A4215",
",. c #60470F",
"<. c #694715",
"1. c #744615",
"2. c #764915",
"3. c #7A4C17",
"4. c #74481B",
"5. c #7B4C18",
"6. c #6F5119",
"7. c #7A5615",
"8. c #7B5816",
"9. c #7C551A",
"0. c #5C4B2A",
"q. c #44423E",
"w. c #5A4732",
"e. c #5C443B",
"r. c #684422",
"t. c #6D4D2C",
"y. c #744E25",
"u. c #785527",
"i. c #7E5B26",
"p. c #73522D",
"a. c #64493A",
"s. c #635231",
"d. c #765631",
"f. c #755832",
"g. c #795931",
"h. c #796338",
"j. c #3E2640",
"k. c #3E2940",
"l. c #432940",
"z. c #432C41",
"x. c #453441",
"c. c #4C3442",
"v. c #4D3A43",
"b. c #4C3648",
"n. c #523B43",
"m. c #533C4B",
"M. c #543C50",
"N. c #4D4641",
"B. c #534242",
"V. c #5A4241",
"C. c #56524B",
"Z. c #4E4555",
"A. c #514956",
"S. c #595855",
"D. c #645F54",
"F. c #77674A",
"G. c #64625B",
"H. c #545462",
"J. c #59676D",
"K. c #5A686D",
"L. c #5F6670",
"P. c #646868",
"I. c #6B726F",
"U. c #7E796E",
"Y. c #626E77",
"T. c #66767E",
"R. c #67787F",
"E. c #747373",
"W. c #835617",
"Q. c #855A16",
"!. c #815418",
"~. c #855B1A",
"^. c #8A5E1C",
"/. c #8C621B",
"(. c #90651A",
"). c #936A1C",
"_. c #A0711F",
"`. c #855E23",
"'. c #825F28",
"]. c #846025",
"[. c #856229",
"{. c #8D6A29",
"}. c #8D6E32",
"|. c #997837",
" X c #A67723",
".X c #AB7A23",
"XX c #91794B",
"oX c #857F70",
"OX c #AF802B",
"+X c #A88137",
"@X c #BE8C33",
"#X c #C68C26",
"$X c #CA973A",
"%X c #EAAF3F",
"&X c #A48444",
"*X c #B2904D",
"=X c #948362",
"-X c #8B8474",
";X c #A69775",
":X c #CA9E4A",
">X c #D7A74B",
",X c #CDA353",
"<X c #DEB057",
"1X c #E7B549",
"2X c #EBBA56",
"3X c #D1B373",
"4X c #E0B967",
"5X c #EAC068",
"6X c #687880",
"7X c #888886",
"8X c #9B9994",
"9X c #ABA28E",
"0X c #A8A9A8",
"qX c #B3B2AF",
"wX c #D1B987",
"eX c #DEC286",
"rX c #E7D4A6",
"tX c #E4DCC7",
/* pixels */
"B.e.N.x.@.@.j j j j k k x x x | _ M ( ( ( ( ( M M ( M M ` C C C ( ( ` ` ` ) ) ( M M M M M M ( ( ( _ x x z c z c c x j l x.B.m.c.",
"B.B.v.$.@.o.l l k j k k x x k i 8 5 1 1 1 1 1 1 1 1 1 1 1 8 1 8 1 8 1 1 1 1 1 1 1 1 1 1 1 1 8 8 1 0 k x c x c c x x l c x.N.c.v.",
"V.B.v.v.@.o.X.x | X...%..... .0 O O 4 e r r r y f 9 % 4 @ . . X 3 % % e u 9 $ 6 S r e S e u f = O $ f  .....o.x k k l c k.c.c.c.",
"m.n.c.O.o.| X.X.x ..t.y.r.~ ! y . @ ,..XOX X_.&XoXv U 8.w . . w 9.>.H }.;XK.y 8._..X.XOX X&X-Xg o $ I ;.;.} ..o.x x o.x c O.c.c.",
"m.b.x.o.o.X.x X.X...i.~.3.2.1.S . % /.1X4X&X8.i.G.h 6.@X/.e w {.,XF.>.$XrX7Xy :.8..X%X5X*Xh.D.d . % E 2.2.<.' | x k.x z z c @.x.",
"c.z.l.c X.x x c X.+.`.Q.3.2.1.K 2 2 /.2X3X}.>.0.N.s P  X#X(.}.,X9XC.:.>XrX7X= X % 6.>XrX-X= o X @ e Q 2.3.;...x j.j.z z j l o.O.",
"l.k.x j.x x x k.o.+.'./.!.5.5.2.J q (.%X2X$X X&X-Xq.4 6.$X$X,XwXF.t J :XrX7X*   X :.<XrXE.&   . 6 <.2.3.5.4.+.x x x z z z l l k ",
"x x z z z x z c x +.i.).(.(.(.(.6.r {.5X3XXXr.s.C.s P +X3X&X|.,X+XP :.,XrX7X=   o >.<XrXE.&   . H Q.(.(.(.9.+.c a x j.z x l x k ",
"l x k k j x l | x +.i.(.Q.W.Q.Q.<.r XXrXtX8XI.E.J.g 6.@X=Xv u {.,Xh.w.3XtX7X*   X s.eXtXE.&   X S !.Q.Q.W.4.%.l j.j.x x z x x p ",
"l l l j j x l l k +.'.!./ W W W G 9 G.qXqX0X0X0X7Xq.U /.u o X f U.S.q.8XqXP.&   o N.0X0XS.o   . 6 R W W W !  .X.x x x k x x z p ",
"l x k k k k l j l %.`.!.W R W W G 3 t v x.q.v q.v 9 2 q @ X X & s s = v v t X . X 9 h v t X X O 7 L R W W L ' x x c x k x x k p ",
"x x x l k l k l o.e.].!.W R R R K m 7 7 7 7 7 7 7 7 7 7 7 7 7 7 6 7 r 6 7 7 7 r 7 7 7 7 7 7 7 r D Y R W ! L  .x c k.x x z x x p ",
"j.x x x l l l o.#.e.].!.Y m S 7 7 7 7 7 7 7 7 7 7 7 7 7 7 7 7 7 7 7 7 7 7 7 7 m 7 7 7 7 7 7 7 m 7 m S Q / ! ' x x j.x z x x z p ",
"j.x x x l o.@.#.$.e.].!.G ; @ ; # # ; ; + # # - ; + @ O . . O X . . . . . X . . X . . . . X . . . . % ,.W.!  .x x x x x x x k p ",
"j.j.z k l o.@.$.-.e.].!.F @ 3 m m b b b b b b b b 1 > .                                             @ ,.W.!  .x x c x k x x z p ",
"j.j.k k | @.#.n.n.a.`.W.F # m T A Z B B B B B B N b < - .                                           @ ,.W.!  .x x c x x x x x p ",
"j.j.j.p x o.$.n.-.a.'.!.F # 5 A T A Z B B B B B N 1 < > .                                           @ ,.Q.!  .X.x X.X.X.X.X.x k ",
"j.j.a k x o.c.n.n.e.].!.F # 5 A A Z B Z B B B B B n < + .                                           @ ,.Q.! ..a a x X.x X.l.x a ",
"x a a a | o.#.n.n.a.'.!.F # 5 L A Z Z B B B B B B 1 < > .                                           % :.W.!  .X.X.X.x x x l.l.k ",
"j.x j.k | o.o.@.n.V.[.!.F # 5 T A Z Z B B B B B N 1 < > .                                           % ,.Q.! ..c.l.o.X.x x l.x a ",
"l.| l k k k | o.c.a.'.!.D # 5 T A Z B B Z B B B B n < + .                                           @ ,./.! =.b.b.b.l.x x o.x a ",
"c X.X.x k k k | @.&.'.!.D # 5 T A Z B B Z Z B B N < , , .                                           % ,.8.~ -.m.M.b.z.x l.l.x k ",
"k x | k X.k k x | &.i.!.D # m T A Z B B B B B B B b , - .                                           @ :.Q.! &.m.M.b.l.x x o.x a ",
"k k k k x k x x k +.i.W.F # 5 L A Z B B B B B B N b < + .                                           % :.Q.^ -.m.b.b.l.x x l.j.a ",
"k x x x x c x j.x +.'.!.F # 5 T A Z B B B B B B B 1 < , .                                           @ ,.!.^ &.b.z.z.l.x l.l.x a ",
"x x x l x x x x x +.i.!.D ; 5 T A A B B B B B B B n < + .                                           @ ,.!.;.=.z.l.l.X.X.x l.X.a ",
"x x x x x x x x x +.i.9.D # 5 A A Z Z B B B B B N b < - .                                           @ ,.Q.^ ..X.X.X.a x x l.l.k ",
"x c x x x x c j.x +.i.!.D ; 5 A A Z B B B B B B N 1 , , .                                           @ <.!.! ' x a X.x a l.l.x k ",
"x X.x j.x x x x x +.y.9.K 3 5 G A A B B B B B B B n < + .                                         . 4 ,.!.! | a X.X.X.a x l.c k ",
"x x x x c x x x x o.*.u.3.D 6 7 A Z B B B B B B N 1 < , .                                         % :.2.;.' | X.X.X.X.x X.l.x a ",
"x x x x x x x x j.x o.t.~.E 3 : A Z Z B Z B Z Z N b , - .                                         q 7.2.[ X.x j.X.l.x x x X.x a ",
"c x x x x x x c x x o.t.^.E 3 : N Z Z Z B B B B B n - .                                           q 8.3.] X.l.j.x k x a x x x p ",
"k x p x x x x k k k o.t.~.E 3 3 A Z B B B B B B N < O                                           . q 8.2.] x x x x x k z x l.x p ",
"x p z x k.x l l k | O.t./.E 3 : B Z B B B B B B B b + .                                           q 7.3.{ | x x x x z x x l.x p ",
"j k z j.j.x x k x X.=.d.^.E 3 3 V Z B B B B B B N b -                                             q 7.3.[ | x c x x x x x c z p ",
"x k x x j.x x l X.o.n.d./.E 3 3 V Z B B B B B B B < O                                             q 8.3.[ | x x x l c x c x x p ",
"l x x x k.x x l o.@.-.g.`.E 3 , V Z Z Z B B B B B b , .                                         . q 7.3.] l x x x c x x x l.x x ",
"o.x x k.k.x j | #.v.V.g./.E 3 : V Z Z B B B B B N 1 , - .                                         q 7.3.[ | x x x c c x x c c x ",
"c x x j.k.x j o.#.n.e.g./.E 3 3 V Z B B B B B B N 1 < , .                                         q 7.3.[ | x x x x c x x o.c l.",
"o.l x k.l.x l o.#.n.e.g.^.E 3 , N Z B B B B B B B n < + .                                       X q 7.3.[ l l x x x x x x c z.z.",
"o.c x c c x j.z.n.n.e.g.~.E 3 3 V A B B B B B B N 1 , > O                                       . q 7.!.] | x x x k k j j c @.c.",
"z.l x o.o.j.k.z.#.n.-.g./.E 3 3 V Z B B B B Z B N b < - .                                         4 7.4.] X.a X.x k z z j l o.O.",
"o.l c c c j.j.z.c.n.V.g./.E 3 , N Z Z B B B B B B n < + .                                       . q 7.5.[ | x X.x x x z c l | O.",
"o.l x l c x l.z.c.n.V.g.^.E 3 3 V A Z B B B B B N < < , .                                         q 7.4.L | a x j.x x z z l l x ",
"o.l x l x j.j.k.@.#.-.g./.E : : Z Z B B B B B B B b , + .                                         q 7.3.[  .X.x j.j.z z c c x j ",
"| x j x x x x k.o.@.-.d.^.E 3 : B Z Z B B B B B B b < - .                                       . q 7.3.[ X.X.X.j.j.j.z c c k p ",
"o.c j x x x j.k.| o.$.p.^.E 3 3 T Z B Z B B B B N < , , .                                         q 7.3.{ z.l.j.j.z j.j.k.c k p ",
"o.j x x x x x x k k #.p.^.E 3 : V Z B B B B B B B n , O .                                       . q 7.3.;.z.l.a j.j.z k.k.x k a ",
"l c x x x x c x x x o.p.~.E 3 3 V Z B B B Z B Z B 1 +                                             q 8.9.} #.o.k a X.x x c l.x a ",
"x x x x x x x x x X.O.t./.E 3 : V Z B B B B B Z N - .                                             q 7.5.;.+.o.| a X.x k x k.X.x ",
"x x x x x x j.x x x O.t.~.E 3 , V B B Z Z B B B b +                                             . q 7.5.{ #.o.l X.X.x x x X.X.a ",
"x x c x x c x x X.x o.t.^.E 6 3 V Z B B B Z Z n > .                                             X w 7.3.} +.o.| X.X.x x c l.X.a ",
"x x x x x x x x x X.l &.t.2.F 7 5 N B B B B B b O                                             . 4 J 1.r.%.o.| X.x x c x k.o.x x ",
"x c x x x c x x x x x O.a.~.<.7 > n B B B B N < .                                             X H 7.1.} O.o.X.x X.x c x x l.X.a ",
"j.x x x x x x c X.x X.| *.].2.7 + n B B B N 8 .                                               X J /.Q '  .x x X.a X.x x x X.X.a ",
"x x c x x j.x x X.x x  .*.^.2.7 + b B B N < O                                                 X J Q.1.' | k x X.X.X.x x x X.X.X.",
"O.k k k x l.j.j.x x x o.*.`.3.7 # n B N < O                                                   X J Q./ ' X.x c x a X.j z x c l | ",
"#.| k k x x l.j.c x x x *.`.3.7 - n N < O                                                     X J Q.^ ' x x x x a x x j z c O.@.",
"+.@.k k x x l.x x x x o.*.].2.7 $ 1 < .                                                       X J Q./ ' X.x x x l.x x c c x.c.c.",
"n.#. .X.x x x x x x x o.*.`.3.7 O $ O . .     o   o o     o     .     o   o   .     o   o     & J Q.^ ' X.x x X.l.x x c x.v.c.c.",
"n.v.#.o.| x x x x x c l &.h.f.$.d d d d d d d d d d d d d d d d d d d d d d d d d d d d d d d g w.h.s.$.x x x x x l l c x.m.v.v.",
"n.n.#.#.o.x x x x x c k.A.P.I.P.J.J.J.J.J.J.J.J.J.J.J.J.J.J.J.J.J.J.J.J.K.K.J.K.J.J.J.J.J.J.J.J.I.I.P.A.x.c c x k l l @.x.B.n.b.",
"-.n.n.c.O.o.x k x x k.Z.J.T.R.R.6X6X6X6X6X6X6X6X6X6X6X6X6X6X6X6X6X6X6X6X6X6X6X6X6X6X6X6X6X6XR.6XR.R.R.L.A.k.x X.| k j l v.v.n.#.",
"n.n.n.n.c.o.x k c x c A.Y.T.T.R.T.T.T.T.T.6XT.T.T.T.6X6X6XT.T.T.T.T.T.6X6X6X6X6XT.T.T.T.T.R.T.T.R.T.T.T.H.z.x l k k k v x.v.n.#."
};
