/* XPM */
static char *player_right1710071853[] = {
/* columns rows colors chars-per-pixel */
"64 64 215 2 ",
"   c #050404",
".  c #0B0606",
"X  c #070906",
"o  c #0A0A07",
"O  c #090609",
"+  c #0B0B09",
"@  c #130B0B",
"#  c #1B0D0D",
"$  c #0F120E",
"%  c #13130F",
"&  c #1A110F",
"*  c #140D12",
"=  c #1A0F13",
"-  c #1A0F19",
";  c #141412",
":  c #1B1214",
">  c #161A13",
",  c #1B1D16",
"<  c #1C121A",
"1  c #231314",
"2  c #271716",
"3  c #22151D",
"4  c #251A1A",
"5  c #2B1C1C",
"6  c #331B1B",
"7  c #3A1D1D",
"8  c #1D221A",
"9  c #1C2519",
"0  c #22251E",
"q  c #28261F",
"w  c #35231F",
"e  c #1F1621",
"r  c #231621",
"t  c #251925",
"y  c #2A1B25",
"u  c #2C1C2B",
"i  c #3D1F20",
"p  c #321D2E",
"a  c #341F31",
"s  c #391F33",
"d  c #242622",
"f  c #2D2422",
"g  c #242C22",
"h  c #2B2D25",
"j  c #2E212F",
"k  c #2B2D2A",
"l  c #342424",
"z  c #3B2424",
"x  c #382927",
"c  c #3B2B2B",
"v  c #263123",
"b  c #293326",
"n  c #2C3529",
"m  c #2E392B",
"M  c #32342E",
"N  c #39332B",
"B  c #323C2D",
"V  c #2F2130",
"C  c #362334",
"Z  c #3A2436",
"A  c #3A2B36",
"S  c #362639",
"D  c #3C253A",
"F  c #3D293B",
"G  c #343533",
"H  c #363B33",
"J  c #3A3A32",
"K  c #3D3D3B",
"L  c #422323",
"P  c #4A2526",
"I  c #4D2728",
"U  c #432E2E",
"Y  c #4C2B2A",
"T  c #532A2B",
"R  c #5C2E2E",
"E  c #45332D",
"W  c #442E31",
"Q  c #40263B",
"!  c #422A3D",
"~  c #453031",
"^  c #4C3534",
"/  c #45323C",
"(  c #4B343C",
")  c #473D39",
"_  c #513636",
"`  c #5B3634",
"'  c #513638",
"]  c #553A3A",
"[  c #593D3D",
"{  c #633334",
"}  c #6C3637",
"|  c #6A3A38",
" . c #6C3B3A",
".. c #703839",
"X. c #33412E",
"o. c #364332",
"O. c #3A4535",
"+. c #3B4936",
"@. c #3E433B",
"#. c #3E4B39",
"$. c #404D37",
"%. c #464439",
"&. c #424D3C",
"*. c #5D453D",
"=. c #405037",
"-. c #42523D",
";. c #65463E",
":. c #6B433E",
">. c #422B40",
",. c #453441",
"<. c #4C3442",
"1. c #4B3A43",
"2. c #513C44",
"3. c #5C3F40",
"4. c #533B48",
"5. c #434442",
"6. c #484A41",
"7. c #4A4D43",
"8. c #4C4C4A",
"9. c #554243",
"0. c #5E4142",
"q. c #465541",
"w. c #4A5443",
"e. c #475842",
"r. c #4B5C45",
"t. c #4E5E49",
"y. c #585746",
"u. c #53524B",
"i. c #5B5C4A",
"p. c #585654",
"a. c #5D5C54",
"s. c #5C5D5C",
"d. c #634445",
"f. c #6B4642",
"g. c #644C44",
"h. c #6A4A42",
"j. c #664649",
"k. c #684748",
"l. c #67484A",
"z. c #6C4A4B",
"x. c #714E4E",
"c. c #625444",
"v. c #665648",
"b. c #695A4C",
"n. c #74504F",
"m. c #6F4E50",
"M. c #724F50",
"N. c #665C56",
"B. c #755152",
"V. c #7B5455",
"C. c #765D56",
"Z. c #7D5658",
"A. c #7E5959",
"S. c #4D6146",
"D. c #4E6249",
"F. c #546146",
"G. c #52654C",
"H. c #5B644C",
"J. c #566B4E",
"K. c #596B4E",
"L. c #566651",
"P. c #576D51",
"I. c #596C52",
"U. c #5B7154",
"Y. c #5F7458",
"T. c #65614D",
"R. c #6A6B56",
"E. c #676658",
"W. c #6E6B5B",
"Q. c #726459",
"!. c #79635A",
"~. c #736B5C",
"^. c #607456",
"/. c #61765A",
"(. c #6C725C",
"). c #657A5D",
"_. c #687C5F",
"`. c #72725F",
"'. c #7B705F",
"]. c #676766",
"[. c #6C6963",
"{. c #726D66",
"}. c #6E7660",
"|. c #667C60",
" X c #697E62",
".X c #767465",
"XX c #747C64",
"oX c #797979",
"OX c #805758",
"+X c #835B5B",
"@X c #817D77",
"#X c #6C8264",
"$X c #6F8669",
"%X c #718467",
"&X c #71866A",
"*X c #72886B",
"=X c #817F81",
"-X c #8C8C8C",
";X c #949394",
":X c #9B9B9B",
">X c #A4A3A4",
",X c #AAAAAA",
"<X c #B0AEB0",
"1X c #B5B5B5",
"2X c #BBBBBB",
"3X c #C4C4C4",
"4X c #CDCCCD",
"5X c #D8D7D8",
"6X c #DCDBDC",
"7X c #E1DEE1",
"8X c #E5E4E5",
"9X c #E8E7E8",
"0X c #EEECEE",
"qX c #F0EEF0",
"wX c #F1F0F1",
/* pixels */
") ) ) ) ~ A C C C C Z C Z S S C C u t e t t j j t : ; * * * = * - e V F F S S S S S S S S V C S S S C S S S S S D S C A / 1.1./ ",
"9.9.2.1.( ! A C S S s D Z Z a t 3 - : < ; < < < : 3 y l x x l l 4 < < C F S S S Z D D D S S F F D D F F D D S F Q Q A A 1.1.2.( ",
"9.9.2.<./ ! Q Z D Q Q Z a r = - 4 l c U W c 4 : z [ z.B.B.B.M.M.j.~ < r C C A A Q Q D D Z D Q Q D D D F Q D Q D Z Q A F ,.1.<.( ",
"4.4.<.( W Q Q Q Q Z s s r 1 l ^ ;.d.[ ^ 2.d.~ U z.V.+X+X+X+X+X+X+Xz.x < C / / / / ! Q D D D Q >.Q Q D F D Q Q D Z Q ! F F / <.! ",
"4.4.<.! Q Z C p p u t 1 = z d.z.n.x.k.[ 3.^ ^ l.Z.+X+X+X+X+XOX+X+XOX[ 3 f F / / W ! A Z a a s S D Q Q D Q Q Q Q Q F F C A ! <.! ",
"<.<.>.Z p 3 < < = = : 2 l ^ _ ] [ 0.d.*.^ ' l.Z.+XV.M.M.B.x.z.V.+X+Xf.4 * : 3 , < < : = - * - - r p s D Q D D Q Q F D C C F ( ! ",
">.>.S r = 1 f x z W ^ ] ] ^ _ _ _ ^ ^ U c k.A.+XZ.m.' ( ] ( ' z.+X+X` :     . X O X O O   O X X O * < u s S D D Q D S S S Q ! C ",
"D S u - y ^ [ d.k.x.n.n.z.d.k.x.x.f.0.^ W x.OXOXOXM.j.d.0.j.x.V.+Xf.5 . @ 2 4 q g g v v g g g , + O O @ e V S D D D D D F A D s ",
"A C 3 < ^ 9.] ] d.M.V.M.f.] [ x.V.V.M.[ ^ M.OXOXZ.A.A.A.A.OX+X+XB.c @ @ L *.*.F.K.K.K.^.U.U.U.D.#.g $   O t S D D D D S D D D a ",
"S u = f ] ^ ^ ( 3.M.M.k.^ ^ ] k.V.Z.B.k.z.V.M.x.B.+X+XOX+X+X+XV.[ : . 6 ` b.#X#X#X#X#X#X#X#X$X#X|.L.B O O r D Q D Q D D D D S a ",
"y = : W 0.0.l.z.z.M.k.' ^ f.x.x.V.Z.Z.V.V.x.[ ] l.+XA.V.B.g.*.^ 5 . # I :.R.#X#X#X#X#X#X#X$X#X$X$X|.q.$ O e S S D >.D s D D D a ",
"= 2 ~ j.m.M.B.B.M.j.^ W d.B.V.V.V.Z.Z.M.j.] _ d.M.z.[ U w 3 & @ . @ i { :.R.).#X#X#X`._.#X#X$X$X$X#Xq.$   @ e u S D S D D D s a ",
"x ] k.M.z.B.B.V.x.[ ] d.n.V.V.V.V.Z.Z.l.^ [ j.k.' l : . . . @ @ # 7 R } :.R.#X#X#X_.W.(. X%X$X#X$X#XG.d $ X O * - u s S D D S a ",
"d.j.d.3.[ l.B.B.M.x.x.B.B.V.V.V.Z.Z.Z.m.l.M.k.z = O @ # 2 7 L P T { } ..:.R.#X#X X_.E.Q.}.%X#X$X$X%X|.G.@.d $ O O * u s D D D a ",
"' ^ W W _ j.M.x.k.x.B.z.j.k.k.d.k.M.V.Z.Z.Z.] =   # 7 T R { | | :.:.:.:.:.R.#X#X#X_.~.Q.[. X%X$X$X%X%X%X|.L.-.d O O - a D D S a ",
"~ _ [ d.z.z.B.k._ ] [ ^ ^ _ ^ ^ ( 3.M.Z.+XB._ @ @ L { } .. .:.b.R.R.R.h.b.`.#X#X X%X(.C.W. X#X$X$X$X$X$X&X&X Xe.> O e a D D D a ",
"d.f.M.M.M.l.l.z.[ z U ^ d.f.k.k.d.;.z.Z.OXV.^ @ @ I } ..} :.T.(._._.(.^.^._.#X_.#X#X}.Q.Q.}.#X#X$X%X%X$X&X*X*XL.e + < Z >.D D a ",
"M.M.M.z.0.~ ^ 3.3.U ] z.M.B.V.V.n.d.d.x.V.x.U + # T } ..:.b.^.)._._. X X_.).#X#X#X#X X~.Q.(.XX#X$X$X$X*X&X*X*XL.8 O - S Q >.Q s ",
"m.z.d.[ ~ W ] 9.d.[ [ [ j.B.V.n.d.^ _ [ [ U : . 2 R } ..:.R.)._._._._.#X X X#X#X#X#X X}.Q.~.XX#X$X%X$X*X&X*X*XL.8 X - a Q F D s ",
"j.' W W ^ 0.m.M.0.W W ' k.x.V.z.^ U U w : @ . # I } } :.T.).)._._._._. X#X X X#X X#X#X(.Q.!.`.%X$X$X$X$X&X*X*XI.8 O < S F >.F s ",
"z.[ [ 0.l.M.V.M.| ^ 2.' U E [ *.x 5 & + . # 5 I { :.:.b.^.Y.#XY._._._.#X|.#X#X#X#X X#X}.~.C.~.#X$X%X&X$X*X*X*XL., O - S >.Q s s ",
"z.z.z.B.B.M.M.M.k.] E 4 @ @ : 2 % + + 1 w E *.g.z.b.T.^.).#XY.|._._._. X#X|.|.#X#X#X#X#X~.A.!.XX$X&X$X&X&X&X*XL.8 O e s >.>.Q s ",
"M.B.B.B.z.d.^ W z 2 @ . @ @ . . . & q E %.*.t.i.i.G.P.U.Y.Y.Y.#X).)._.#X|.#X X%X X|.|./.E.b.N.W.).).). X%X&X&XI.8 O e s Q Q D a ",
"M.x.z.d.^ 5 @ @ . . @ 1 i L 6 # % 1 w h n v v v n n B o.+.-.r.L.Y. X).|.|.|.|.I.D.q.#.O.H c c G H o.O.&.e.I.XXL.8 O - a Q >.D s ",
"[ ^ U w # . . # 1 6 L T [ ;.E & > g G K @.5.5.5.5.5.H n k d d k r.Y._. X#XU.-.k d d k k G K K K K H m k d n L.L.8 O < Z >.>.s s ",
": = + O @ # i T T ` *.T.H.y.h q N.-X:X,X<X1X2X1X1X<X>X:X-XoXp.d n U._. X).r.d n s.oX-X;X>X,X,X<X,X>X:X-Xs.d #.t.8 O - S F >.Q a ",
"  + # 1 7 I { }  .;.H.U.U.r.g 5.,X7X8X9X0X0X0X0X0X9X9X8X7X5X1Xs.d r. X#XY.@.g oX3X5X7X7X7X9X9X9X9X9X8X7X,XK n w.8   - a Q >.Q a ",
"@ 6 Y R { } ..:.:.v.K.U.U.r.d 8.3X0XqX0X0X0X0X0X0XqXqXqXwXwX5XoX9 -.). X/.O.n ;X9XwXwXqXqXqXqXqXwX0XqXqX3X8.v 6., O - C Q >.>.Z ",
"# Y ;.;.:. .;.:.c.K.U.U.U.r.v 6.2X0X0X0XqX0XqX0X0XqXqX0XqXqX7XoXd #.Y.#X|.O.k -X7XwXqXqX0XqX0XqX0X0XwX0X1X5.v q.8 O - s Q >.D s ",
"& E T.;.:.;.T.;.H.U.U.U.U.G.b H >X8XqXqX0XqX0XqXqX0X0XqX0X0X4Xs.9 e.|.|.|.q.d s.3XqXqXqX0X0XqX0X0X0X0X6X-Xk o.t.8 O < a Q >.D a ",
": E T.;.:.;.U.K.K.J.U.U.U.K.o.0 ].3X8XqX0XqX0X0X0X0XqX0X0X8X>XK b L.|.#X|.L.B M =X4X9XqXqXqXwXqXwX0X6X>X8.g t.L.8 O - s D >.s a ",
"> ) F.;.;.T.U.U.F.-.S.U.U.U.S.b k oX2X9X0XqXqXqXqXqXqX0X7X<Xs.d #.Y.|.#X#X|.r.k G oX1X5X9X9X9X9X7X3X-X8.g &.).L.8 O - a D Q D a ",
"& %.F.H.v.H.K.U.S.B #.G.U.U.U.-.v k s.>X4X6X8X8X9X8X6X3X;X8.d o.P.).).#X#X|.Y.r.n k 5.{.;X>X>X:X=Xp.G g &.^.%XI.4 O - a F >.Z a ",
"& $.H.J.J.J.U.K.t.m g $.D.J.U.P.e.n 0 H L.=X;X>X>X;X=Xp.G 9 o.J.).#X).#X|.#X#X).G.O.k d n G G G j h B t.}.&X&XL.8 O - C F ! S a ",
"> $.J.K.P.U.U.J.-.0 > 8 b +.S.U.U.S.+.b d k k G G k d g m q.P.).)._.#X|.|.#X#X#X XY.G.q.@.G c ~ %.y.^.XX&X&X*XI.8 O - C F >.s a ",
"& =.J.P.P.P.U.J.-.g , 0 0 m #.J.Y.Y.P.D.-.O.o.m B o.#.r.L.Y.)._._._.).#X#X).#X#X#X#X#X}./.E.b.V.!.XX%X&X&X*X&XL.8 O - C D F Z a ",
"> =.J.K.P.P.U.J.G.-.B l q 0 B F.U.Y.Y.Y.Y.U.U.P.P.P.U.|.).).).).#X).#X#X|.#X#X#X#X#X#X X`.~.A.A.{.XX*X&X&X*X&XL.8   - t a Z D a ",
"> =.J.K.P.P.U.U.P.G.J 0 x h b -.J.Y.U././.Y.Y.).|.|.|./.).).#X).).#XY.#X#X|.#XY. X#X#X X~.Q.!.+X+XXX%X*X&X*X&XP.8   O $ * - t V ",
"> =.J.J.P.U.K.U.U.r.m , x x q X.-.U././.Y./.Y.Y.).).).).).).).).).#X#XY.#X#X#X#X#X#X#X X~.C.!.+X.X%X*X%X&X*X&XP.8   + > ; $ * * ",
"> =.J.K.P.J.U.U.J.S.o.q w E w b -.U.^././.Y.Y.).Y./.).).).).|._.).Y.#XY.Y.Y.#X#X#X#X#X#X`.Q.~.{.+X*X*X%X&X&X*XP.8 O d #.q.o., $ ",
"> =.J.J.J.U.J.#XU.J.S.+.v N w m S.U.U.Y.Y./.Y.#XY.).).).).).Y.U.G.e.=.#.-.D.I./._.#X#X#X X}.XX.X{.#X$X*X&X*X&XY.8 O b P.).U.e.n ",
"> =.J.U.U.J.J.J.P.U.P.S.B , , b #.-.J.Y.Y.Y.Y.Y.).).).Y.Y.D.#.m 9 > $ $ ; > b O.r.I.|.#X%X#X X.X.XoX$X$X&X*X&XL.9 + n U.|.#X|.t.",
"> =.J.J.J.J.J.J.U.U.U.J.+.0 & > 9 b -.U.Y.Y.Y.Y.Y.)./.J.o.9 > X               + > b q./.%X#X$XXX.XXX&X$X$X*X*XL.8 X m P.|.#X#XY.",
"> =.J.U.U.U.J.U.U.U.U.J.-.+.v % 9 X.G.Y.Y.Y.U.#X).).Y.#.> X                       + 9 t.#X X%XXX'.XX&X$X&X*X*XL.8 X n U.|. X#X|.",
"$ X.S.J.J.#XJ.J.P.U.U.U.J.J.e.X.v #.U.U.Y.U.Y.#X).).U.=.9 o                     O + g G. X#X$X X.XXX%X%X*X&X&XP.8 + m P.|.#X#X).",
"X > m +.S.J.J.J.U.U.U.U.U.U.U.S.+.e.U.U.#XU.Y.U.)./.).J.-.X.b 9 8 > 8 8 8 > 9 d m #.D.|.#X$X$X X'.%X%X*X*X*X&XL.8 + n U.|.|.#XY.",
"X X X 9 v +.S.U.P.U.U.U.U.#XU.U.J.J.U.#XU.#XY.#X).)./.)./.U.J.G.t.t.r.S.S.S.G.P.U.|.|.#X#X#X$X%XXXXX*X*X*X&X&XL.8 + n P. X X|.G.",
"@ @ o X X > X.J.U.U.U.U.P.J.U.J.#XU.U.Y.U.Y.U.U./.).).)./.#X).).).)._._.|. X#X#X#X#X#X#X%X#X$X#X`.XX%X%X&X&X&XP.8 + n L.|.Y.t.m ",
"6 i 7 #   X v S.U.U.U.U.U.Y.U.Y.U.Y.Y.U.F.J.I.(.).).Y._.).).).).).#XY.#X).#X#X#X#X#X#X#X#X#X#X$XXX.X*X%X&X&X&XI.e + d e.r.#.0 $ ",
"w T P #   > +.J.U.U.U.U.U.U.Y.U.Y.Y.J.-.7.&.r.U./.).).).).).#X).).).#X#X#X#X).#X#X#X#X#X$X$X#X$XXXXX*X*X&X*X*XL.9 O $ , > $ + * ",
"I T 7 . X v S.J.U.U.U.U.J.J.J.P.U.L.w.u.[.E.w.H.).).Y._.).).).).).#X).#X).#X).#X|.#X#X#X#X$X#X$X%X}._.%X&X*X&XI.9     + * - r u ",
"R I # . 9 #.U.U.P.U.U.G.-.-.=.#.#.#.%.[.@XW.&.L.Y.Y.).).).).).).).).).#X).#X#X#X#X#X#X#X$X X$X$X).H.t.(.XX*X&XI.8 O * t V Z s a ",
"R P @ . v S.U.P.I.U.P.q.-.a.i.7.M G u.[.[.8.O.D.Y.#X_./._.).).#X|.Y.#X#X|.#X#X#X#X|.#X#X$X#X|.P.w.O.#.I.&X*X*XL.8 O < a D F D s ",
"R P @ . b F.K.U.U.U.G.$.u..X.Xp.K N.oXa.8.5.&.6.P.Y./.).).).).).|.#XY.#X#X|.|.#X#X#X#X#X#X|.L.#.B O.t.).&X*X*XL.8 O - S D >.D s ",
"T i @ . b D.U.U.U.U.J.e.%.u.p.*.u.@X@Xp.8.[.].w.S./.).).).).).#X|.#X#X#X|.#X|.#X#X#X$X XY.t.O.v +.L.}.#X&X*X&XI.8 O - Z F >.Q s ",
"2 #   . b D.U.K.P.U.U.G.e.@.J 5.s.{.N.%.p.{.{.w.S./.).).).).).).|.Y.#X).#X|.#X#X X#X#X|.t.o.#.-.I. X$X$X&X&X*XL.8 O - a F Q Q s ",
"X X $ 9 +.J.U.J.U.U.U.U.D.#.6.[.[.u.K @.6.w.6.6.J./.).).).).).).Y.#X).#X#X|.#X#X#X#X#X#XG.e.P.). X&X$X&X&X*X&XI.8 O : V S F ! A ",
"X > m e.J.J.U.U.P.U.U.U.D.#.s.{.W.%.q.L.G.t.t.P././.)./.).).|.|.).#X).#X|.#XY.#X#X#X#X#X|.#X#X$X&X$X$X&X&X&X&XL.8 O < V F F ! ! ",
"$ X.S.J.J.J.P.U.P.U.U.U.G.$.u.L.w.-.J.Y./.U././.).).).).).).).|.).)._.#XY.#X#X#X#X#X#X#X#X#X#X#X$X&X&X&X&X&X&XI.8 O : S F <.( / ",
"> +.J.U.J.U.U.P.U.U.U.U.I.r.&.&.-.J./.Y./././.)./.).).).).).|.|._.#X#X).#X#X#X#X#X#X#X#X#X$X$X$X%X$X&X&X&X*X%XP.8   < C ,.<.<.( ",
"> +.J.P.J.P.U.U.U.U.U.U.U.I.G.G.J.Y.Y./.Y.Y.Y.Y.).).).).|.).). X#X).#X#X#X#X#X#X#X#X#X#X$X$X$X$X%X$X$X$X&X*X*XP.8 X < A 1.1.2.<.",
"> +.S.S.S.S.S.S.S.G.G.G.G.G.G.J.J.J.J.J.P.P.P.J.J.P.P.P.P.U.U.P.P.U.U.U.P.U.U.U.Y.Y.Y.Y.Y.Y.Y.Y.|./.|.|.)._.).t.> X < A 1.4.2.( ",
"X 9 v v g g g v v v v g v v v v v v v v b v v v v b b b b b b b b b b b m b n m m b n n n n m m m m n n m m m 0 $   : A 1.2.1.( ",
"X X X X X X X X X X X X X X X . X X X X X X X X X X X X X X + X X X X X X X X X X X X X X X X X + O O O X + X       : S 1.2.( / "
};
