/* XPM */
static char *Free_Swamp_Game_Tileset_Pixel_Art31710071916[] = {
/* columns rows colors chars-per-pixel */
"64 64 44 1 ",
"  c #371F2E",
". c #351D33",
"X c #3A1E35",
"o c #3A1F3A",
"O c #39212F",
"+ c #352335",
"@ c #3B2336",
"# c #3C2935",
"$ c #37253A",
"% c #3D253B",
"& c #3C293B",
"* c #402536",
"= c #412A36",
"- c #40253C",
"; c #422A3C",
": c #4A2F3E",
"> c #4B3634",
", c #4E3937",
"< c #46323D",
"1 c #4A333E",
"2 c #4E393C",
"3 c #503B36",
"4 c #513B3D",
"5 c #54423D",
"6 c #3E2640",
"7 c #3D2A42",
"8 c #412641",
"9 c #432B41",
"0 c #482F43",
"q c #463241",
"w c #4C3443",
"e c #4E3942",
"r c #4D3549",
"t c #4F3848",
"y c #503643",
"u c #523B44",
"i c #543C4A",
"p c #593F4A",
"a c #553C51",
"s c #4F4140",
"d c #554142",
"f c #584245",
"g c #57414B",
"h c #59414B",
/* pixels */
"5sss1&#+++o%%$%%$$&&&$$&$%$#*o%@667777&$$$7$$$+$&&$&$&&&;%@#<gg<",
"dd5e1=&#@$Xo@@%%%%%%$&%%-%%%-o-%667&$$++@%$%@@%-%%$&%%$%-@&#qgt1",
"fue1:=-%%*------%%%--%%%-8------67$&&&@+---@%@%9-%%%%-%%X-&&qee1",
"pie1;*---*-o*-----------XX-*--o*7$7&;qqe;:--o%89--------@-;$&<wq",
"iy0:---;XXoXXXXX----------*-X-o*=%=:euigqqq;-o%8---------87++&10",
"008%%-%8-----o--%-%%%-%%-------8;:0yeeuieee;-%o%%%%-%%%%87%++$;:",
"977%%%%$;88-6%--&$%$%%$%---%-%%%1q2yu422ese<=%$%%%%$%%%$o8$+$%-@",
"6$$$$$&&@%+@oX.X$&&&$&&$oo%@o%%@:wuuuuu45<2e&&77$$&&$&&&oo6$&;*.",
"*%@@@%%-%%-;9-%-#*#@%9%o%o%o#-@@ wii2yu22ee1=@o6%%%%%%%-%-%@@6@.",
"%#@@@%%-X@-9wrrr&=-#%;7%6%o%--@o=ypiuu4uyiuq&@%%%%%@@%%7%-%o%%%.",
"%&#$@@@#@=:eiiii00;#%;-%o8%@-%@@=uhhu454uiiq;%%%7%%o%%%%%%%%@%$.",
"%#%%$@@#:1eiiiiyeeq%%&9%8o%%--*X=2uu4444diue;%78%%%%%@%%%8%@%6@.",
"%%%%##*#eyuuiuuuutw%$%8-8o%-;%%@=<2uy444iee<;&7-%%%%%%%%%7%oo$%.",
"7%o@&=;1,2uuuuuuttw&%%-686%%%-%#==0uu4upe21==&%8%%%%%%%%%%%@@6@.",
"66%@%=1422244444etw;@%%8666--9-@--;rrrwu2<=#%%%7%%@%%%%9%-%%%%%.",
"86%o#;2uuu4,,444qrw;@%8%86%-;=-%-%-0w;;w<=##@%%%%%%%$@%%%%$o@%%.",
"66o@@;2u444,4uufirw9%%76%%%%%%%%%%%%%%%&%%%%%%%%87%%%7%o%%;--9%o",
"66oo@=2u444,4u44rq9;%766%%%%%%-&%%%%%%%%%%%%%%%%%%%799%@@%-%%9%@",
"6ooo%=1yu44uuu41:9;;%%66%%%%%%%%%%%%7%%%%%%%%%%%@%%8;%%7o%%X%;-o",
"66oo%=;:iuiihfu2&=&%%%67%%7%%%%%%%%%%%%%%%%%%%%%o$;-%%9q99%%%;%X",
";--X@@*-eeiiiu1;=#%&%666%%%%%%%%%%%%%%%%%%%%%%%%@%%#@;qarr8%%9%o",
"---%@@@@::0qw:;#%%%%%%66%%%%%%%%%%%%%%%%7%%%%%%%=##=%:tgar9%-9-.",
"%#*@%@@@;-;;;-%@#%%-%%%6%%%-%%%%&%%%%%%%%%%%%%%%%#@=qtiaar9@%9%.",
"Oo@@%-%%--%-;-%@#%%%766%%%%&%%%%-%%%%%%%%%%%%%%%##*;uiiiar-@%;%@",
"%%%%%%%%%%%%%%-%%%%%%&%%%%%%%%%%%%o$%%%o%%%@%%%7%*-0aaie99;--9%.",
"%%%%%%%%%%-&%%%%%%%%%%%%%7%%%%%%%%%@%%%%$%%%%%%%@@*9rrr0-8%@-9%X",
"%%%%%%%%%%%%%%%%%%%%%%%%%%%%%%7%%%+o%@$%%%%%%@%%%@%-009-%%oo@0;@",
"%%%%%&%%%%%%%%%%%%%%%%%%%%%%%%%%@%%@+.@o8%%%%%@%%-%-;;-X%@@o%9-o",
"%%%&%%-%%%%%%%%%%%%%%%%%%%%%%%%%@#&%@@@@%%7%%%o%---;-%oo--%@%9;.",
"%%%%%%%%%%%%%%%%%%%%%%%-%%%%%%%%#&:q&%@@%%%%%@%%-8888%%%98%%-9%.",
"%%%%%%%%%%%&%%%%%%%%%%%%%%%%&%%%-:tiq;==%o%%%%%%6897866%%-@@%;%.",
"%%%%%%%%%%%%%7%%%%%%%&%%%%%%-%%%;qggiq;:%@%%%%%-%8866%88%%oo%-%.",
"@+o%7%%#oo@XXOO@ O#@Xo%%%%%%%%@@<wuiiy;=7%%%%%%-%%%%%%%%%%+o%9%.",
"@o.67%@%@-;;=;;:=;:9*%@%o%%%-7%%=:wiiu2>-%%%%%%-%%%%%%%%@%%@89@.",
"#@o%8%@%@-0reeuueyew:=%%.@%%7--8%-1eyyee%-%%@%--%%%%%%%%%%%%%%@.",
"%@o66%@@#=qtyuuuiuiuw0;;@@%%%%%7@%-;:w10;-%%--%-%%%%%%%7%%%%%7%.",
"=%@787@#;:yuuu44uuuier:=%%%%%@%%%@%*=-;=-;%--&-%%%&%%%%%%-%@%;%o",
";$%78%@%1uuuu4442yuuiy:;7%%%@%%%%%%%%#*=8%%%%--9%%%%%%%%%7-%$8;%",
";%o887%@2uuf444422yuuiq=%%%@%%%-%%%*@@#@;99--99-%%%%%%%%@%7o@79%",
";%%78%@#2444,334242uiuw%%%@o$%99o----*#@-9%%-%--%%%%%%%%@%%%@;99",
":%%&;%794uuu44uuyuuuue:;%%%%%%&--%%%%%%%9%%%%o-8o%%--@%-o%@++&;2",
";%%-7%69122y12224uuuuw1:%%%%%%%%%%%%%%%%%%%88;88o%-%%o%-%%@$#&;:",
";&#=6669uuuuuuuu2uuye1;;%%%%%%%%%%%%%%%%o%-8---*%--%o@%%-o%$@==;",
";&%%%669uupiiuupuuuw1:;=7%%%%%%%%%%%%%-%*%%#@#@#;;-#@oo-8-%+&&-*",
";%%%%%66<12ytuuiuuyq:-#X%%%%%%%%%%%7%%%%%@#@*==1:::&-%%o66$$&&$@",
";%@$%%68=;wyeyruye1:%#@X%%%%%%%%%%%%%%%%%@-=:2uf12rq98--66o77&@.",
"&%@%%$66*;1wr::1::;*%X@@%%%%%%%%%%%%%%%%X-:14u544uuir9866o6$7-X.",
"=#@%%%66 *=;=#@#*#*#@%%%%%%%%%%%%%%%%%%%@;1uu43>4uppr0888o%779X.",
"%%%%&%%%-%%%--%%%%%%%%%%%%%%%%%%%%%@%%%%-90w4444uuuuue-O*-6@7;-o",
"%%%%%%%%-%-%%%%-%%&-%%%%%%%%%%7%%%%%%%%%%9riu43,4uuuuw;OX-%%%8-X",
"%%%%%%%%%%%%%-%%%%%%%%%%%%$%%%%7%%%@%$%-o9eip4,,4uuuyw;@*-o@-8-X",
"%%%%%%%%%-%-%%%-%%%%%%%%o%@@@%%%%%%%%%%%-;rifu42uuuuy1;#*--%%--X",
"%%%%%%%%-%-%--%%%%%%%%%%@o%@@%%%7%%%%%%%-;9wyuiuuiiyw:=-o--$&9-o",
"%%7%%%%%%%%%%%%-%%%%%%%%%$&%6%%%%%%%%%%%---=:weuiuyr:&-%--%%%9-X",
"%%%%%%%%%=%-%-%%%%%%%%%%-999987@6%%@%$%-;-%-::qq:q1:%%%-X-%%%;-X",
"%%%%%%%%%%%-%%%-%%%%%%%%99rr08;%%%@%%%%%--@#;;;=*=;=@@%%X-%%%;-X",
":=@ o886%%%%%&%-%;%@%87o#:ty1*@O%%%%--%%%%%%%%%%%%%;%%%%-*+$$#=-",
"1=OX%886%%%%%%%%%9%%%97@-0iiq;#=-%-%%%-%%%%%%%%&%%%%%%%%-o@$&&=:",
"e:*@%-8o%%%%%%%%%8%%%9&%;:er:;=;%-%%%-%%%%7%%%%%%%%%%%%%-o%&&0ww",
"u1=-%%%%%%%%7%%%%7%@%99@#-;;=-%-%%%-%%%-%%%%-%%%%%%%%%%%--%;qeey",
"u42==%%%%%%%%%%%-9%%%97@X@@%%%%%-%%%-%-%%%%%%%%%%%%%%%%%;##&egtt",
"uuyq;-@%%%%%%%%%%8%@%88%%%%--%-;%%--%%-%%%%%%%%%%%%%%%%%=###etee",
"4uue:-%@%%%%%%%%%-7@%;-@-%-%;---%-%%%-%%%%%&%%%%&%%%%%%%-#+#eee2",
"4uuur=%%&%%%%%%%%7%@%98%%%%-88-%%%%-%%%-%%%%%%%%%%%%%%%%@@+&ei2:"
};
