/* XPM */
static char *wall_an_space1710079282[] = {
/* columns rows colors chars-per-pixel */
"64 64 256 2 ",
"   c #191803",
".  c #181618",
"X  c #100B0D",
"o  c #281A03",
"O  c #27181B",
"+  c #2C1415",
"@  c #182718",
"#  c #152D0C",
"$  c #282906",
"%  c #332802",
"&  c #2D3509",
"*  c #282718",
"=  c #35271A",
"-  c #263519",
";  c #3A3717",
":  c #3B3604",
">  c #1D172C",
",  c #2D1C2D",
"<  c #281726",
"1  c #321D2C",
"2  c #381B2A",
"3  c #2B1934",
"4  c #351D33",
"5  c #391D35",
"6  c #351B3B",
"7  c #3B1D3A",
"8  c #32163C",
"9  c #280F2F",
"0  c #1A2B2D",
"q  c #2D232B",
"w  c #2B2526",
"e  c #33232D",
"r  c #342C2C",
"t  c #392829",
"y  c #293529",
"u  c #39352A",
"i  c #2B2836",
"p  c #352433",
"a  c #3A2435",
"s  c #352A33",
"d  c #3B2B34",
"f  c #35243A",
"g  c #3C243B",
"h  c #3D2A3C",
"j  c #352A3D",
"k  c #263536",
"l  c #3C3335",
"z  c #3A3738",
"x  c #44361C",
"c  c #411E3C",
"v  c #453928",
"b  c #412B36",
"n  c #42243D",
"m  c #422B3C",
"M  c #47283A",
"N  c #413433",
"B  c #42343D",
"V  c #443D3D",
"C  c #483A38",
"Z  c #492E31",
"A  c #38460F",
"S  c #384538",
"D  c #354528",
"F  c #495719",
"G  c #555819",
"H  c #4E4D10",
"J  c #60551C",
"K  c #586A0D",
"L  c #667405",
"P  c #727C05",
"I  c #687715",
"U  c #757B18",
"Y  c #6A6C17",
"T  c #494627",
"R  c #4B5426",
"E  c #585C28",
"W  c #47463A",
"Q  c #564B37",
"!  c #485939",
"~  c #585738",
"^  c #574826",
"/  c #665938",
"(  c #576627",
")  c #5A6639",
"_  c #547034",
"`  c #656927",
"'  c #6A792B",
"]  c #767A28",
"[  c #666935",
"{  c #687337",
"}  c #777637",
"|  c #716833",
" . c #341A4A",
".. c #1A2543",
"X. c #3D2442",
"o. c #392945",
"O. c #3B3545",
"+. c #2C2E4E",
"@. c #362B6A",
"#. c #22215B",
"$. c #421D48",
"%. c #432542",
"&. c #442A42",
"*. c #482A48",
"=. c #453343",
"-. c #453B43",
";. c #4B3C44",
":. c #4B3C4A",
">. c #483648",
",. c #533947",
"<. c #4A3A57",
"1. c #4B2F57",
"2. c #483269",
"3. c #3D4945",
"4. c #4C4445",
"5. c #4C4C44",
"6. c #4D434B",
"7. c #494748",
"8. c #51454C",
"9. c #524B4C",
"0. c #564746",
"q. c #4C5747",
"w. c #55544D",
"e. c #565B4A",
"r. c #4B4455",
"t. c #544C53",
"y. c #564855",
"u. c #5A5554",
"i. c #5B5C54",
"p. c #5D5C5B",
"a. c #575655",
"s. c #4D5655",
"d. c #635D5B",
"f. c #635A56",
"g. c #615642",
"h. c #4D6846",
"j. c #546B45",
"k. c #54654B",
"l. c #5A644D",
"z. c #546B4C",
"x. c #5B6C4C",
"c. c #586645",
"v. c #5B724C",
"b. c #557348",
"n. c #536452",
"m. c #5C6454",
"M. c #556C53",
"N. c #5D6C53",
"B. c #5D645A",
"V. c #5D6B5B",
"C. c #55685B",
"Z. c #5C7254",
"A. c #5D735B",
"S. c #597650",
"D. c #4E6A58",
"F. c #64684A",
"G. c #67754A",
"H. c #616C54",
"J. c #63645B",
"K. c #636B5C",
"L. c #676959",
"P. c #627355",
"I. c #64725C",
"U. c #687659",
"Y. c #777956",
"T. c #77714A",
"R. c #544D67",
"E. c #665B66",
"W. c #6E5F72",
"Q. c #5C6966",
"!. c #5E7265",
"~. c #5B7071",
"^. c #656C62",
"/. c #6A6D63",
"(. c #676766",
"). c #647263",
"_. c #6A7264",
"`. c #697767",
"'. c #717569",
"]. c #757676",
"[. c #706C71",
"{. c #827A36",
"}. c #867E49",
"|. c #6B8702",
" X c #778706",
".X c #7B9506",
"XX c #7C8B13",
"oX c #7A8619",
"OX c #7D9518",
"+X c #6C8819",
"@X c #7A8626",
"#X c #798737",
"$X c #748D2B",
"%X c #7B8747",
"&X c #7B9443",
"*X c #728550",
"=X c #7B8373",
"-X c #848B08",
";X c #849402",
":X c #849B01",
">X c #84930B",
",X c #899B08",
"<X c #828C1C",
"1X c #868A18",
"2X c #849413",
"3X c #8B9B14",
"4X c #85921B",
"5X c #8B941C",
"6X c #8C9B1C",
"7X c #879815",
"8X c #939D1C",
"9X c #929A16",
"0X c #919E0B",
"qX c #8CA409",
"wX c #95A507",
"eX c #8AA41A",
"rX c #95A518",
"tX c #96B114",
"yX c #A1AA1E",
"uX c #838C24",
"iX c #848C2C",
"pX c #888A28",
"aX c #849323",
"sX c #8B9424",
"dX c #8C9B24",
"fX c #85942B",
"gX c #8C952C",
"hX c #8C9A2B",
"jX c #849A26",
"kX c #939C25",
"lX c #929C2B",
"zX c #949728",
"xX c #868935",
"cX c #938D3B",
"vX c #8C9434",
"bX c #8A9738",
"nX c #939A33",
"mX c #949939",
"MX c #918E27",
"NX c #8CA226",
"BX c #94A224",
"VX c #98A52B",
"CX c #97A537",
"ZX c #92AB30",
"AX c #A4AE39",
"SX c #A19D2F",
"DX c #858547",
"FX c #8B9546",
"GX c #959845",
"HX c #969954",
"JX c #8C8F50",
"KX c #98A446",
"LX c #92A652",
"PX c #A3AC4B",
"IX c #8C9769",
"UX c #6A6D86",
/* pixels */
"% O.#..   * w $ o % o o % o X O O O + + x +   o 9 + o = f 9 = : o $ % + < % o d 3 X + o % $ * < . X * * 3 X Z %   = . i * $ $ = ",
"KXxX} G - ) DX#X{.cXcXcXJX} T C iXZXdX X{.pXzXVXMXSXmX} W * T #XuXpX1XpX{.MX-X}.e.S ~ { mXvX{ W k * y y S R }.xXGX{.$ D ( bXzX-X",
"GXK K ` G #XPX7X-X8X5XsXvX@XG E A OXNX.X.X3X6XaX.XOXY ( _ K +XPX8XrXwX0XzXtXqX[ F ' ' iXjXNX$X{ ! S k S ( L VXzXMXkXK ( ( ' AX,X",
"I . k #XeXaXhX;XrX9X>X3XdXdXhXCX$ ) IXGXBXdXjXiXOXG.y y %XbXOXOXfX@X;X7XU 6XjXu F $XXXeX<XfXOXeX&XR k b.nX.X,XMXP yX>XbXD T DX1X",
"7X! q.$XtXjXuX3XaX<X4XdX6X7XqX.X) E E I 3X,X;X>XZXIXO.w { VXrXoXFXbX5XkXxXnXKX0 ) nX.XwXzXcX1X:XZXA   G.AXqX;XcX7XyX>XbX( ) mX3X",
"tXtX.XqXNX$X1XkXCXvXvXCXdX3XqX.XLX_ & G lXtX9XNXqXbXA $ K kXSXpXlXzX;XrXiX3XNX- s.bX:XwXpX{.zX,XmXF X ! VX:X{.GXfX6X X6X.X3XqX:X",
"NX|.|.rXZXgXzXzXkXoXuXiXoXXX7X.XLX_ @ 3.Y.%X{ G.+X$XK F U 6XkX<XkXkX-X8XvX.XeX& D.U.4XVXrXU PXlX*Xq.@ _ bXNX2XmX4XOXsXVX9X9XL oX",
"bX. i $XwX<XcX-X0X-X5XCXvXvXhXOXOX_ y k S - @ k - S b.&XGXaX6X7X5XcX-XlXDXoXOXA 0 0 A +XtX|.$XA @ k # h.&XZX7X7XrXaXvXMXoX` e R.",
"G.@.2.E P iXxX0X1XsXmX@XpXgXCX5X6X( k +.+...#.#.i k $XqXmX<X,XwXpXnX5X1XKXGX}.Q r.> W *X%XJX*X! ..+.S [ T.xXAX XGX@XrX XPXT.i @.",
"^ @.2.; H } GX7X>X3XVX5XkX5X8X-XkXG , 3 O.-.O.R.o.r @XrXKXvX>X<XpXnXkX1XpX: w , o.9 w v x x z * 0 k * = ; J mXkXmX XwX>XKXF.. O.",
"o  .@.+ % { JXzX>X.XeX.X0X-X9X8XmX| C p s t * O o.* ] >X@X@XfXbXiXaXkXkXxX% a 2.M *.M b e t d t O.O.l t = x } xXAX5XwX9X] | r -.",
"; 8 2.a = N ^ Y CX4X3X>XrX>XSXAX% T 0.i.f.F.f.f.6 w cXVXsXuXZXNXOXXX2XkXcX% ,  .,.E.W.R.E.E.u.f.u.B.p.6.h u T G KX1X5XgXH T O p ",
"v g 1.*.a , = / JXxXmXmXmX@X{.DXu e.].].).N.B.m.o.u T.vX-X0X9X XNXNXkXnXJXv =.*.T L./.p.[.`.V.V.U.I.d.4.o.i = ; xX{.xXDXT N 1 e ",
"W 8.r.f f X.h u.Q ^ Q v / ^ Q / 7.s.C.D.D.D.!.^.E.T Q H {.8XlX;XOXjXU H x % N ;.! P.M.q.C.!.z.z.L.H.l.w.s.<.1 t g.Q Q e.d =.u.d.",
"].'.J.z m &.9 c b + c + 1 < b N [.K.z.b.D.C.Q.(.}.[ C < | cXGX5XKXLXT.Z c + ,.5.H.`.H.j.z.Z.z.A.D.z.G.v./.E.p 5 h 1 < . i -./.U.",
"~.K.c.W y.1.8 $.M c 1.$.1.X.m e E.F.b.v.v.n.C.(.B.E ,.8 / T.Q K G ) 0.*.R.,.p.w.Q.J.H.x.x.x.N.B.D.b.b._ m.u.9 7 m a h o.R.s.A.( ",
"_.K.F.e.d.r., g b 2 O w t s p 6 U.F.) x.P.A.M.M.H.i.7.j 3 < < . < q 4 9 >.E.B.!.!.V.n.N.M.Z.I.M.z.N.j.P.L.W a &.m d l l B.K.).A.",
"V.N.P.l.(.t., z u.0.4.5.9.:.O.h F.F.F.x.P.P.A.C.I.K.O.p r.y.8.9.5.9.,.5 =.d.n.M.).V.N.N.H.P.N.B.M.P.x.x.U.5.e &.n a d r B.m.Z.v.",
"A.z.v.H.(.6.q r.L.H.B.K.J.w.-.h q.m.N.x.z.v.S.M.I._.u w E.[.i.I.!.^.u.b C f.k.v.^.B.N.N.H.H.K.N.M.Z.x.x.I.4.e o.n f d r m.x.Z.b.",
"!.j.) v.B.3.q p.P.x.z.Z.B.i.r.:.V m.).P.x.x.Z.z.e.e.z z B./.l.L.A.A.i.u v f.x.G.^.K.H.H.H.H.H.H.N.A.N.N.K.9.e g X.7 h d J.l.P.b.",
"I.h.j.G.K.O.w a.P.b.j.v.V.K.d.d.z a./.I.N.I.I.m.u u 5.B.m.H.U.l.h.V.e.r v F.x.G.Q.K.H.H.H.H.H.K.N.I.n.N.^.9.p p X.7 h r J.l.G.v.",
"M.h.x.U./.O.> 7.U.N.j.z.Z.H.K.K.y 7.u.i.w.i.i.u.w w n.=Xk.z.`.h.M.V.i.r l J.k.j.B.V.H.I.H.H.N.H.v.I.M.B.(.t.s g c f s r m.l.Z.v.",
"V.x.x.H.^.<.< 4.I.N.z.v.Z.H.N.B.s d l B B -.=.>.e r i.`.M.h.b.h.K./.p.e N J.M.h.V.B.I.I.H.N.N.V.x.I.M.B.(.t.g a &.g d r i.n.Z.S.",
"`.H.l.e.a.:.4 y./.B.n.A.U.P.x.l.>.d s e p q 6 6 i z 5.D.M.z.z.v.(.(.y.1 d Q.A.M.C.V.A.Z.Z.M.M.A.z.I.n.C.~.a.d a ,.B l s m.m.I.A.",
"'.I.f.4.d g >.<.L.V.M.N.n.V.I.).s s b &.*.%.&.O.e C f.(././.[.].4.-.b &.,.u.H.x.V.N.N.m.z.l.x.x.I.L.f.u.B a -.s ! a.s.B.z 5.U._.",
"4.4.;.N e a %.>.W q.n.N.N.m.V.I.s s n n %.g X.o.1 b ,.0.9.7.7.9.l d a 7 o.:.w.k.A.B.N.N.N.N.H.H.k.w.C B a g s.7.k.K.^.`.z z 5.V ",
"e p p a a 5 n n u W m.^.K.J.J.K.B h n M %.%.g o.2 e a m h s e s r a g f 6 j 7.7./._./.K.K.K.L.L.i.w.l r r 4.(.B.k.`.B./.l s d t ",
"g f g g n n c a z V 9.u.w.w.9.9.B h n M &.g g o.M n 5 b g a p f d d m X.g f O.7.u.a.u.w.w.w.w.w.0.B e w t z I.K.z.I.q.r.p f &.M ",
"*.X.%.n %.m n n q s p d d d d e d f a g g f f g *.n 5 n m g m &.a n g g g f f f a s s a r e d t t d e a r S /.I.H.I.z z , g %.n ",
"%.X.g n n n n n g p 2 1 p g a a g a g g m n g h &.5 5 f g 5 6 g b g n M &.&.g 4 f 7 g a a 5 a 2 a &.&.=.g =.p.u.9.a.i h g *.c c ",
"g a n g g a g g m n n n n m &.M n g g m &.g h &.g g p g f 4 4 a X.n M ,.,.,.M M *.*.*.*.*.*.n %.5 n f g 1 , =.p q -., X.%.*.n M ",
"d b m m h g g f 5 c n n n c c c g g f g g p a g h g h O.h f a m 6 g *.,.,.,.C C $.c %.c c c 5 5 M n 5 7 6 7 >.5 < :.3 X.7 7 4 n ",
"n 2 &.%.*.*.5 b g 7 m o.f &.*.7 n &.%.%.n g g m j f p g h m g a 7 &.>.-.4.8.0.Z m m n n o.m X.X.,.M *.4 m 5 n $.c %.h h g X.X.c ",
"b 5 &.n c n 5 n h d B g , p &.6 c n n g 7 4 7 f h h g g f a a 5 g g h =.>.0.,.,.M b b n &.n n n $.7 m 4 m 4 %.c %.%.o.o.h X.%.*.",
"h g *.7 7 n a =.w.w.a.8.d a &.n M &.m n g g g g p f g g n n M %.%.7 g m =.,.0.,.b n b a a n a g c g B a =.f &.&.n m X.g a 5 c *.",
"p g &.6 7 =.-.9.A.V./.d.m p g b a n h h d g j d f p g m &.%.n c *.n 4 h M &.,.0.b n b a a a g a 5 4 h e s q =.&.4 g m g g c c M ",
"q p =.4 p 6.t.a.v.M.L.d.N 1 1 e ,.4.8.9.9.6.9.9.u.:.=.b g n 5 5 m 5 1 p a d m M M B b b n m m n h >.y.4.9.4.9.6.e d O.&.%.n d b ",
"e d =.q r w.i.B.P.m.d.y.m p h z J.J.L././.^.^._.[.u.>.d a a n n a d a d d d b a n f g g g X.g g =.u.]./.`.m.L.i.r s g g n b l b ",
"0.0.6.q r e.H.H.'.e.9.,.n B 9.f.k.l.H.H.N.z.z.m.K.J.w.V d d b M N 4.8.6.4.9.4.d 6 5 6 X.X.X. .6 e 7./.H.H.k.N.q.5.S s f f =.4.0.",
"(.d.w.r r i.H.P.U.4.d 5 2 b f.I.j.x.P.x.v.z.z.z.H.I._.f.;.t 1 e 4.f./.d.J.[.d.C g g X.*.*.*.*.X.r 0.I.l.x.j.P.H._.a.z f o.6.d.^.",
"I.L.m.7.w.C 4.0.8.:.e l 9.w.m.i.H.H.N.N.H.N.H.P.H.l.z.).6., h -.w.L.'.G.k.L.[.,.a f X.*.X. .7 n l w._.z.*Xq.e.^.).(.a 4 9.i.H.F.",
"L.J.K.e.J.V N b =.;.e V J.J.).K.H.N.N.H.N.N.N.H.I.l.k.B.-.4 6.B.e.e.Z.j.! L.E.M 1 g g 3 < p p , s u./.q.!.Z.M.z.!.E.d d u.J.m.F.",
"F.H.U.B.^.4.a 2 g h q ;.J.K.L.B.P.N.N.N.N.N.H.P.L.J.k.B.-.4 t.^.I.P.v.z.z.`.J.u s r.6.u u 8.6.i q p.'.q.M.S.Z.h.!.B.a e p.V.G.c.",
"x.x.H.n.J.>.h b g b q V J.J.H.N.H.N.H.N.N.N.H.N.L.H.M.^.-., 7.B.H.z.j.j.v.P.e.z 7.d.J.e.l./.a.j q p.].V.k.h.S.b.!.a.t q B.C.Z.) ",
"v.j.N.k.(.-.h X.%.&.e 4.J.H.P.M.P.H.N.N.H.H.N.P.J.H.P.`.6.4 y.L.m.N.B.P.I.N.w.5.s.i.H.F.P.U.i.3.-.9.p._.K.N.z.b._.d.b w B.M.P.b.",
"b.z.N.M.(.V p 7 %.&., B d.J.I.x.N.N.H.N.N.N.N.H.l.c.k.B.-.4 y.(./.].'./.J.9.V q.N.m.l.N.H.H.e.e.d.z l E.(./.n.q.^.f.C w (.n.U.j.",
"x.z.A.V.(.V 1 4 n n , B J.m.N.z.H.H.N.H.N.N.H.P.b.j.h.B.:.3 *.8.6.y.8.;.=., w :.G.H.H.B./.K.G.G._.z < 6.8.y.4.z q.8.M 2 (.n.U.b.",
"S.z.M.n.(.l e b %.*.a 6./.H.Z.z.P.N.N.H.N.N.H.N.v.S.S.`.y.9 7 n 9 , 9 5 h 4 h W.) F.J.(.(.K.F.) _.z < =., a w w i d b 9 (.e.`.x.",
"G.N.B.R.R.o.8 a o.2.9 z b.*X! ~.G.F.`.Q.~._.c.{ ].z.R 9.2.8 Q J W [ E H ~ = l y.F.) L.Q.Q.G.G.D.[ u o.*.b = Z X.X.X.6 f 7.B.K.N.",
"p.(.w.W v t p X.O 7 o.-.Y.G.k.!.k.z.v.z.b.M.h.z.q.q.W d g 2 g.GXlX6XdXCXDXq O.UXI.{ P.).C.j.S.UX[.r.o.8 2 a 4 3 e g f i s 9.J.U.",
"W.W.f.t + ; v ; ^ v M g f.w.I.I.~.I._ _ _ b.!.!.F.d.>.3 C x ] xXqX;XqXCXbX; 4.R.V.v.G.V.V.z.M.~.r.6.v u C Q W T T v d p f ,.f.L.",
"o t a 9 5 Y.PXBXcXJ Z , o.r./.H.D.!.h.x.b.h.!.Q.x >. .8 T.pXsXsX<XXXdX6XdX@XDXA 7.m.x.e.B._.q.r r | MX5XcXGXMX8XHX}.Q d p 2 t 2 ",
"b Z ,.m C } zX X9XY ^ C 8 <.9.Q i./.J.].].E.`.p.o m 2.8 {.zX9XkXFXcXKXoX7XVXPX% r.W.L.g.(.[.f.Q : U wX,X3X2X-X;XiXY H v b b &.,.",
" .8 v ` U zXlXoX9X5X] F.< f j r ; N 1 6 8 , h u u o.*.= Y 9X>XXXdXgXmXoX2XaXFX& p O.d t g 9 Z | xXGXBX7XdXBXkX>XCXgX#X| T + < g ",
"2.< x iXBX8XkXfXzXkXBX] T g j p u u x Z t d y f o.3 r : U BXrX5X3XsXnXaX3X6XFXD o.+.O.s O...C CXzXMXuXoXXXaXhXuX6X8XlXvX( ; e <.",
"UX< ; #XvX2X>X>X<X3XrXXXT.d.r.f j V T.}.}.T.O...+.O.U.` {.9X5X<X4XvXvX+XqXrXmXA . +.+.k +.#.u |.;X-XzXnX.X:X6X@X4X-X7XhX] T s <.",
"IXD & DXCXXXgXKXqX>XZX6XNX$X- 0 D K eX9XlXP A # +.@ &XKXsX6XrX;XwXxX@X;XdXFX@XF # +...# 0 #.0 jXwXzXHXxX5XrX6XmXyXBX-XrXAXK $ a.",
".XL I @X2X0X9XXXdXaXaXNXNXbX- ..S.+X,X1XzXpX$X*Xk # &XCXsXsXhX4XwX#XfXyXBXE T [ +X{ $X|.+Xk 0 &X,XP vXpX>X;X XuXpXMXpXXX5X XK L ",
"qXqXCXKXnXdXeX>XbXmXoXeX.X&X# 0 *XNX0X5XMXlXOXLXk # #XdX4XsXiXpX-XxXvXqX|.+.+.{ wX>XdXtX+XD - $XCX5X5X7X8XrX3XrXmXzXmXuXjXZXeXeX",
"qX.X#X[ ! } iXhXfXlX2X7XOX$X# 0 &XdX,X9X1XVXXX#Xk # #X4X5XlXnXhXaXZXjXqXXXr.@.+XwXdXnXsX$XS.D.( E ] 5X.XXXzX6X-X9X X,XOXfX#XF ` ",
":XCX%X* * Y.LXAX X;XqX-X&X&XD 3.%XOX:X2XXXBX.XbXz $ ' oX7X9X8XkXjX>XXXeXjXO.i K GXcX1X;XrXLX*X- = { KXAXnXvXhX5XjX3XwXrXKX) @ z ",
"eX2X4XG F [ K  X,X:XyXoX$Xh.0 S _ +XeXkXnXNXL _ l.R bXoXsXsX2X2X6X6XoXL K W ! +XlXzXMX8XrX6XfXK ! F G #XmXuXuXsXDXbX3X XI E T E ",
"AX.XrXCXLX( $ ` BX9XnX{ k 3.@ # z ( hXvXFX] A k GX@XPXlXmXmXoX5X6XPX#X; u #XAXZXqXrXcXHXzX XrXyXLX( & ( CXkXVXvXHXKXdXxXG E PXnX",
"-XL .XoXG.W X s.pXU | F.> r.0 D +.T @X' Y.E u +.|.L >XL ] ] I oX1X] G w O.U qX` I ] Y ] 1XP @X{ K F # R I P -XP  XL U HX= = KXL "
};
